<?xml version="1.0" encoding="UTF-8" standalone="no"?>
<!-- Generator: Adobe Illustrator 22.0.1, SVG Export Plug-In . SVG Version: 6.00 Build 0)  -->

<svg
   xmlns:dc="http://purl.org/dc/elements/1.1/"
   xmlns:cc="http://creativecommons.org/ns#"
   xmlns:rdf="http://www.w3.org/1999/02/22-rdf-syntax-ns#"
   xmlns:svg="http://www.w3.org/2000/svg"
   xmlns="http://www.w3.org/2000/svg"
   xmlns:sodipodi="http://sodipodi.sourceforge.net/DTD/sodipodi-0.dtd"
   xmlns:inkscape="http://www.inkscape.org/namespaces/inkscape"
   version="1.1"
   id="Layer_1"
   x="0px"
   y="0px"
   viewBox="0 0 100 100"
   xml:space="preserve"
   inkscape:version="0.91 r13725"
   sodipodi:docname="yielderssquarelogo.svg"
   width="100"
   height="100"><metadata
     id="metadata3809"><rdf:RDF><cc:Work
         rdf:about=""><dc:format>image/svg+xml</dc:format><dc:type
           rdf:resource="http://purl.org/dc/dcmitype/StillImage" /><dc:title></dc:title></cc:Work></rdf:RDF></metadata><defs
     id="defs3807" /><sodipodi:namedview
     pagecolor="#ffffff"
     bordercolor="#666666"
     borderopacity="1"
     objecttolerance="10"
     gridtolerance="10"
     guidetolerance="10"
     inkscape:pageopacity="0"
     inkscape:pageshadow="2"
     inkscape:window-width="1855"
     inkscape:window-height="1056"
     id="namedview3805"
     showgrid="false"
     inkscape:zoom="2.2575758"
     inkscape:cx="-59.849763"
     inkscape:cy="194.81262"
     inkscape:window-x="65"
     inkscape:window-y="24"
     inkscape:window-maximized="1"
     inkscape:current-layer="Layer_1" /><style
     type="text/css"
     id="style3738">
	.st0{fill:#FFFFFF;}
	.st1{fill:url(#SVGID_1_);}
</style><radialGradient
     id="SVGID_1_"
     cx="-1624.1482"
     cy="-119.1175"
     r="36.418598"
     gradientTransform="matrix(0.7635,-0.6855,0.6728,0.7737,1380.348,-969.52975)"
     gradientUnits="userSpaceOnUse"><stop
       offset="3.350694e-03"
       style="stop-color:#86D5CC"
       id="stop3757" /><stop
       offset="1"
       style="stop-color:#44938C"
       id="stop3759" /></radialGradient><g
     id="g3811"
     transform="translate(-29.305032,-26.585113)"><path
       style="fill:#ffffff"
       inkscape:connector-curvature="0"
       id="path3752"
       d="m 110.65503,45.457047 -13.699996,0 c -2.1,5.6 -4.1,11.3 -6.1,17 -1.9,5.5 -3.8,11.1 -5.8,16.6 -1.5,4.1 -3.2,8.1 -4.9,12.1 -1.2,2.7 -2.4,5.3 -3.7,7.9 -1.3,2.500003 -2.4,5.100003 -4.3,7.300003 -0.8,0.9 -1.7,1.8 -2.6,2.5 -1.9,1.5 -4.1,2.6 -6.4,3.3 -1.1,0.3 -2.2,0.5 -3.3,0.5 -0.9,0 -1.9,0.2 -2.2,1.2 -0.1,0.3 1,1.1 2,1.5 5.1,2.5 11.2,2.2 16.5,0 8.4,-3.5 11.3,-11 15.1,-19.700003 0.9,-2.3 19.399996,-50.2 19.399996,-50.2 z"
       class="st0" /><path
       style="fill:url(#SVGID_1_)"
       inkscape:connector-curvature="0"
       id="path3761"
       d="m 78.255034,84.057047 c 0.4,-0.1 0.7,-0.4 0.7,-0.8 0,-0.4 -0.3,-0.8 -0.6,-1.2 -1.5,-2 -2.6,-4.4 -3.2,-6.8 -0.6,-2 -0.7,-4 -0.9,-6.1 0,-0.2 -0.1,-0.4 -0.1,-0.6 -1,-6.3 -1.9,-12.8 -4.9,-18.5 -3.9,-7.1 -10.7,-11.3 -18.2,-13.5 -0.5,-0.2 -1.1,-0.3 -1.6,-0.5 -0.5,0 -1.1,-0.1 -1.4,0.4 -0.1,0.2 -0.1,0.5 -0.1,0.8 0.2,1.1 1.1,1.9 1.5,2.9 0.5,1.2 0.9,2.4 1.3,3.6 0.7,2.6 1.1,5.3 1.6,8 1.1,6.3 2.3,12.8 4.9,18.7 2.9,6.4 6.9,9.3 13.3,12 0.8,0.4 5.8,2.1 7.7,1.6 z"
       class="st1" /></g></svg>