<?xml version="1.0" encoding="utf-8"?>
<!-- Generator: Adobe Illustrator 23.1.0, SVG Export Plug-In . SVG Version: 6.00 Build 0)  -->
<svg version="1.1" id="info-24px" xmlns="http://www.w3.org/2000/svg" xmlns:xlink="http://www.w3.org/1999/xlink" x="0px" y="0px"
	 viewBox="0 0 24 24" style="enable-background:new 0 0 24 24;" xml:space="preserve">
<style type="text/css">
	.st0{fill:none;}
	.st1{fill:none;stroke:#FFFFFF;stroke-miterlimit:10;}
</style>
<path id="Path_1088" class="st0" d="M0,0h24v24H0V0z"/>
<g>
	<path class="st1" d="M17.3,18.3c-0.7,0-1.4-0.2-2-0.5v4.7l2-1.3l2,1.3v-4.8C18.7,18.1,18.1,18.3,17.3,18.3z"/>
	<circle class="st1" cx="17.3" cy="14.5" r="3.8"/>
</g>
<path class="st1" d="M19.4,3.7H4.5c-1.7,0-3,1.3-3,3V18c0,1.7,1.3,3,3,3h10.8v-3.2c0.6,0.3,1.2,0.5,2,0.5c0.7,0,1.4-0.2,2-0.6V21
	h0.1c1.7,0,3-1.3,3-3V6.7C22.4,5.1,21.1,3.7,19.4,3.7z"/>
<line class="st1" x1="18.5" y1="8.1" x2="4.2" y2="8.1"/>
<line class="st1" x1="11.9" y1="12.4" x2="4.2" y2="12.4"/>
<line class="st1" x1="11.9" y1="16.4" x2="4.2" y2="16.4"/>
</svg>
