<?xml version="1.0" encoding="utf-8"?>
<!-- Generator: Adobe Illustrator 23.1.0, SVG Export Plug-In . SVG Version: 6.00 Build 0)  -->
<svg version="1.1" id="Layer_1" xmlns="http://www.w3.org/2000/svg" xmlns:xlink="http://www.w3.org/1999/xlink" x="0px" y="0px"
	 viewBox="0 0 96 111.9" style="enable-background:new 0 0 96 111.9;" xml:space="preserve">
<style type="text/css">
	.st0{fill:#0C6953;}
</style>
<g>
	<path class="st0" d="M30.9,43.8c0.7,0.1,1.3,0.2,2,0.2l0,0c5,0,9.5-3.3,9.6-3.5c0.6-0.5,0.8-1.4,0.4-2.1c-0.1-0.3-3.7-6.2-9.5-7.4
		c-0.7-0.1-1.3-0.2-2-0.2c-5,0-9.5,3.3-9.6,3.5c-0.6,0.5-0.8,1.4-0.4,2.1C21.6,36.6,25.1,42.6,30.9,43.8z M31.5,34.1
		c0.5,0,1,0,1.4,0.1c3,0.6,5.3,3.1,6.5,4.6c-1.4,0.8-3.9,2-6.4,2c-0.5,0-1,0-1.4-0.1c-3-0.6-5.3-3.1-6.5-4.6
		C26.5,35.2,28.9,34.1,31.5,34.1z"/>
	<path class="st0" d="M72.5,36.4c-0.1-0.1-2.8-1.4-5.9-1.4c-1.3,0-2.5,0.2-3.6,0.7c-4.4,1.8-6.2,7.1-6.3,7.3c-0.3,0.8,0.1,1.6,0.8,2
		c0.1,0.1,2.8,1.4,5.9,1.4l0,0c1.3,0,2.5-0.2,3.6-0.7c4.4-1.8,6.2-7.1,6.3-7.3C73.5,37.5,73.2,36.7,72.5,36.4z M65.7,42.6
		C65,42.9,64.2,43,63.3,43c-1.1,0-2.2-0.2-3-0.5c0.7-1.3,2-3.2,3.9-4c0.7-0.3,1.5-0.4,2.4-0.4c1.1,0,2.2,0.2,3,0.5
		C68.8,40,67.6,41.9,65.7,42.6z"/>
	<path class="st0" d="M44.8,24.3c0.3,5.2,5.1,9,5.3,9.1c0.3,0.2,0.6,0.3,1,0.3s0.8-0.2,1.1-0.5c0.2-0.2,4.5-4.4,4.1-9.6
		c-0.3-5.2-5.1-9-5.3-9.1c-0.6-0.5-1.5-0.4-2.1,0.1C48.8,14.9,44.5,19.2,44.8,24.3z M50.2,18.2c1.2,1.2,2.8,3.4,3,5.8S52,28.6,51,30
		c-1.2-1.2-2.8-3.4-3-5.8C47.9,21.7,49.2,19.5,50.2,18.2z"/>
	<path class="st0" d="M38,47.6c-1.5,3.7,0.4,7.9,0.5,8.1c0.3,0.6,0.8,0.9,1.4,0.9c0.2,0,0.3,0,0.5-0.1s4.6-1.5,6.1-5.2
		S46,43.4,46,43.2c-0.3-0.7-1.2-1.1-1.9-0.8C43.9,42.5,39.5,44,38,47.6z M40.9,48.9c0.5-1.3,1.7-2.2,2.7-2.7c0.3,1.1,0.5,2.7-0.1,4
		c-0.5,1.3-1.7,2.2-2.7,2.8C40.6,51.7,40.4,50.2,40.9,48.9z"/>
	<path class="st0" d="M58.3,18.2c0.3,0,0.5-0.1,0.8-0.2c0.2-0.1,4.1-2.4,4.9-6.4c0.7-3.9-2.1-7.6-2.2-7.8c-0.5-0.6-1.4-0.8-2.1-0.4
		c-0.2,0.1-4.1,2.4-4.9,6.4c-0.7,3.9,2.1,7.6,2.2,7.8C57.3,18,57.8,18.2,58.3,18.2z M58,10.4c0.2-1.4,1.2-2.6,2-3.3
		c0.5,1,1,2.5,0.8,3.9c-0.3,1.4-1.3,2.5-2.1,3.3C58.2,13.2,57.7,11.8,58,10.4z"/>
	<path class="st0" d="M43.8,14.8c0.3,0.2,0.6,0.3,1,0.3s0.8-0.2,1.1-0.5c0.1-0.1,3.4-3.4,3.1-7.4c-0.3-4-4-6.8-4.1-7
		c-0.6-0.5-1.5-0.4-2.1,0.1c-0.1,0.1-3.4,3.4-3.1,7.4C40,11.8,43.7,14.7,43.8,14.8z M44.1,4c0.8,0.9,1.6,2.1,1.7,3.6
		c0.1,1.4-0.6,2.8-1.2,3.7c-0.8-0.9-1.6-2.1-1.7-3.6S43.5,4.9,44.1,4z"/>
	<path class="st0" d="M32.9,28.9L32.9,28.9c1.4,0,2.8-0.3,4-1c4.4-2.2,6.2-7.6,3.9-12c-1.5-3-4.6-4.9-8-4.9c-1.4,0-2.8,0.3-4,1
		c-4.4,2.2-6.2,7.6-3.9,12C26.5,27,29.5,28.9,32.9,28.9z M30.3,14.8c0.8-0.4,1.7-0.6,2.6-0.6c2.2,0,4.2,1.2,5.1,3.2
		c1.4,2.8,0.3,6.3-2.5,7.7c-0.8,0.4-1.7,0.6-2.6,0.6l0,0c-2.2,0-4.2-1.2-5.1-3.2C26.4,19.7,27.5,16.3,30.3,14.8z"/>
	<path class="st0" d="M58.7,23.3c-1.3,3.9,0.9,8.2,4.8,9.5c0.8,0.2,1.6,0.4,2.3,0.4l0,0c3.3,0,6.1-2.1,7.2-5.2
		c1.3-3.9-0.9-8.2-4.8-9.5c-0.8-0.2-1.6-0.4-2.3-0.4C62.6,18.1,59.8,20.2,58.7,23.3z M61.8,24.2c0.6-1.8,2.2-3,4.1-3
		c0.5,0,0.9,0.1,1.4,0.2c2.3,0.7,3.5,3.2,2.8,5.5c-0.6,1.8-2.2,3-4.1,3l0,0c-0.5,0-0.9-0.1-1.4-0.2C62.3,29,61,26.5,61.8,24.2z"/>
	<path class="st0" d="M95.3,53c-1.1-1.1-2.5-1.7-4.1-1.7c-1.5,0-2.9,0.5-3.9,1.5L72.6,66.6c-1-1.4-2.6-2.3-4.6-2.5
		c-0.8-0.1-7.3-0.6-14.8-1.3v-2.6l0,0V45.5c0-4.7,2.5-8.9,6.5-11.3c0.8-0.5,1-1.4,0.6-2.2c-0.5-0.8-1.4-1-2.2-0.6
		c-3.5,2.1-6,5.3-7.2,9c-3.1-7.7-8.2-12.6-8.5-12.9c-0.6-0.6-1.6-0.6-2.3,0.1c-0.6,0.6-0.6,1.6,0.1,2.3C40.2,30,50,39.5,50,52.2
		v10.3c-2.7-0.2-5.5-0.5-8.1-0.7L32.8,61c-2.3-0.2-4.6,0.4-6.5,1.7L16,69.6l-2-2.5c-0.5-0.7-1.5-0.8-2.2-0.3l-12,9.4
		c-0.7,0.5-0.8,1.5-0.3,2.2s1.5,0.8,2.2,0.3l10.7-8.3l16.5,21l0,0l0,0l2.7,3.4l-18.4,14.3c-0.7,0.5-0.8,1.5-0.3,2.2
		c0.3,0.4,0.8,0.6,1.3,0.6c0.3,0,0.7-0.1,1-0.3l19.6-15.3c0.3-0.3,0.6-0.6,0.6-1.1c0.1-0.4-0.1-0.8-0.3-1.2l-2.7-3.5l0.9-0.8
		c1.1-0.9,2.4-1.3,3.8-1.3c0.4,0,0.9,0,1.2,0.1L55,94.3c0.1,0,0.1,0,0.2,0.1c0.7,0.1,1.4,0.2,2.1,0.2c2.6,0,5.1-1.1,6.9-2.9
		l31.1-31.3C97.3,58.4,97.3,55,95.3,53z M93.1,58.2L62,89.5c-1.5,1.5-3.8,2.2-6,1.8l-16.8-5.8h-0.1c0,0,0,0-0.1,0
		c-0.6-0.1-1.3-0.2-2-0.2c-2.1,0-4.2,0.7-5.8,2L30.3,88L18,72.2l10.1-6.7c1.1-0.8,2.5-1.2,3.9-1.2c0.2,0,0.4,0,0.6,0l9.2,0.8
		c3,0.3,6.3,0.5,9.4,0.8c0,0.1,0.2,0.1,0.4,0.1c0.1,0,0.2,0,0.3,0c8,0.7,15,1.3,15.9,1.4c1.4,0.1,2.5,1,2.6,2.2l0,0l0,0
		c0,0.1,0,0.1,0,0.2c0,1.4-1.1,2.5-2.5,2.5H50.5c-0.9,0-1.6,0.7-1.6,1.6s0.7,1.6,1.6,1.6H68c3.1,0,5.6-2.4,5.7-5.5l15.9-14.9
		c0.5-0.4,1.1-0.7,1.7-0.7c0.7,0,1.3,0.3,1.8,0.8C93.8,56,93.8,57.4,93.1,58.2z"/>
</g>
</svg>
