<?xml version="1.0" encoding="utf-8"?>
<!-- Generator: Adobe Illustrator 23.1.0, SVG Export Plug-In . SVG Version: 6.00 Build 0)  -->
<svg version="1.1" id="Layer_1" xmlns="http://www.w3.org/2000/svg" xmlns:xlink="http://www.w3.org/1999/xlink" x="0px" y="0px"
	 viewBox="0 0 50 50" style="enable-background:new 0 0 50 50;" xml:space="preserve">
<g>
	<path d="M25,0C11.2,0,0,11.2,0,25s11.2,25,25,25s25-11.2,25-25S38.8,0,25,0z M25,47C12.8,47,3,37.2,3,25S12.8,3,25,3s22,9.8,22,22
		S37.2,47,25,47z"/>
	<path d="M25,18.4c-3.6,0-6.5,2.9-6.5,6.5c0,3.6,2.9,6.5,6.5,6.5s6.5-3,6.5-6.5S28.6,18.4,25,18.4z M25,29.1c-2.3,0-4.2-1.9-4.2-4.2
		c0-2.3,1.9-4.2,4.2-4.2s4.2,1.9,4.2,4.2C29.2,27.2,27.3,29.1,25,29.1z"/>
	<circle cx="31.8" cy="18.2" r="1.5"/>
	<path d="M30.2,12.3H19.7c-4.5,0-7.4,3-7.4,7.4v10.5c0,2.2,0.7,4.1,2.1,5.5c1.4,1.3,3.2,2,5.3,2h10.4c2.2,0,4-0.7,5.4-2
		s2.1-3.2,2.1-5.4V19.7c0.1-2.1-0.6-4-2-5.3C34.3,13,32.4,12.3,30.2,12.3z M35.4,30.3c0,1.6-0.6,2.9-1.5,3.7
		c-0.9,0.9-2.2,1.3-3.7,1.3H19.8c-1.5,0-2.8-0.5-3.7-1.3c-0.9-0.9-1.4-2.2-1.4-3.8V19.7c0-1.5,0.5-2.8,1.4-3.7
		c0.9-0.9,2.2-1.3,3.7-1.3h10.5c1.5,0,2.8,0.5,3.7,1.4c0.9,0.9,1.4,2.2,1.4,3.7V30.3z"/>
</g>
</svg>
