<?xml version="1.0" encoding="utf-8"?>
<!-- Generator: Adobe Illustrator 23.1.0, SVG Export Plug-In . SVG Version: 6.00 Build 0)  -->
<svg version="1.1" id="Layer_1" xmlns="http://www.w3.org/2000/svg" xmlns:xlink="http://www.w3.org/1999/xlink" x="0px" y="0px"
	 viewBox="0 0 113.3 103.4" style="enable-background:new 0 0 113.3 103.4;" xml:space="preserve">
<style type="text/css">
	.st0{fill:#0C6953;}
</style>
<g>
	<path class="st0" d="M32,31.3c-11.2,0-20.4,9.1-20.4,20.4c0,11.2,9.1,20.4,20.4,20.4c11.2,0,20.4-9.1,20.4-20.4
		C52.4,40.5,43.2,31.3,32,31.3z M32,68.8c-9.4,0-17.1-7.7-17.1-17.1S22.6,34.6,32,34.6s17.1,7.7,17.1,17.1S41.4,68.8,32,68.8z"/>
	<path class="st0" d="M92.9,62.7c-7.3,0-13.7,3.8-17.3,9.6L54.5,61.4l0,0l0,0l0,0h-0.1c-0.1,0-0.1-0.1-0.2-0.1h-0.1
		c-0.1,0-0.1,0-0.2,0c-0.1,0-0.1,0-0.2,0h-0.1c-0.1,0-0.2,0-0.3,0.1l0,0c-0.1,0-0.2,0.1-0.3,0.1l0,0c-0.1,0-0.2,0.1-0.3,0.2l0,0
		c-0.1,0.1-0.1,0.1-0.2,0.2l0,0c0,0-0.1,0.1-0.1,0.2l-0.1,0.1C48.4,69.8,40.6,74.5,32,74.5c-12.6,0-22.8-10.2-22.8-22.8
		S19.4,28.9,32,28.9c0.9,0,1.6-0.7,1.6-1.6s-0.7-1.6-1.6-1.6c-14.4,0-26.1,11.7-26.1,26.1S17.6,77.9,32,77.9
		c9.3,0,17.7-4.8,22.4-12.7l19.7,10.1c-1,2.4-1.6,5-1.6,7.8c0,11.2,9.1,20.4,20.4,20.4c11.2,0,20.4-9.1,20.4-20.4
		S104.2,62.7,92.9,62.7z M92.9,100.1c-9.4,0-17.1-7.7-17.1-17.1s7.7-17.1,17.1-17.1S110,73.6,110,83
		C110,92.5,102.4,100.1,92.9,100.1z"/>
	<path class="st0" d="M32,80.4c-15.8,0-28.7-12.9-28.7-28.7C3.3,35.9,16.2,23,32,23c10.8,0,20.6,6,25.5,15.6
		c0.1,0.1,0.1,0.2,0.2,0.3l0.1,0.1c0.1,0.1,0.2,0.1,0.2,0.2c0,0,0,0,0.1,0.1s0.2,0.1,0.4,0.2h0.1c0.1,0,0.2,0,0.3,0c0,0,0,0,0.1,0
		c0,0,0,0,0.1,0s0.2,0,0.2,0h0.1c0.1,0,0.2-0.1,0.3-0.1l0,0l0,0l0,0l0,0l15.9-8.2c3.6,5.8,10,9.6,17.3,9.6
		c11.2,0,20.4-9.1,20.4-20.4S104.2,0,92.9,0C81.7,0,72.6,9.1,72.6,20.4c0,2.8,0.6,5.4,1.6,7.8l-14.5,7.4C54,25.8,43.5,19.7,32,19.7
		c-17.7,0-32,14.4-32,32c0,17.7,14.4,32,32,32c0.9,0,1.6-0.7,1.6-1.6C33.7,81.2,32.9,80.4,32,80.4z M92.9,3.3
		c9.4,0,17.1,7.7,17.1,17.1s-7.7,17.1-17.1,17.1s-17.1-7.7-17.1-17.1C75.9,11,83.5,3.3,92.9,3.3z"/>
	<g>
		<path class="st0" d="M85.8,89.3l2-0.7v-3.7h-2v-3.4h2v-2.1c0-1.9,0.6-3.5,1.6-4.5c1.1-1.1,2.6-1.7,4.7-1.7c3,0,4.7,1.3,6,3
			L97,78.7c-1-1.1-1.8-1.7-2.9-1.7c-0.6,0-1.1,0.2-1.5,0.6s-0.7,1.1-0.7,2v2h6V85h-6v3.5h8V92H85.8V89.3z"/>
	</g>
	<g>
		<path class="st0" d="M85.8,27.3l2-0.7v-3.7h-2v-3.4h2v-2.1c0-1.9,0.6-3.5,1.6-4.5c1.1-1.1,2.6-1.7,4.7-1.7c3,0,4.7,1.3,6,3
			L97,16.7c-1-1.1-1.8-1.7-2.9-1.7c-0.6,0-1.1,0.2-1.5,0.6s-0.7,1.1-0.7,2v2h6V23h-6v3.5h8V30H85.8V27.3z"/>
	</g>
	<g>
		<path class="st0" d="M24.5,56.9l2-0.7v-3.7h-2v-3.4h2V47c0-1.9,0.6-3.5,1.6-4.5c1.1-1.1,2.6-1.7,4.7-1.7c3,0,4.7,1.3,6,3l-3.1,2.5
			c-0.9-1.2-1.7-1.7-2.8-1.7c-0.6,0-1.1,0.2-1.5,0.6c-0.4,0.4-0.7,1.1-0.7,2v2h6v3.4h-6v3.5h8v3.5H24.5V56.9z"/>
	</g>
</g>
</svg>
