<svg xmlns="http://www.w3.org/2000/svg" id="lock-24px" width="17.953" height="17.953" viewBox="0 0 17.953 17.953">
    <defs>
        <style>
            .cls-1{fill:none}
        </style>
    </defs>
    <path id="Path_1090" d="M0 0h17.953v17.953H0z" class="cls-1" data-name="Path 1090"/>
    <path id="Path_1091" d="M14.473 6.236h-.748V4.74a3.74 3.74 0 0 0-7.48 0v1.5H5.5A1.5 1.5 0 0 0 4 7.732v7.48a1.5 1.5 0 0 0 1.5 1.5h8.977a1.5 1.5 0 0 0 1.5-1.5v-7.48a1.5 1.5 0 0 0-1.504-1.496zm-4.489 6.733a1.5 1.5 0 1 1 1.5-1.5 1.5 1.5 0 0 1-1.5 1.5zM12.3 6.236H7.665V4.74a2.319 2.319 0 0 1 4.638 0z" data-name="Path 1091" transform="translate(-1.008 -.252)"/>
</svg>
