<svg xmlns="http://www.w3.org/2000/svg" id="lock-24px" width="24" height="24" viewBox="0 0 24 24">
    <defs>
        <style>
            .cls-1{fill:none}.cls-2{fill:#0C6953}
        </style>
    </defs>
    <path id="Path_1090" d="M0 0h24v24H0z" class="cls-1" data-name="Path 1090"/>
    <path id="Path_1091" d="M18 8h-1V6A5 5 0 0 0 7 6v2H6a2.006 2.006 0 0 0-2 2v10a2.006 2.006 0 0 0 2 2h12a2.006 2.006 0 0 0 2-2V10a2.006 2.006 0 0 0-2-2zm-6 9a2 2 0 1 1 2-2 2.006 2.006 0 0 1-2 2zm3.1-9H8.9V6a3.1 3.1 0 0 1 6.2 0z" class="cls-2" data-name="Path 1091"/>
</svg>
