<?xml version="1.0" encoding="utf-8"?>
<!-- Generator: Adobe Illustrator 23.1.0, SVG Export Plug-In . SVG Version: 6.00 Build 0)  -->
<svg version="1.1" id="Layer_1" xmlns="http://www.w3.org/2000/svg" xmlns:xlink="http://www.w3.org/1999/xlink" x="0px" y="0px"
	 viewBox="0 0 48 48" style="enable-background:new 0 0 48 48;" xml:space="preserve">
<style type="text/css">
	.st0{fill:#0C6953;}
	.st1{fill:#B3E67D;}
	.st2{fill:#B3E67D;}
	.st3{fill:none;stroke:#231F20;stroke-linecap:round;stroke-linejoin:round;stroke-miterlimit:10;}
	.st4{opacity:0.6;fill:#FFFFFF;}
	.st5{fill:#FFFFFF;}
	.st6{fill:none;stroke:#FFFFFF;stroke-linecap:round;stroke-miterlimit:10;}
	.st7{fill:none;stroke:#FFFFFF;stroke-miterlimit:10;}
	.st8{fill:none;stroke:#FFFFFF;stroke-width:2.5449;stroke-linecap:round;stroke-linejoin:round;stroke-miterlimit:10;}
	.st9{opacity:0.87;fill:#231F20;}
	.st10{fill:#0C6953;}
</style>
<path class="st0" d="M-161.3-138.9c0,0,17.9,6.3,25-7.7c7.2-13.9,8.2-34.7,8.2-34.7s-25,1.4-36.4,9.1c-11.4,7.7-7.9,25.8-2.9,29
	c0,0,9.2-16.9,20.6-20.8C-146.9-164.1-159.4-153.1-161.3-138.9z"/>
<path class="st0" d="M21.5,110.6c0,0,17.9,6.3,25-7.7s8.2-34.7,8.2-34.7s-25,1.4-36.4,9.1s-7.9,25.8-2.9,29c0,0,9.2-16.9,20.6-20.8
	C36,85.5,23.5,96.4,21.5,110.6z"/>
<g>
	<g>
		<path class="st0" d="M-53.9-168.5c0,0-0.4-12.9-14-12.9s-14.3,16.2-10.7,19.2v18.8h-3.9c-0.4,0-0.7,0.3-0.7,0.7v4.7
			c0,0.4,0.3,0.7,0.7,0.7h26.4c0.3,0,0.5-0.2,0.6-0.4l1.9-4.8c0.2-0.4-0.1-0.9-0.6-0.9h-17.3v-18.6c0,0-4.5-5.9-1.3-10.7
			c4-5.8,12.8-2,12.4,4.1L-53.9-168.5z"/>
		<path class="st1" d="M-85.5-162.1l-1.7,4.2c-0.2,0.4,0.2,0.9,0.6,0.9h25.1l1.7-4.1c0.2-0.5-0.2-1.1-0.7-1.1H-85.5z"/>
	</g>
	<g>
		<path class="st0" d="M-20-168.5c0,0-0.4-12.9-14-12.9s-14.3,16.2-10.7,19.2v18.8h-3.9c-0.4,0-0.7,0.3-0.7,0.7v4.7
			c0,0.4,0.3,0.7,0.7,0.7h26.4c0.3,0,0.5-0.2,0.6-0.4l1.9-4.8c0.2-0.4-0.1-0.9-0.6-0.9h-17.3v-18.6c0,0-4.5-5.9-1.3-10.7
			c4-5.8,12.8-2,12.4,4.1L-20-168.5z"/>
		<path class="st1" d="M-51.6-162.1l-1.7,4.2c-0.2,0.4,0.2,0.9,0.6,0.9h25.1l1.7-4.1c0.2-0.5-0.2-1.1-0.7-1.1H-51.6z"/>
	</g>
	<g>
		<path class="st0" d="M14-168.5c0,0-0.4-12.9-14-12.9s-14.3,16.2-10.7,19.2v18.8h-3.9c-0.4,0-0.7,0.3-0.7,0.7v4.7
			c0,0.4,0.3,0.7,0.7,0.7h26.4c0.3,0,0.5-0.2,0.6-0.4l1.9-4.8c0.2-0.4-0.1-0.9-0.6-0.9H-3.8v-18.6c0,0-4.5-5.9-1.3-10.7
			c4-5.8,12.8-2,12.4,4.1L14-168.5z"/>
		<path class="st1" d="M-17.6-162.1l-1.7,4.2c-0.2,0.4,0.2,0.9,0.6,0.9H6.5l1.7-4.1c0.2-0.5-0.2-1.1-0.7-1.1H-17.6z"/>
	</g>
</g>
<path id="Path_163_1_" class="st0" d="M75-182.6l-19,8.4v12.7c0,11.7,8.1,22.6,19,25.3c10.9-2.7,19-13.6,19-25.3v-12.7L75-182.6z
	 M75-159.4h14.8c-1.1,8.7-6.9,16.4-14.8,18.9L75-159.4l-14.8,0v-12L75-178L75-159.4z"/>
<g>
	<circle class="st2" cx="173.3" cy="-158" r="9"/>
	<path class="st0" d="M179.8-154.4H174c-1.7-6-7.2-10.4-13.7-10.4c-7.9,0-14.2,6.4-14.2,14.2c0,7.2,5.3,13.1,12.3,14.1v0.1h21.4
		c5,0,9-4,9-9C188.8-150.4,184.7-154.4,179.8-154.4z"/>
	<path class="st2" d="M172.4-172.3L172.4-172.3c-1.8,0-3.2-1.4-3.2-3.2v-3.7c0-1.8,1.4-3.2,3.2-3.2h0c1.8,0,3.2,1.4,3.2,3.2v3.7
		C175.6-173.7,174.1-172.3,172.4-172.3z"/>
	<path class="st2" d="M162.6-167.7L162.6-167.7c-1.2,1.2-3.3,1.2-4.5,0l-2.6-2.6c-1.2-1.2-1.2-3.3,0-4.5l0,0c1.2-1.2,3.3-1.2,4.5,0
		l2.6,2.6C163.8-170.9,163.8-168.9,162.6-167.7z"/>
	<path class="st2" d="M181.5-168.1L181.5-168.1c-1.1-1.4-0.9-3.4,0.5-4.5l2.9-2.3c1.4-1.1,3.4-0.9,4.5,0.5l0,0
		c1.1,1.4,0.9,3.4-0.5,4.5l-2.9,2.3C184.6-166.5,182.6-166.7,181.5-168.1z"/>
	<path class="st2" d="M187.2-158L187.2-158c0-1.8,1.4-3.2,3.2-3.2h3.7c1.8,0,3.2,1.4,3.2,3.2v0c0,1.8-1.4,3.2-3.2,3.2h-3.7
		C188.7-154.8,187.2-156.3,187.2-158z"/>
</g>
<polyline class="st3" points="-147.1,-68.7 -153.3,-62.5 -146.9,-56.1 "/>
<path class="st4" d="M-54.5-78.6c0-0.4,0-0.9-0.5-1.3c-1-0.8-2.8-1.3-2.8-1.3s-0.3,2.1,0.1,3.2c0.4,1.1,2,1.1,2.4,0.8
	C-55-77.5-54.6-77.7-54.5-78.6z"/>
<g>
	<path class="st5" d="M-52.2-71.3c1.3,0.2,2.8,0.1,4.1-1.3c2.8-3,4.6-8.3,4.6-8.3s-6.5-1.4-9.9-0.3c-3.5,1.1-3.6,5.9-2.8,7.2
		C-55.6-72.9-54.9-71.7-52.2-71.3z"/>
	<path class="st4" d="M-68.8-63.1c0.4,0,0.8,0.1,1.2,0.3c0.3,0.1,0.6,0,0.8-0.2c1-1.5,3-1.8,4.5-0.9c0.2,0.1,0.4,0.1,0.6,0.1
		s0.3-0.2,0.4-0.4c0.2-0.5,0.7-0.8,1.2-0.9c0,0,0,0,0.1,0c0,0,0,0,0,0c0.7,0,1.3,0.6,1.3,1.3c0,0,0,0.1,0,0.1c0,0.2,0.1,0.4,0.2,0.5
		s0.4,0.2,0.6,0.2c0.3-0.1,0.6-0.1,0.9-0.1c1.6,0,3.2,0.9,3.9,2.4c0.1,0.3,0.4,0.4,0.7,0.4c0.6-0.1,1.2,0,1.7,0.4
		c0.5,0.4,0.8,0.9,0.8,1.5c0,0,0,0,0,0.1c0,0.3,0.2,0.6,0.6,0.7c0.6,0.1,1.2,0.5,1.4,1.1l-8.3,2.8c-0.2,0.1-0.4,0.1-0.6,0.1h-0.4
		c0.3-0.9,0.1-1.7-0.4-2.5l-0.2-0.1c-0.7-1.2-1.8-2.1-3.2-2.2h-3.5c-1.2,0-2.5-0.4-3.4-1.2c-1-0.8-2.7-0.4-3.4-1.4
		C-72.2-62-70.1-63.1-68.8-63.1z"/>
	<path class="st5" d="M-74.6-45.3c0,1.2-1,2.1-2.1,2.1h-1.7c-1.2,0-2.1-1-2.1-2.1v-15.3c0-1.2,1-2.1,2.1-2.1h1.7
		c1.2,0,2.1,1,2.1,2.1V-45.3z"/>
	<path class="st6" d="M-52.5-76c0,0-6.9,2.4-8.2,11.8"/>
	<g>
		<g>
			<path class="st5" d="M-57-59.6C-57-59.6-57-59.6-57-59.6C-57-59.6-57-59.6-57-59.6c0.1,0,0.1,0,0.2,0c0.1,0,0.3,0.1,0.4,0.2
				c0.3,0.3,0.7,0.6,1.1,0.7c0.4,0.1,0.7,0.2,1,0.4c0.3,0.2,0.6,0.5,0.8,0.8c0.2,0.2,0.4,0.3,0.7,0.2c0.2-0.1,0.3-0.5,0.2-0.7
				c-0.3-0.4-0.7-0.8-1.1-1.1c-0.2-0.1-0.4-0.3-0.6-0.4c-0.2-0.1-0.5-0.1-0.7-0.2c-0.4-0.1-0.7-0.5-1.1-0.7
				c-0.5-0.3-1.1-0.3-1.5,0.1c-0.2,0.2-0.2,0.5,0,0.7C-57.5-59.4-57.2-59.4-57-59.6L-57-59.6z"/>
		</g>
	</g>
	<g>
		<g>
			<path class="st5" d="M-65.1-61c0.3-0.2,0.7-0.4,1.1-0.5c0.1,0,0.3,0,0.4,0c0.2,0.1,0.4,0.2,0.6,0.2c0.2,0,0.4-0.1,0.6-0.2
				c0,0,0.1,0,0.1-0.1c0,0,0.1-0.1,0,0c0.1-0.1,0,0,0,0c0,0.1,0.3,0.3,0.4,0.4c0.2,0.1,0.4,0.2,0.7,0.2c0.6,0,0.6-1,0-1
				c-0.1,0-0.2-0.1-0.3-0.2c-0.2-0.2-0.4-0.3-0.6-0.4c-0.2,0-0.4,0-0.6,0.1c-0.1,0-0.1,0.1-0.2,0.1c0.1,0-0.1,0,0,0
				c0.1,0,0.2,0.1,0.1,0c-0.9-0.6-1.9-0.1-2.7,0.3C-66.2-61.5-65.7-60.7-65.1-61L-65.1-61z"/>
		</g>
	</g>
	<path class="st5" d="M-40.7-56.6c-0.5-1.2-1.9-1.7-3.1-1.3l-2.9,1l-1.3,0.4l-8.3,2.8c-0.2,0.1-0.4,0.1-0.6,0.1h-0.4
		c0.3-0.9,0.2-1.9-0.3-2.7l-0.1-0.1c0,0-0.6-0.9-1.6-1.5c-0.8-0.5-1.9-0.5-1.9-0.5h-3.5c-1.2,0-2.5-0.4-3.4-1.2
		c-1-0.8-2.1-1.3-3.4-1.4l-1.1,0l-0.4,0c-0.3,0.1-0.8,0-1,0v16.2h16.8c1,0,2-0.3,2.8-0.8l12.6-7.7C-40.6-54-40.2-55.4-40.7-56.6z"/>
</g>
<g>
	<path class="st5" d="M13.7-44.1H11c-0.6,0-1.2-0.5-1.2-1.2V-58c0-0.6,0.5-1.2,1.2-1.2h2.7c0.6,0,1.2,0.5,1.2,1.2v12.7
		C14.8-44.6,14.3-44.1,13.7-44.1z"/>
	<path class="st5" d="M22-44.1h-2.4c-0.7,0-1.3-0.6-1.3-1.3v-16.8c0-0.7,0.6-1.3,1.3-1.3H22c0.7,0,1.3,0.6,1.3,1.3v16.8
		C23.3-44.7,22.7-44.1,22-44.1z"/>
	<path class="st5" d="M31-44.1h-2.2c-0.8,0-1.4-0.6-1.4-1.4v-19.8c0-0.8,0.6-1.4,1.4-1.4H31c0.8,0,1.4,0.6,1.4,1.4v19.8
		C32.4-44.7,31.8-44.1,31-44.1z"/>
	<path class="st5" d="M40.1-44.1h-2c-0.8,0-1.5-0.7-1.5-1.5v-23.1c0-0.8,0.7-1.5,1.5-1.5h2c0.8,0,1.5,0.7,1.5,1.5v23.1
		C41.6-44.8,40.9-44.1,40.1-44.1z"/>
	<g>
		<g>
			<path class="st7" d="M9.7-66.4c0,0,16.5-4.9,25.6-13.5"/>
			<g>
				<polygon class="st5" points="35.5,-74.7 34.5,-74.8 35,-79.7 30,-79.8 30.1,-80.8 36.1,-80.7 				"/>
			</g>
		</g>
	</g>
</g>
<g>
	<path class="st4" d="M103.2-58.7v7.3c0,0.5-0.4,0.9-0.9,0.9h-7.2c-0.5,0-0.9-0.4-0.9-0.9v-7.3c0-0.5,0.4-0.9,0.9-0.9h7.2
		C102.8-59.6,103.2-59.2,103.2-58.7z"/>
	<path class="st5" d="M120.8-54.5v10.4c0,0.7-0.6,1.3-1.3,1.3h-10.3c-0.7,0-1.3-0.6-1.3-1.3v-10.4c0-0.7,0.6-1.3,1.3-1.3h10.3
		C120.2-55.8,120.8-55.2,120.8-54.5z"/>
	<path class="st4" d="M129.1-63.9v5.5c0,0.4-0.3,0.7-0.7,0.7H123c-0.4,0-0.7-0.3-0.7-0.7v-5.5c0-0.4,0.3-0.7,0.7-0.7h5.4
		C128.8-64.5,129.1-64.2,129.1-63.9z"/>
	<line class="st8" x1="112.6" y1="-82.9" x2="112.6" y2="-64.8"/>
	<polyline class="st8" points="122.4,-82.9 122.4,-72.2 125.8,-75 	"/>
	<polyline class="st8" points="102.1,-82.9 102.1,-72.2 98.7,-75 	"/>
	<polyline class="st8" points="107.8,-68.2 112.4,-64.4 117.1,-68.2 	"/>
</g>
<polygon class="st9" points="262.1,-71.7 270.1,-71.7 266.1,-65.4 "/>
<polygon class="st5" points="245.1,-71.7 253.1,-71.7 249.1,-65.4 "/>
<path class="st10" d="M349.4-76.5h-11.8v8.9c0,1.6,1.3,3,3,3h20.7c1.6,0,3-1.3,3-3v-8.9h-11.8v3h-3V-76.5z M349.4-78h-13.3v-8.9
	c0-1.6,1.3-3,3-3h5.9v-1.5c0-1.6,1.3-3,3-3h5.9c1.6,0,3,1.3,3,3v1.5h5.9c1.6,0,3,1.3,3,3v8.9h-13.3v-3h-3V-78z M353.8-89.8v-1.5
	h-5.9v1.5H353.8z"/>
<rect x="23" y="4" transform="matrix(-1.836970e-16 1 -1 -1.836970e-16 48 9.130474e-13)" class="st0" width="2" height="40"/>
<rect x="-61.5" y="4" class="st0" width="2" height="40"/>
<rect x="-61.5" y="4" transform="matrix(-1.836970e-16 1 -1 -1.836970e-16 -36.5053 84.5053)" class="st0" width="2" height="40"/>
</svg>
