<svg id="Layer_1" data-name="Layer 1" xmlns="http://www.w3.org/2000/svg" viewBox="0 0 105.39 48"><defs><style>.cls-1{fill:#0C6953;}.cls-2{fill:#B3E67D;}</style></defs><title>multiple</title><path class="cls-1" d="M35.3,14.91S34.92,2,21.26,2,6.92,18.17,10.56,21.18V40H6.62a.67.67,0,0,0-.66.66v4.71a.66.66,0,0,0,.66.65H33a.66.66,0,0,0,.61-.42l1.87-4.83a.65.65,0,0,0-.61-.89H17.5V21.3S13,15.41,16.24,10.65c4-5.78,12.79-2,12.41,4.14Z"/><path class="cls-2" d="M3.71,21.3,2.06,25.54a.66.66,0,0,0,.62.9h25.1l1.68-4.06a.78.78,0,0,0-.72-1.08Z"/><path class="cls-1" d="M69.24,14.91S68.86,2,55.2,2,40.86,18.17,44.5,21.18V40H40.56a.66.66,0,0,0-.65.66v4.71a.65.65,0,0,0,.65.65H66.91a.66.66,0,0,0,.61-.42l1.88-4.83a.66.66,0,0,0-.61-.89H51.44V21.3s-4.51-5.89-1.25-10.65c4-5.78,12.78-2,12.41,4.14Z"/><path class="cls-2" d="M37.65,21.3,36,25.54a.66.66,0,0,0,.62.9h25.1l1.68-4.06a.78.78,0,0,0-.72-1.08Z"/><path class="cls-1" d="M103.18,14.91S102.81,2,89.14,2,74.81,18.17,78.44,21.18V40H74.5a.66.66,0,0,0-.65.66v4.71a.65.65,0,0,0,.65.65h26.35a.65.65,0,0,0,.61-.42l1.88-4.83a.66.66,0,0,0-.61-.89H85.38V21.3s-4.51-5.89-1.25-10.65c4-5.78,12.78-2,12.41,4.14Z"/><path class="cls-2" d="M71.59,21.3l-1.65,4.24a.66.66,0,0,0,.62.9h25.1l1.69-4.06a.79.79,0,0,0-.72-1.08Z"/></svg>