<?xml version="1.0" encoding="utf-8"?>
<!-- Generator: Adobe Illustrator 23.1.0, SVG Export Plug-In . SVG Version: 6.00 Build 0)  -->
<svg version="1.1" id="Layer_1" xmlns="http://www.w3.org/2000/svg" xmlns:xlink="http://www.w3.org/1999/xlink" x="0px" y="0px"
	 viewBox="0 0 48 48" style="enable-background:new 0 0 48 48;" xml:space="preserve">
<style type="text/css">
	.st0{fill:#0C6953;}
	.st1{fill:#B3E67D;}
	.st2{fill:#B3E67D;}
	.st3{fill:none;stroke:#231F20;stroke-linecap:round;stroke-linejoin:round;stroke-miterlimit:10;}
	.st4{opacity:0.6;fill:#FFFFFF;}
	.st5{fill:#FFFFFF;}
	.st6{fill:none;stroke:#FFFFFF;stroke-linecap:round;stroke-miterlimit:10;}
	.st7{fill:none;stroke:#FFFFFF;stroke-miterlimit:10;}
	.st8{fill:none;stroke:#FFFFFF;stroke-width:2.5449;stroke-linecap:round;stroke-linejoin:round;stroke-miterlimit:10;}
	.st9{opacity:0.87;fill:#231F20;}
	.st10{fill:#0C6953;}
</style>
<path class="st0" d="M-76.8-138.9c0,0,17.9,6.3,25-7.7c7.2-13.9,8.2-34.7,8.2-34.7s-25,1.4-36.4,9.1s-7.9,25.8-2.9,29
	c0,0,9.2-16.9,20.6-20.8C-62.4-164.1-74.9-153.1-76.8-138.9z"/>
<path class="st0" d="M106.1,110.6c0,0,17.9,6.3,25-7.7c7.2-13.9,8.2-34.7,8.2-34.7s-25,1.4-36.4,9.1s-7.9,25.8-2.9,29
	c0,0,9.2-16.9,20.6-20.8C120.5,85.5,108,96.4,106.1,110.6z"/>
<g>
	<g>
		<path class="st0" d="M30.6-168.5c0,0-0.4-12.9-14-12.9S2.2-165.2,5.9-162.2v18.8H1.9c-0.4,0-0.7,0.3-0.7,0.7v4.7
			c0,0.4,0.3,0.7,0.7,0.7h26.4c0.3,0,0.5-0.2,0.6-0.4l1.9-4.8c0.2-0.4-0.1-0.9-0.6-0.9H12.8v-18.6c0,0-4.5-5.9-1.3-10.7
			c4-5.8,12.8-2,12.4,4.1L30.6-168.5z"/>
		<path class="st1" d="M-1-162.1l-1.7,4.2c-0.2,0.4,0.2,0.9,0.6,0.9h25.1l1.7-4.1c0.2-0.5-0.2-1.1-0.7-1.1H-1z"/>
	</g>
	<g>
		<path class="st0" d="M64.5-168.5c0,0-0.4-12.9-14-12.9s-14.3,16.2-10.7,19.2v18.8h-3.9c-0.4,0-0.7,0.3-0.7,0.7v4.7
			c0,0.4,0.3,0.7,0.7,0.7h26.4c0.3,0,0.5-0.2,0.6-0.4l1.9-4.8c0.2-0.4-0.1-0.9-0.6-0.9H46.7v-18.6c0,0-4.5-5.9-1.3-10.7
			c4-5.8,12.8-2,12.4,4.1L64.5-168.5z"/>
		<path class="st1" d="M33-162.1l-1.7,4.2c-0.2,0.4,0.2,0.9,0.6,0.9H57l1.7-4.1c0.2-0.5-0.2-1.1-0.7-1.1H33z"/>
	</g>
	<g>
		<path class="st0" d="M98.5-168.5c0,0-0.4-12.9-14-12.9s-14.3,16.2-10.7,19.2v18.8h-3.9c-0.4,0-0.7,0.3-0.7,0.7v4.7
			c0,0.4,0.3,0.7,0.7,0.7h26.4c0.3,0,0.5-0.2,0.6-0.4l1.9-4.8c0.2-0.4-0.1-0.9-0.6-0.9H80.7v-18.6c0,0-4.5-5.9-1.3-10.7
			c4-5.8,12.8-2,12.4,4.1L98.5-168.5z"/>
		<path class="st1" d="M66.9-162.1l-1.7,4.2c-0.2,0.4,0.2,0.9,0.6,0.9H91l1.7-4.1c0.2-0.5-0.2-1.1-0.7-1.1H66.9z"/>
	</g>
</g>
<path id="Path_163_1_" class="st0" d="M159.5-182.6l-19,8.4v12.7c0,11.7,8.1,22.6,19,25.3c10.9-2.7,19-13.6,19-25.3v-12.7
	L159.5-182.6z M159.5-159.4h14.8c-1.1,8.7-6.9,16.4-14.8,18.9L159.5-159.4l-14.8,0v-12l14.8-6.6V-159.4z"/>
<g>
	<circle class="st2" cx="257.8" cy="-158" r="9"/>
	<path class="st0" d="M264.3-154.4h-5.8c-1.7-6-7.2-10.4-13.7-10.4c-7.9,0-14.2,6.4-14.2,14.2c0,7.2,5.3,13.1,12.3,14.1v0.1h21.4
		c5,0,9-4,9-9C273.3-150.4,269.2-154.4,264.3-154.4z"/>
	<path class="st2" d="M256.9-172.3L256.9-172.3c-1.8,0-3.2-1.4-3.2-3.2v-3.7c0-1.8,1.4-3.2,3.2-3.2l0,0c1.8,0,3.2,1.4,3.2,3.2v3.7
		C260.1-173.7,258.6-172.3,256.9-172.3z"/>
	<path class="st2" d="M247.1-167.7L247.1-167.7c-1.2,1.2-3.3,1.2-4.5,0l-2.6-2.6c-1.2-1.2-1.2-3.3,0-4.5l0,0c1.2-1.2,3.3-1.2,4.5,0
		l2.6,2.6C248.3-170.9,248.3-168.9,247.1-167.7z"/>
	<path class="st2" d="M266-168.1L266-168.1c-1.1-1.4-0.9-3.4,0.5-4.5l2.9-2.3c1.4-1.1,3.4-0.9,4.5,0.5h0c1.1,1.4,0.9,3.4-0.5,4.5
		l-2.9,2.3C269.1-166.5,267.1-166.7,266-168.1z"/>
	<path class="st2" d="M271.7-158L271.7-158c0-1.8,1.4-3.2,3.2-3.2h3.7c1.8,0,3.2,1.4,3.2,3.2v0c0,1.8-1.4,3.2-3.2,3.2h-3.7
		C273.2-154.8,271.7-156.3,271.7-158z"/>
</g>
<polyline class="st3" points="-62.6,-68.7 -68.8,-62.5 -62.4,-56.1 "/>
<path class="st4" d="M30-78.6c0-0.4,0-0.9-0.5-1.3c-1-0.8-2.8-1.3-2.8-1.3s-0.3,2.1,0.1,3.2c0.4,1.1,2,1.1,2.4,0.8
	C29.6-77.5,29.9-77.7,30-78.6z"/>
<g>
	<path class="st5" d="M32.4-71.3c1.3,0.2,2.8,0.1,4.1-1.3c2.8-3,4.6-8.3,4.6-8.3s-6.5-1.4-9.9-0.3c-3.5,1.1-3.6,5.9-2.8,7.2
		C28.9-72.9,29.6-71.7,32.4-71.3z"/>
	<path class="st4" d="M15.7-63.1c0.4,0,0.8,0.1,1.2,0.3c0.3,0.1,0.6,0,0.8-0.2c1-1.5,3-1.8,4.5-0.9c0.2,0.1,0.4,0.1,0.6,0.1
		s0.3-0.2,0.4-0.4c0.2-0.5,0.7-0.8,1.2-0.9c0,0,0,0,0.1,0c0,0,0,0,0,0c0.7,0,1.3,0.6,1.3,1.3c0,0,0,0.1,0,0.1c0,0.2,0.1,0.4,0.2,0.5
		c0.2,0.1,0.4,0.2,0.6,0.2c0.3-0.1,0.6-0.1,0.9-0.1c1.6,0,3.2,0.9,3.9,2.4c0.1,0.3,0.4,0.4,0.7,0.4c0.6-0.1,1.2,0,1.7,0.4
		c0.5,0.4,0.8,0.9,0.8,1.5c0,0,0,0,0,0.1c0,0.3,0.2,0.6,0.6,0.7c0.6,0.1,1.2,0.5,1.4,1.1l-8.3,2.8c-0.2,0.1-0.4,0.1-0.6,0.1h-0.4
		c0.3-0.9,0.1-1.7-0.4-2.5l-0.2-0.1c-0.7-1.2-1.8-2.1-3.2-2.2h-3.5c-1.2,0-2.5-0.4-3.4-1.2c-1-0.8-2.7-0.4-3.4-1.4
		C12.3-62,14.4-63.1,15.7-63.1z"/>
	<path class="st5" d="M10-45.3c0,1.2-1,2.1-2.1,2.1H6.1c-1.2,0-2.1-1-2.1-2.1v-15.3c0-1.2,1-2.1,2.1-2.1h1.7c1.2,0,2.1,1,2.1,2.1
		V-45.3z"/>
	<path class="st6" d="M32-76c0,0-6.9,2.4-8.2,11.8"/>
	<g>
		<g>
			<path class="st5" d="M27.5-59.6C27.5-59.6,27.5-59.6,27.5-59.6C27.5-59.6,27.5-59.6,27.5-59.6c0.1,0,0.1,0,0.2,0
				c0.1,0,0.3,0.1,0.4,0.2c0.3,0.3,0.7,0.6,1.1,0.7c0.4,0.1,0.7,0.2,1,0.4c0.3,0.2,0.6,0.5,0.8,0.8c0.2,0.2,0.4,0.3,0.7,0.2
				c0.2-0.1,0.3-0.5,0.2-0.7c-0.3-0.4-0.7-0.8-1.1-1.1c-0.2-0.1-0.4-0.3-0.6-0.4c-0.2-0.1-0.5-0.1-0.7-0.2c-0.4-0.1-0.7-0.5-1.1-0.7
				c-0.5-0.3-1.1-0.3-1.5,0.1c-0.2,0.2-0.2,0.5,0,0.7C27-59.4,27.3-59.4,27.5-59.6L27.5-59.6z"/>
		</g>
	</g>
	<g>
		<g>
			<path class="st5" d="M19.4-61c0.3-0.2,0.7-0.4,1.1-0.5c0.1,0,0.3,0,0.4,0c0.2,0.1,0.4,0.2,0.6,0.2c0.2,0,0.4-0.1,0.6-0.2
				c0,0,0.1,0,0.1-0.1c0,0,0.1-0.1,0,0c0.1-0.1,0,0,0,0c0,0.1,0.3,0.3,0.4,0.4c0.2,0.1,0.4,0.2,0.7,0.2c0.6,0,0.6-1,0-1
				c-0.1,0-0.2-0.1-0.3-0.2c-0.2-0.2-0.4-0.3-0.6-0.4c-0.2,0-0.4,0-0.6,0.1c-0.1,0-0.1,0.1-0.2,0.1c0.1,0-0.1,0,0,0
				c0.1,0,0.2,0.1,0.1,0c-0.9-0.6-1.9-0.1-2.7,0.3C18.3-61.5,18.8-60.7,19.4-61L19.4-61z"/>
		</g>
	</g>
	<path class="st5" d="M43.8-56.6c-0.5-1.2-1.9-1.7-3.1-1.3l-2.9,1l-1.3,0.4l-8.3,2.8c-0.2,0.1-0.4,0.1-0.6,0.1h-0.4
		c0.3-0.9,0.2-1.9-0.3-2.7l-0.1-0.1c0,0-0.6-0.9-1.6-1.5c-0.8-0.5-1.9-0.5-1.9-0.5h-3.5c-1.2,0-2.5-0.4-3.4-1.2
		c-1-0.8-2.1-1.3-3.4-1.4L12-61l-0.4,0c-0.3,0.1-0.8,0-1,0v16.2h16.8c1,0,2-0.3,2.8-0.8l12.6-7.7C43.9-54,44.3-55.4,43.8-56.6z"/>
</g>
<g>
	<path class="st5" d="M98.2-44.1h-2.7c-0.6,0-1.2-0.5-1.2-1.2V-58c0-0.6,0.5-1.2,1.2-1.2h2.7c0.6,0,1.2,0.5,1.2,1.2v12.7
		C99.3-44.6,98.8-44.1,98.2-44.1z"/>
	<path class="st5" d="M106.5-44.1h-2.4c-0.7,0-1.3-0.6-1.3-1.3v-16.8c0-0.7,0.6-1.3,1.3-1.3h2.4c0.7,0,1.3,0.6,1.3,1.3v16.8
		C107.8-44.7,107.2-44.1,106.5-44.1z"/>
	<path class="st5" d="M115.5-44.1h-2.2c-0.8,0-1.4-0.6-1.4-1.4v-19.8c0-0.8,0.6-1.4,1.4-1.4h2.2c0.8,0,1.4,0.6,1.4,1.4v19.8
		C116.9-44.7,116.3-44.1,115.5-44.1z"/>
	<path class="st5" d="M124.6-44.1h-2c-0.8,0-1.5-0.7-1.5-1.5v-23.1c0-0.8,0.7-1.5,1.5-1.5h2c0.8,0,1.5,0.7,1.5,1.5v23.1
		C126.1-44.8,125.4-44.1,124.6-44.1z"/>
	<g>
		<g>
			<path class="st7" d="M94.2-66.4c0,0,16.5-4.9,25.6-13.5"/>
			<g>
				<polygon class="st5" points="120,-74.7 119,-74.8 119.5,-79.7 114.5,-79.8 114.6,-80.8 120.6,-80.7 				"/>
			</g>
		</g>
	</g>
</g>
<g>
	<path class="st4" d="M187.8-58.7v7.3c0,0.5-0.4,0.9-0.9,0.9h-7.2c-0.5,0-0.9-0.4-0.9-0.9v-7.3c0-0.5,0.4-0.9,0.9-0.9h7.2
		C187.4-59.6,187.8-59.2,187.8-58.7z"/>
	<path class="st5" d="M205.3-54.5v10.4c0,0.7-0.6,1.3-1.3,1.3h-10.3c-0.7,0-1.3-0.6-1.3-1.3v-10.4c0-0.7,0.6-1.3,1.3-1.3H204
		C204.7-55.8,205.3-55.2,205.3-54.5z"/>
	<path class="st4" d="M213.6-63.9v5.5c0,0.4-0.3,0.7-0.7,0.7h-5.4c-0.4,0-0.7-0.3-0.7-0.7v-5.5c0-0.4,0.3-0.7,0.7-0.7h5.4
		C213.3-64.5,213.6-64.2,213.6-63.9z"/>
	<line class="st8" x1="197.1" y1="-82.9" x2="197.1" y2="-64.8"/>
	<polyline class="st8" points="206.9,-82.9 206.9,-72.2 210.3,-75 	"/>
	<polyline class="st8" points="186.6,-82.9 186.6,-72.2 183.2,-75 	"/>
	<polyline class="st8" points="192.3,-68.2 196.9,-64.4 201.6,-68.2 	"/>
</g>
<polygon class="st9" points="346.6,-71.7 354.6,-71.7 350.6,-65.4 "/>
<polygon class="st5" points="329.6,-71.7 337.6,-71.7 333.6,-65.4 "/>
<path class="st10" d="M433.9-76.5h-11.8v8.9c0,1.6,1.3,3,3,3h20.7c1.6,0,3-1.3,3-3v-8.9h-11.8v3h-3V-76.5z M433.9-78h-13.3v-8.9
	c0-1.6,1.3-3,3-3h5.9v-1.5c0-1.6,1.3-3,3-3h5.9c1.6,0,3,1.3,3,3v1.5h5.9c1.6,0,3,1.3,3,3v8.9h-13.3v-3h-3V-78z M438.3-89.8v-1.5
	h-5.9v1.5H438.3z"/>
<rect x="107.5" y="4" transform="matrix(-1.836970e-16 1 -1 -1.836970e-16 132.5053 -84.5053)" class="st0" width="2" height="40"/>
<rect x="23" y="4" class="st0" width="2" height="40"/>
<rect x="23" y="4" transform="matrix(-1.836970e-16 1 -1 -1.836970e-16 48 9.130474e-13)" class="st0" width="2" height="40"/>
</svg>
