<svg xmlns="http://www.w3.org/2000/svg" width="35" height="35" viewBox="0 0 35 35">
    <defs>
        <style>
            .cls-1{fill:#0C6953}.cls-2{clip-path:url(#clip-path)}
        </style>
        <clipPath id="clip-path">
            <path id="Path_1106" d="M0 0h35v35H0z" class="cls-1" data-name="Path 1106"/>
        </clipPath>
    </defs>
    <g id="timeline-24px" class="cls-2">
        <path id="Path_1105" d="M33.083 8.917a2.925 2.925 0 0 1-2.917 2.917 2.479 2.479 0 0 1-.744-.1l-5.192 5.177a2.576 2.576 0 0 1 .1.758 2.917 2.917 0 0 1-5.833 0 2.576 2.576 0 0 1 .1-.758l-3.714-3.721a2.868 2.868 0 0 1-1.517 0l-6.635 6.65a2.479 2.479 0 0 1 .1.744 2.917 2.917 0 1 1-2.917-2.917 2.479 2.479 0 0 1 .744.1l6.65-6.635a2.576 2.576 0 0 1-.1-.758 2.917 2.917 0 1 1 5.833 0 2.576 2.576 0 0 1-.1.758l3.719 3.719a2.868 2.868 0 0 1 1.517 0l5.175-5.191a2.479 2.479 0 0 1-.1-.744 2.917 2.917 0 0 1 5.833 0z" class="cls-1" data-name="Path 1105" transform="translate(.458 2.75)"/>
    </g>
</svg>
