<svg xmlns="http://www.w3.org/2000/svg" id="account_balance_wallet-24px" width="35" height="35" viewBox="0 0 35 35">
    <defs>
        <style>
            .cls-1{fill:none}.cls-2{fill:#0C6953}
        </style>
    </defs>
    <path id="Path_1101" d="M0 0h35v35H0z" class="cls-1" data-name="Path 1101"/>
    <path id="Path_1102" d="M31.421 27.167v1.611A3.2 3.2 0 0 1 28.263 32H6.158A3.19 3.19 0 0 1 3 28.778V6.222A3.19 3.19 0 0 1 6.158 3h22.105a3.2 3.2 0 0 1 3.158 3.222v1.611h-14.21a3.19 3.19 0 0 0-3.158 3.222v12.889a3.19 3.19 0 0 0 3.158 3.222zm-14.21-3.223H33V11.056H17.211zm6.316-4.028a2.417 2.417 0 1 1 2.368-2.416 2.39 2.39 0 0 1-2.369 2.417z" class="cls-2" data-name="Path 1102"/>
</svg>
