<svg xmlns="http://www.w3.org/2000/svg" id="group_work-24px_1_" width="35" height="35" data-name="group_work-24px (1)" viewBox="0 0 35 35">
    <defs>
        <style>
            .cls-1{fill:none}.cls-2{fill:#0C6953}
        </style>
    </defs>
    <path id="Path_1103" d="M0 0h35v35H0z" class="cls-1" data-name="Path 1103"/>
    <path id="Path_1104" d="M17.5 2A15.5 15.5 0 1 0 33 17.5 15.506 15.506 0 0 0 17.5 2zm-6.2 24.025a3.875 3.875 0 1 1 3.875-3.875 3.876 3.876 0 0 1-3.875 3.875zM13.625 11.3a3.875 3.875 0 1 1 3.875 3.875 3.876 3.876 0 0 1-3.875-3.875zM23.7 26.025a3.875 3.875 0 1 1 3.875-3.875 3.876 3.876 0 0 1-3.875 3.875z" class="cls-2" data-name="Path 1104"/>
</svg>
