<?xml version="1.0" encoding="utf-8"?>
<!-- Generator: Adobe Illustrator 23.1.0, SVG Export Plug-In . SVG Version: 6.00 Build 0)  -->
<svg version="1.1" id="Layer_1" xmlns="http://www.w3.org/2000/svg" xmlns:xlink="http://www.w3.org/1999/xlink" x="0px" y="0px"
	 viewBox="0 0 96.4 83" style="enable-background:new 0 0 96.4 83;" xml:space="preserve">
<style type="text/css">
	.st0{fill:#0C6953;}
</style>
<g>
	<g>
		<path class="st0" d="M34,54.2l3.1-1v-5.7H34v-5.2h3.1V39c0-2.9,0.9-5.4,2.4-6.9c1.7-1.7,4.1-2.6,7.2-2.6c4.6,0,7.2,2,9.1,4.7
			L51.1,38c-1.4-1.8-2.6-2.7-4.3-2.7c-1,0-1.7,0.3-2.3,0.9c-0.6,0.6-1.1,1.7-1.1,3v3.1h9.3v5.2h-9.3v5.4h12.3v5.4H34V54.2z"/>
	</g>
	<path class="st0" d="M77.8,72.8H4.4c-0.4,0-0.7-0.3-0.7-0.7V13.9h82.5v50.7c0,0,3.6,0.7,3.7,0.8V5.2c0-2.9-2.3-5.2-5.2-5.2H5.2
		C2.3,0,0,2.3,0,5.2v66.1c0,2.9,2.3,5.2,5.2,5.2h73.4C78.5,76.3,77.8,72.8,77.8,72.8z M78,2.6c2.4,0,4.3,1.9,4.3,4.3
		s-1.9,4.3-4.3,4.3s-4.3-1.9-4.3-4.3S75.6,2.6,78,2.6z M63.3,2.6c2.4,0,4.3,1.9,4.3,4.3s-1.9,4.3-4.3,4.3c-2.4,0-4.3-1.9-4.3-4.3
		S60.9,2.6,63.3,2.6z M9.6,4.7h17.5c1.2,0,2.2,1,2.2,2.2s-1,2.2-2.2,2.2H9.6c-1.2,0-2.2-1-2.2-2.2S8.4,4.7,9.6,4.7z"/>
	<path class="st0" d="M95.8,79.7L89.1,73l2.1-1.9c0.4-0.4,0.6-0.9,0.5-1.4s-0.5-0.9-1-1.1L80,64.7c-0.5-0.2-1.1-0.1-1.6,0.4
		c-0.4,0.4-0.5,1-0.4,1.6L81.7,77c0.2,0.5,0.6,0.8,1,0.9c0.1,0,0.2,0,0.4,0c0.4,0,0.7-0.1,1-0.4l2.1-1.9l6.8,6.8
		c0.4,0.4,0.9,0.6,1.4,0.6s1-0.2,1.4-0.6C96.6,81.6,96.6,80.4,95.8,79.7z"/>
</g>
</svg>
