<?xml version="1.0" encoding="utf-8"?>
<!-- Generator: Adobe Illustrator 18.0.0, SVG Export Plug-In . SVG Version: 6.00 Build 0)  -->
<!DOCTYPE svg PUBLIC "-//W3C//DTD SVG 1.1//EN" "http://www.w3.org/Graphics/SVG/1.1/DTD/svg11.dtd">
<svg version="1.1" id="Layer_1" xmlns="http://www.w3.org/2000/svg" xmlns:xlink="http://www.w3.org/1999/xlink" x="0px" y="0px"
	 viewBox="0 0 80.9 55" enable-background="new 0 0 80.9 55" xml:space="preserve">
<path fill="#FFFFFF" d="M80.3,19L59.9,0.5c-0.7-0.7-2-0.6-2.7,0.1l-4.7,5.1c-0.3,0.4-0.5,0.9-0.5,1.4c0,0.5,0.2,1,0.6,1.3l0.5,0.5
	l-1.8,2c-0.6,0.7-0.6,1.7,0.1,2.4l0.4,0.3c-1.2,0.8-4.3,2.6-8.8,4.4c-0.3-0.3-3-2.2-8-2.7c-2.4-0.2-4.9-1.1-6.1-1.6l0.5-0.4
	c0.7-0.6,0.7-1.7,0.1-2.4l-1.8-2l0.5-0.5c0.4-0.3,0.6-0.8,0.6-1.3c0-0.5-0.2-1-0.5-1.4l-4.7-5.1C23-0.1,21.7-0.2,21,0.5L0.6,19
	c-0.8,0.7-0.8,1.9-0.1,2.7l4.7,5.1c0.4,0.4,0.9,0.6,1.4,0.6c0.5,0,0.9-0.2,1.3-0.5l0.5-0.5l1.8,2c0.3,0.3,0.7,0.5,1.2,0.5
	c0,0,0.1,0,0.1,0c0.4,0,0.8-0.2,1.1-0.4l0.3-0.3c1.1,2.2,5.1,9.1,13.5,15.5c-1.4,1.7-1.2,3-1,3.6c0.3,0.7,0.8,1.1,1.5,1.3
	c0.2,0,0.4,0.1,0.5,0.1c0.4,0,0.9-0.1,1.4-0.3c-0.4,1.2,0,2.1,0.4,2.6c0.3,0.4,0.9,0.8,1.9,0.8c0.5,0,1.2-0.1,2-0.5
	c0,0.1,0,0.1,0,0.2c0,0.8,0.3,1.4,0.6,1.7c0.5,0.6,1.2,0.8,1.9,0.8c1,0,2.1-0.4,3.1-1c0,0.3,0,0.7,0.2,1c0.2,0.4,0.6,1,1.9,1
	c0.4,0,0.9-0.1,1.5-0.2c0.9-0.2,1.8-0.7,3-1.4c0.7,0.2,1.3,0.3,1.9,0.3c0.1,0,0.3,0,0.4,0c2.1,0,2.5-1,2.6-1.5
	c0.1-0.3,0-0.7-0.1-1.1c1.1,0.3,2.1,0.5,2.9,0.5c0.4,0,0.8,0,1.1-0.1c0.8-0.2,1.3-0.7,1.6-1.3c0.2-0.4,0.2-0.9,0-1.5
	c0.9,0.3,1.7,0.4,2.4,0.4c0.4,0,0.8,0,1.1-0.2c0.8-0.3,1.3-0.8,1.5-1.7c0.2-0.9-0.2-1.8-1.3-2.8c0.1,0,0.2,0,0.3,0
	c0.4,0,0.7-0.1,1-0.2c0.5-0.2,1.1-0.8,1.1-2.2c0-0.7-0.3-1.5-1.3-2.6c3.3-3.6,6.5-9.3,7.6-11.2l0.2,0.2c0.3,0.3,0.7,0.4,1.1,0.4
	c0,0,0.1,0,0.1,0c0.4,0,0.9-0.2,1.2-0.5l1.8-2l0.5,0.5c0.4,0.3,0.8,0.5,1.3,0.5c0.5,0,1-0.2,1.4-0.6l4.7-5.1
	C81.1,20.9,81,19.7,80.3,19 M7.1,26.1c-0.3,0.3-0.7,0.2-1,0l-4.7-5.1c-0.3-0.3-0.2-0.7,0-1L21.8,1.4c0.1-0.1,0.3-0.2,0.5-0.2
	c0.2,0,0.4,0.1,0.5,0.2l4.7,5.1c0.3,0.3,0.2,0.7,0,1L7.1,26.1z M11.8,27.7c-0.1,0.1-0.2,0.1-0.3,0.1c-0.1,0-0.2-0.1-0.3-0.2l-1.8-2
	L26.8,9.7l1.8,2c0.2,0.2,0.2,0.5,0,0.7l-1.2,1.1c0,0,0,0,0,0L11.8,27.7z M27.3,47.5c-0.3-0.1-0.6-0.2-0.7-0.5
	c-0.3-0.7,0-1.5,0.8-2.4c0.9,0.6,1.8,1.2,2.7,1.8C28.9,47.4,27.9,47.6,27.3,47.5 M30.3,50.2c-0.8-0.9,0-2.2,1-3.1
	c1.1,0.7,2.3,1.3,3.5,1.9C32.7,50.5,31,51,30.3,50.2 M34.6,52.3c-0.1-0.1-0.2-0.4-0.2-0.8c0-0.5,0.3-0.9,0.7-1.3c0,0,0,0,0,0
	c0.3-0.2,0.6-0.4,0.9-0.7c0.3,0.2,0.6,0.3,1,0.5c0.9,0.4,1.7,0.8,2.5,1.1C37.7,52.3,35.6,53.4,34.6,52.3 M42,53.6
	c-1,0.3-1.8,0.2-2-0.2c-0.2-0.4,0.1-1.2,0.8-1.8c1.2,0.5,2.1,0.9,2.9,1.1C43.1,53.2,42.5,53.4,42,53.6 M60.6,42.2
	c0,0.9-0.3,1-0.5,1.1c-0.8,0.4-2.4-0.2-4.4-1.3c0,0-0.1,0-0.1-0.1c0,0,0,0,0,0c-3.5-1.9-8.2-5.4-11.3-8.1c-0.2-0.2-0.6-0.2-0.8,0.1
	c-0.2,0.3-0.2,0.6,0.1,0.8C45,36,50.5,40.5,55,43c0,0,0,0,0,0c3.9,2.3,4.6,3.4,4.4,4c-0.1,0.4-0.3,0.7-0.7,0.8
	c-1,0.3-2.8-0.1-4.8-1.1c0,0,0,0,0,0c0,0,0,0-0.1,0c-4.8-2.2-11.3-6.8-14.2-9.1c-0.3-0.2-0.6-0.2-0.8,0.1c-0.2,0.3-0.2,0.6,0.1,0.8
	c1.1,0.9,8.5,6.6,14.4,9.2c0,0,0,0,0,0c1.4,0.8,1.4,1.8,1.3,1.9c-0.2,0.3-0.4,0.6-0.8,0.7c-3.6,1-14.5-5.9-18.4-8.7
	c-0.3-0.2-0.6-0.1-0.8,0.1c-0.2,0.3-0.1,0.6,0.1,0.8c1,0.7,7.5,5.2,13,7.5c0.9,0.3,1.5,1.2,1.4,1.7c-0.1,0.4-0.8,0.6-1.8,0.6
	c-1.7-0.1-4-1-9.7-3.5c-16.2-7.3-22.6-19.3-23.7-21.5l14.1-12.8c1,0.4,3.9,1.7,7,1.9c3.5,0.3,5.7,1.4,6.8,2c-0.9,0.3-1.8,0.7-2.7,1
	c-9.1,3.1-10,6.9-11.1,11.3c-0.9,3.7-0.4,6.6,1.3,7.4c0.2,0.1,0.6,0.2,0.9,0.2c0.9,0,2.1-0.5,3.5-2.3c0.9-1.1,1.3-2.3,1.6-3.4
	c0.3-1.1,0.6-2,1.4-2.5c0.6-0.4,1.4-0.6,2.2-0.8c1.3-0.3,2.8-0.7,4.5-2c1.8,1.3,9.9,7.5,14.4,11.3C60.6,41,60.6,41.8,60.6,42.2
	 M59.7,38.7c-0.3-0.3-0.7-0.6-1.1-1c-5.1-4.3-14.7-11.6-14.8-11.6c0,0,0,0,0,0c0,0-0.1,0-0.1-0.1c0,0-0.1,0-0.1,0c0,0-0.1,0-0.1,0
	c0,0-0.1,0-0.1,0c0,0-0.1,0-0.1,0c0,0-0.1,0-0.1,0.1c0,0,0,0,0,0c-1.6,1.3-3.1,1.7-4.4,2c-1,0.2-1.9,0.5-2.6,1
	c-1.1,0.8-1.5,2-1.8,3.2c-0.3,1-0.6,2-1.4,3c-1.2,1.5-2.3,2.1-3,1.8c-0.9-0.5-1.4-2.7-0.6-6c1-4.2,1.8-7.5,10.3-10.4
	c7.4-2.5,12.1-5.4,13.4-6.2l14.4,13.1C66.3,29.2,63,35.1,59.7,38.7 M69.8,27.7c-0.1,0.1-0.2,0.2-0.3,0.2c-0.1,0-0.3,0-0.3-0.1
	L52.3,12.4c-0.2-0.2-0.2-0.5,0-0.7l1.8-2l17.5,15.9L69.8,27.7z M79.5,20.9L74.8,26c-0.1,0.1-0.3,0.2-0.5,0.2c-0.2,0-0.3-0.1-0.5-0.2
	L53.5,7.6c-0.3-0.3-0.3-0.7,0-1l4.7-5.1c0.1-0.1,0.3-0.2,0.5-0.2c0.2,0,0.3,0.1,0.5,0.2l20.3,18.5C79.7,20.1,79.8,20.6,79.5,20.9"/>
</svg>
