<?xml version="1.0" encoding="utf-8"?>
<!-- Generator: Adobe Illustrator 18.0.0, SVG Export Plug-In . SVG Version: 6.00 Build 0)  -->
<!DOCTYPE svg PUBLIC "-//W3C//DTD SVG 1.1//EN" "http://www.w3.org/Graphics/SVG/1.1/DTD/svg11.dtd">
<svg version="1.1" id="Layer_1" xmlns="http://www.w3.org/2000/svg" xmlns:xlink="http://www.w3.org/1999/xlink" x="0px" y="0px"
	 viewBox="0 0 211.5 158.9" enable-background="new 0 0 211.5 158.9" xml:space="preserve">
<g>
	<path fill="#303333" d="M51.7,76.3c0,0.9,0.7,1.6,1.6,1.6h13.8v-3.3H53.4C52.5,74.7,51.7,75.4,51.7,76.3z M51.7,63.1
		c0,0.9,0.7,1.6,1.6,1.6h13.8v-3.3H53.4C52.5,61.5,51.7,62.2,51.7,63.1z M48.4,121c0,0.9,0.7,1.6,1.6,1.6h17.1v-3.3H50.1
		C49.2,119.4,48.4,120.1,48.4,121z M0,44.8v63c0,1.8,1.5,3.3,3.3,3.3h63.9v-6.6H6.6V48.1h60.6v-6.6H3.3C1.5,41.5,0,43,0,44.8z
		 M43.6,116h-6.6v18.6c0,1.8,1.5,3.3,3.3,3.3h26.8v-6.6H43.6V116z M43.6,6.6h90.3v9.5h6.6V3.3c0-1.8-1.5-3.3-3.3-3.3H40.3
		c-1.8,0-3.3,1.5-3.3,3.3v33.3h6.6V6.6z M48.4,28.7c0,0.9,0.7,1.6,1.6,1.6h17.1v-3.3H50.1C49.2,27.1,48.4,27.8,48.4,28.7z M18.2,86
		l2.8-0.9v-5.2h-2.8v-4.7H21v-3c0-2.7,0.8-4.9,2.2-6.3c1.5-1.5,3.7-2.4,6.5-2.4c4.2,0,6.5,1.8,8.3,4.2l-4.3,3.5
		c-1.3-1.6-2.3-2.4-3.9-2.4c-0.9,0-1.5,0.3-2.1,0.8c-0.6,0.6-1,1.5-1,2.7v2.8h8.4v4.7h-8.4v4.9H38v4.9H18.2V86z"/>
	<g>
		<path fill="#303333" d="M133.8,145.7H106c-0.5,0-0.8-0.4-0.8-0.8c0-0.5,0.4-0.8,0.8-0.8h27.9c0.5,0,0.8,0.4,0.8,0.8
			C134.7,145.3,134.3,145.7,133.8,145.7z"/>
	</g>
	<path fill="#303333" d="M88.8,90.2c-0.9,0-1.6,0.7-1.6,1.6c0,0.9,0.7,1.6,1.6,1.6h61.6l1.3-1.3l0,0l2-2H88.8z M169.9,63.6
		c1-1.1,3-3,5.6-5.1V24.3c0-1.8-1.5-3.3-3.3-3.3H75.4c-1.8,0-3.3,1.5-3.3,3.3v131.3c0,1.8,1.5,3.3,3.3,3.3h96.8
		c1.8,0,3.3-1.5,3.3-3.3v-48.9l-6.6,6.6v39H78.7V27.6h90.3v37C169.3,64.3,169.7,63.9,169.9,63.6z M87.1,105c0,0.9,0.7,1.6,1.6,1.6
		h48.5c0.6-0.6,1.1-1.2,1.7-1.8l1.5-1.5H88.8C87.8,103.4,87.1,104.1,87.1,105z M159,80.3c0.3-0.9,0.6-1.9,1-2.8
		c-0.3-0.3-0.7-0.5-1.1-0.5H88.8c-0.9,0-1.6,0.7-1.6,1.6c0,0.9,0.7,1.6,1.6,1.6h70.1C158.9,80.3,158.9,80.3,159,80.3z M160.5,65.5
		c0-0.9-0.7-1.6-1.6-1.6H88.8c-0.9,0-1.6,0.7-1.6,1.6c0,0.9,0.7,1.6,1.6,1.6h70.1C159.8,67.1,160.5,66.4,160.5,65.5z M149.2,50.2
		c1.8,0,3.3-1.5,3.3-3.3c0-1.8-1.5-3.3-3.3-3.3H98.4c-1.8,0-3.3,1.5-3.3,3.3c0,1.8,1.5,3.3,3.3,3.3H149.2z"/>
	<path fill="#72B1C8" d="M142.4,108.4c-14.1,14.1-18.7,28.3-17.7,29.4l0.5,0.5c1.1,1,15.3-3.6,29.4-17.7l13.8-13.8l-12.3-12.3
		L142.4,108.4z M209,54.1c-3.4-3.4-8.9-3.4-12.3,0l-2,2c-0.7-0.3-1.5-0.6-2.4-0.6c-5.6,0-13.6,6.2-18.7,11.4
		c-4.8,5-10.1,12.2-10.4,17.5c0,0.3,0.1,0.5,0.4,0.6c0.1,0,0.2,0.1,0.3,0.1c0.2,0,0.3-0.1,0.5-0.2l2-2.2c1.1-3.9,4.6-9.1,9.3-14
		c6-6.2,12.9-10.6,16.7-10.6c0.1,0,0.2,0,0.3,0l-33.9,33.9l12.3,12.3L209,66.4C212.3,63,212.3,57.5,209,54.1z"/>
	<path fill="#303333" d="M114.1,129.6c-1.6-1.7-5.3-1-6.4,1.2c-1.2,2.6-1,6.8,0.9,9c3.2,3.7,9.6,1.6,8.9-3.5
		c-0.3,0.3-0.6,0.5-0.9,0.8c2.2-0.2,1.4,2.4,1.6,3.7c0.1,0.5,1.1,0.3,1.3,0.1c0.7-0.5,1-0.9,1.2-1.8c0.2-0.7-1.5-0.5-1.6,0.2
		c-0.2,0.3-0.4,0.7-0.6,1c0.4,0,0.9,0.1,1.3,0.1c-0.3-2.4,0.2-4.6-3-4.3c-0.4,0-1,0.3-0.9,0.8c0.5,3.6-2.6,4.8-5.3,2.9
		c-1.1-0.8-1.6-2.1-1.8-3.4c-0.1-1-0.1-2-0.1-3c0-1.5,1.7-5,3.9-2.8C113.1,130.8,114.6,130.2,114.1,129.6L114.1,129.6z"/>
</g>
</svg>
