<?xml version="1.0" encoding="utf-8"?>
<!-- Generator: Adobe Illustrator 18.0.0, SVG Export Plug-In . SVG Version: 6.00 Build 0)  -->
<!DOCTYPE svg PUBLIC "-//W3C//DTD SVG 1.1//EN" "http://www.w3.org/Graphics/SVG/1.1/DTD/svg11.dtd">
<svg version="1.1" id="Layer_1" xmlns="http://www.w3.org/2000/svg" xmlns:xlink="http://www.w3.org/1999/xlink" x="0px" y="0px"
	 viewBox="0 0 67.2 68.4" enable-background="new 0 0 67.2 68.4" xml:space="preserve">
<g>
	<path fill="#FFFFFF" d="M33.6,0L0,25.4h67.2L33.6,0z M33.6,2.4l27.9,21.1H5.8L33.6,2.4z"/>
	<path fill="#FFFFFF" d="M11.1,58.2h11.5V28.6H11.1V58.2z M13,30.6h7.6v25.7H13V30.6z"/>
	<path fill="#FFFFFF" d="M27.9,28.6v29.6h11.5V28.6H27.9z M37.4,56.3h-7.6V30.6h7.6V56.3z"/>
	<path fill="#FFFFFF" d="M56.2,28.6H44.7v29.6h11.5V28.6z M54.2,56.3h-7.6V30.6h7.6V56.3z"/>
	<rect x="2.4" y="66.5" fill="#FFFFFF" width="61.9" height="1.9"/>
	<rect x="12.1" y="61.4" fill="#FFFFFF" width="43.1" height="1.9"/>
</g>
</svg>
