<?xml version="1.0" encoding="utf-8"?>
<!-- Generator: Adobe Illustrator 18.0.0, SVG Export Plug-In . SVG Version: 6.00 Build 0)  -->
<!DOCTYPE svg PUBLIC "-//W3C//DTD SVG 1.1//EN" "http://www.w3.org/Graphics/SVG/1.1/DTD/svg11.dtd">
<svg version="1.1" id="Layer_1" xmlns="http://www.w3.org/2000/svg" xmlns:xlink="http://www.w3.org/1999/xlink" x="0px" y="0px"
	 viewBox="0 0 97.7 111.9" enable-background="new 0 0 97.7 111.9" xml:space="preserve">
<g>
	<path fill="#FFFFFF" d="M31.7,43.8c0.7,0.1,1.3,0.2,2,0.2h0c5,0,9.5-3.3,9.6-3.5c0.6-0.5,0.8-1.4,0.4-2.1c-0.1-0.3-3.7-6.2-9.5-7.4
		c-0.7-0.1-1.3-0.2-2-0.2c-5,0-9.5,3.3-9.6,3.5c-0.6,0.5-0.8,1.4-0.4,2.1C22.4,36.6,25.9,42.6,31.7,43.8z M32.3,34.1
		c0.5,0,1,0,1.4,0.1c3,0.6,5.3,3.1,6.5,4.6c-1.4,0.8-3.9,2-6.4,2c-0.5,0-1,0-1.4-0.1c-3-0.6-5.3-3.1-6.5-4.6
		C27.3,35.2,29.7,34.1,32.3,34.1z"/>
	<path fill="#FFFFFF" d="M73.3,36.4c-0.1-0.1-2.8-1.4-5.9-1.4c-1.3,0-2.5,0.2-3.6,0.7c-4.4,1.8-6.2,7.1-6.3,7.3
		c-0.3,0.8,0.1,1.6,0.8,2c0.1,0.1,2.8,1.4,5.9,1.4h0c1.3,0,2.5-0.2,3.6-0.7c4.4-1.8,6.2-7.1,6.3-7.3C74.3,37.5,74,36.7,73.3,36.4z
		 M66.5,42.6c-0.7,0.3-1.5,0.4-2.4,0.4c-1.1,0-2.2-0.2-3-0.5c0.7-1.3,2-3.2,3.9-4c0.7-0.3,1.5-0.4,2.4-0.4c1.1,0,2.2,0.2,3,0.5
		C69.7,40,68.4,41.9,66.5,42.6z"/>
	<path fill="#FFFFFF" d="M45.6,24.3c0.3,5.2,5.1,9,5.3,9.1c0.3,0.2,0.6,0.3,1,0.3c0.4,0,0.8-0.2,1.1-0.5c0.2-0.2,4.5-4.4,4.1-9.6
		c-0.3-5.2-5.1-9-5.3-9.1c-0.6-0.5-1.5-0.4-2.1,0.1C49.6,14.9,45.3,19.2,45.6,24.3z M51,18.2c1.2,1.2,2.8,3.4,3,5.8
		c0.2,2.4-1.2,4.6-2.2,6c-1.2-1.2-2.8-3.4-3-5.8C48.7,21.7,50,19.5,51,18.2z"/>
	<path fill="#FFFFFF" d="M38.8,47.6c-1.5,3.7,0.4,7.9,0.5,8.1c0.3,0.6,0.8,0.9,1.4,0.9c0.2,0,0.3,0,0.5-0.1c0.2-0.1,4.6-1.5,6.1-5.2
		c1.5-3.7-0.4-7.9-0.5-8.1c-0.3-0.7-1.2-1.1-1.9-0.8C44.7,42.5,40.3,44,38.8,47.6z M41.7,48.9c0.5-1.3,1.7-2.2,2.7-2.7
		c0.3,1.1,0.5,2.7-0.1,4c-0.5,1.3-1.7,2.2-2.7,2.8C41.4,51.7,41.2,50.2,41.7,48.9z"/>
	<path fill="#FFFFFF" d="M59.1,18.2c0.3,0,0.5-0.1,0.8-0.2c0.2-0.1,4.1-2.4,4.9-6.4c0.7-3.9-2.1-7.6-2.2-7.8
		c-0.5-0.6-1.4-0.8-2.1-0.4c-0.2,0.1-4.1,2.4-4.9,6.4c-0.7,3.9,2.1,7.6,2.2,7.8C58.1,18,58.6,18.2,59.1,18.2z M58.8,10.4
		C59,9,60,7.8,60.8,7.1c0.5,1,1,2.5,0.8,3.9c-0.3,1.4-1.3,2.5-2.1,3.3C59,13.2,58.5,11.8,58.8,10.4z"/>
	<path fill="#FFFFFF" d="M44.6,14.8c0.3,0.2,0.6,0.3,1,0.3c0.4,0,0.8-0.2,1.1-0.5c0.1-0.1,3.4-3.4,3.1-7.4c-0.3-4-4-6.8-4.1-7
		c-0.6-0.5-1.5-0.4-2.1,0.1c-0.1,0.1-3.4,3.4-3.1,7.4C40.8,11.8,44.5,14.7,44.6,14.8z M44.9,4c0.8,0.9,1.6,2.1,1.7,3.6
		c0.1,1.4-0.6,2.8-1.2,3.7c-0.8-0.9-1.6-2.1-1.7-3.6C43.6,6.2,44.3,4.9,44.9,4z"/>
	<path fill="#FFFFFF" d="M33.7,28.9L33.7,28.9c1.4,0,2.8-0.3,4-1c4.4-2.2,6.2-7.6,3.9-12c-1.5-3-4.6-4.9-8-4.9c-1.4,0-2.8,0.3-4,1
		c-4.4,2.2-6.2,7.6-3.9,12C27.3,27,30.3,28.9,33.7,28.9z M31.1,14.8c0.8-0.4,1.7-0.6,2.6-0.6c2.2,0,4.2,1.2,5.1,3.2
		c1.4,2.8,0.3,6.3-2.5,7.7c-0.8,0.4-1.7,0.6-2.6,0.6h0c-2.2,0-4.2-1.2-5.1-3.2C27.2,19.7,28.3,16.3,31.1,14.8z"/>
	<path fill="#FFFFFF" d="M59.5,23.3c-1.3,3.9,0.9,8.2,4.8,9.5c0.8,0.2,1.6,0.4,2.3,0.4h0c3.3,0,6.1-2.1,7.2-5.2
		c1.3-3.9-0.9-8.2-4.8-9.5c-0.8-0.2-1.6-0.4-2.3-0.4C63.4,18.1,60.6,20.2,59.5,23.3z M62.6,24.2c0.6-1.8,2.2-3,4.1-3
		c0.5,0,0.9,0.1,1.4,0.2c2.3,0.7,3.5,3.2,2.8,5.5c-0.6,1.8-2.2,3-4.1,3h0c-0.5,0-0.9-0.1-1.4-0.2C63.1,29,61.8,26.5,62.6,24.2z"/>
	<path fill="#FFFFFF" d="M96.2,53c-1.1-1.1-2.5-1.7-4.1-1.7c-1.5,0-2.9,0.5-3.9,1.5L73.4,66.6c-1-1.4-2.6-2.3-4.6-2.5
		c-0.8-0.1-7.3-0.6-14.8-1.3v-2.6c0,0,0,0,0,0V45.5c0-4.7,2.5-8.9,6.5-11.3c0.8-0.5,1-1.4,0.6-2.2c-0.5-0.8-1.4-1-2.2-0.6
		c-3.5,2.1-6,5.3-7.2,9c-3.1-7.7-8.2-12.6-8.5-12.9c-0.6-0.6-1.6-0.6-2.3,0.1c-0.6,0.6-0.6,1.6,0.1,2.3c0.1,0.1,9.9,9.6,9.9,22.3
		v10.3c-2.7-0.2-5.5-0.5-8.1-0.7l-9.2-0.8c-2.3-0.2-4.6,0.4-6.5,1.7l-10.3,6.9l-2-2.5c-0.5-0.7-1.5-0.8-2.2-0.3L0.6,76.2
		c-0.7,0.5-0.8,1.5-0.3,2.2c0.5,0.7,1.5,0.8,2.2,0.3l10.7-8.3l16.5,21c0,0,0,0,0,0c0,0,0,0,0,0l2.7,3.4l-18.4,14.3
		c-0.7,0.5-0.8,1.5-0.3,2.2c0.3,0.4,0.8,0.6,1.3,0.6c0.3,0,0.7-0.1,1-0.3l19.6-15.3c0.3-0.3,0.6-0.6,0.6-1.1
		c0.1-0.4-0.1-0.8-0.3-1.2l-2.7-3.5l0.9-0.8c1.1-0.9,2.4-1.3,3.8-1.3c0.4,0,0.9,0,1.2,0.1l16.8,5.8c0.1,0,0.1,0,0.2,0.1
		c0.7,0.1,1.4,0.2,2.1,0.2c2.6,0,5.1-1.1,6.9-2.9l31.1-31.3C98.2,58.4,98.2,55,96.2,53z M93.9,58.2L62.8,89.5
		c-1.5,1.5-3.8,2.2-6,1.8l-16.8-5.8c0,0-0.1,0-0.1,0c0,0,0,0-0.1,0c-0.6-0.1-1.3-0.2-2-0.2c-2.1,0-4.2,0.7-5.8,2l-0.9,0.7L18.8,72.2
		l10.1-6.7c1.1-0.8,2.5-1.2,3.9-1.2c0.2,0,0.4,0,0.6,0l9.2,0.8c3,0.3,6.3,0.5,9.4,0.8C52,66,52.2,66,52.4,66c0.1,0,0.2,0,0.3,0
		c8,0.7,15,1.3,15.9,1.4c1.4,0.1,2.5,1,2.6,2.2c0,0,0,0,0,0c0,0,0,0,0,0c0,0.1,0,0.1,0,0.2c0,1.4-1.1,2.5-2.5,2.5H51.3
		c-0.9,0-1.6,0.7-1.6,1.6c0,0.9,0.7,1.6,1.6,1.6h17.5c3.1,0,5.6-2.4,5.7-5.5l15.9-14.9c0.5-0.4,1.1-0.7,1.7-0.7
		c0.7,0,1.3,0.3,1.8,0.8C94.7,56,94.7,57.4,93.9,58.2z"/>
</g>
</svg>
