<?xml version="1.0" encoding="utf-8"?>
<!-- Generator: Adobe Illustrator 18.0.0, SVG Export Plug-In . SVG Version: 6.00 Build 0)  -->
<!DOCTYPE svg PUBLIC "-//W3C//DTD SVG 1.1//EN" "http://www.w3.org/Graphics/SVG/1.1/DTD/svg11.dtd">
<svg version="1.1" id="Layer_1" xmlns="http://www.w3.org/2000/svg" xmlns:xlink="http://www.w3.org/1999/xlink" x="0px" y="0px"
	 viewBox="0 0 102.3 76.5" enable-background="new 0 0 102.3 76.5" xml:space="preserve">
<g>
	<g id="XMLID_51_">
		<polygon id="XMLID_63_" fill="#FFFFFF" points="6.6,40.1 11.3,38.5 11.3,33.9 6.6,35.6 		"/>
		<polygon id="XMLID_62_" fill="#FFFFFF" points="13.5,37.7 17.9,36.1 17.9,31.5 13.5,33.2 		"/>
		<polygon id="XMLID_61_" fill="#FFFFFF" points="20.2,35.3 24.5,33.6 24.5,29.1 20.2,30.8 		"/>
		<polygon id="XMLID_60_" fill="#FFFFFF" points="6.6,48 11.3,46.4 11.3,41.9 6.6,43.5 		"/>
		<polygon id="XMLID_59_" fill="#FFFFFF" points="13.5,45.6 17.9,44 17.9,39.4 13.5,41.1 		"/>
		<polygon id="XMLID_58_" fill="#FFFFFF" points="20.2,43.2 24.5,41.6 24.5,37 20.2,38.7 		"/>
		<polygon id="XMLID_57_" fill="#FFFFFF" points="6.6,55.9 11.3,54.3 11.3,49.8 6.6,51.4 		"/>
		<polygon id="XMLID_56_" fill="#FFFFFF" points="13.5,53.5 17.9,51.9 17.9,47.4 13.5,49 		"/>
		<polygon id="XMLID_55_" fill="#FFFFFF" points="20.2,51.1 24.5,49.5 24.5,45 20.2,46.6 		"/>
		<polygon id="XMLID_54_" fill="#FFFFFF" points="6.6,63.9 11.3,62.2 11.3,57.7 6.6,59.3 		"/>
		<polygon id="XMLID_53_" fill="#FFFFFF" points="13.5,61.5 17.9,59.8 17.9,55.3 13.5,56.9 		"/>
		<polygon id="XMLID_52_" fill="#FFFFFF" points="20.2,59 24.5,57.4 24.5,52.9 20.2,54.5 		"/>
		<path fill="#FFFFFF" d="M48.9,28.7l-17.8-10c0,0-0.1,0-0.1,0c0,0,0,0,0,0l0,0c0,0,0,0,0,0l0,0c0,0,0,0,0,0c0,0-0.1,0-0.1,0
			c0,0,0,0,0,0c0,0-0.1,0-0.1,0l-0.1,0c0,0-0.1,0-0.1,0l0,0l0,0c0,0-0.1,0-0.1,0c0,0,0,0-0.1,0c0,0-0.1,0-0.1,0c0,0,0,0-0.1,0
			c0,0,0,0-0.1,0c0,0,0,0-0.1,0c0,0-0.1,0-0.1,0l-0.1,0c0,0-0.1,0-0.1,0c0,0,0,0-0.1,0c0,0-0.1,0-0.1,0l-0.1,0l-0.1,0
			c0,0-0.1,0-0.1,0c0,0-0.1,0-0.1,0c0,0,0,0-0.1,0c0,0-0.1,0-0.1,0c0,0-0.1,0-0.1,0l0,0l-27.5,10C0.6,28.9,0,29.8,0,30.7v45.8
			l2.8-0.7V31.4l24.7-9.3v44.4l2.7-1v-44l17.5,9.3v28.3l2.3-0.8V30.7C50.1,29.9,49.7,29.1,48.9,28.7z"/>
	</g>
	<g id="XMLID_38_">
		<polygon id="XMLID_50_" fill="#FFFFFF" points="58.7,21.7 63.4,20.1 63.4,15.6 58.7,17.2 		"/>
		<polygon id="XMLID_49_" fill="#FFFFFF" points="65.6,19.3 70,17.7 70,13.1 65.6,14.8 		"/>
		<polygon id="XMLID_48_" fill="#FFFFFF" points="72.3,16.9 76.6,15.3 76.6,10.7 72.3,12.4 		"/>
		<polygon id="XMLID_47_" fill="#FFFFFF" points="58.7,29.6 63.4,28 63.4,23.5 58.7,25.1 		"/>
		<polygon id="XMLID_46_" fill="#FFFFFF" points="65.6,27.2 70,25.6 70,21.1 65.6,22.7 		"/>
		<polygon id="XMLID_45_" fill="#FFFFFF" points="72.3,24.8 76.6,23.2 76.6,18.6 72.3,20.3 		"/>
		<polygon id="XMLID_44_" fill="#FFFFFF" points="58.7,37.6 63.4,35.9 63.4,31.4 58.7,33 		"/>
		<polygon id="XMLID_43_" fill="#FFFFFF" points="65.6,35.1 70,33.5 70,29 65.6,30.6 		"/>
		<polygon id="XMLID_42_" fill="#FFFFFF" points="72.3,32.7 76.6,31.1 76.6,26.6 72.3,28.2 		"/>
		<polygon id="XMLID_41_" fill="#FFFFFF" points="58.7,45.5 63.4,43.8 63.4,39.3 58.7,41 		"/>
		<polygon id="XMLID_40_" fill="#FFFFFF" points="65.6,43.1 70,41.4 70,36.9 65.6,38.5 		"/>
		<polygon id="XMLID_39_" fill="#FFFFFF" points="72.3,40.6 76.6,39 76.6,34.5 72.3,36.1 		"/>
		<path fill="#FFFFFF" d="M101,10.3l-17.8-10c0,0-0.1,0-0.1,0c0,0,0,0,0,0l0,0c0,0,0,0,0,0l0,0c0,0,0,0,0,0c0,0-0.1,0-0.1,0
			c0,0,0,0,0,0c0,0-0.1,0-0.1,0l-0.1,0c0,0-0.1,0-0.1,0l0,0l0,0c0,0-0.1,0-0.1,0c0,0,0,0-0.1,0c0,0-0.1,0-0.1,0c0,0,0,0-0.1,0
			c0,0,0,0-0.1,0c0,0,0,0-0.1,0c0,0-0.1,0-0.1,0L82,0c0,0-0.1,0-0.1,0c0,0,0,0-0.1,0c0,0-0.1,0-0.1,0l-0.1,0l-0.1,0c0,0-0.1,0-0.1,0
			c0,0-0.1,0-0.1,0c0,0,0,0-0.1,0c0,0-0.1,0-0.1,0c0,0-0.1,0-0.1,0l0,0l-27.5,10c-0.9,0.3-1.6,1.2-1.6,2.2v45.8l2.8-0.7V13l24.7-9.3
			v44.4l2.7-1v-44l17.5,9.3v28.3l2.3-0.8V12.4C102.3,11.5,101.8,10.7,101,10.3z"/>
	</g>
</g>
</svg>
