<?xml version="1.0" encoding="utf-8"?>
<!-- Generator: Adobe Illustrator 18.0.0, SVG Export Plug-In . SVG Version: 6.00 Build 0)  -->
<!DOCTYPE svg PUBLIC "-//W3C//DTD SVG 1.1//EN" "http://www.w3.org/Graphics/SVG/1.1/DTD/svg11.dtd">
<svg version="1.1" id="Layer_1" xmlns="http://www.w3.org/2000/svg" xmlns:xlink="http://www.w3.org/1999/xlink" x="0px" y="0px"
	 viewBox="0 0 91.6 93.2" enable-background="new 0 0 91.6 93.2" xml:space="preserve">
<g>
	<path fill="#72B1C8" d="M67.4,67.2h-1.7c-0.9,0-1.7,0.7-1.7,1.7c0,0.9,0.7,1.7,1.7,1.7h12.7c0.9,0,1.7-0.7,1.7-1.7
		c0-0.9-0.7-1.7-1.7-1.7h-1.7v-4.4h1.7c0.9,0,1.7-0.7,1.7-1.7c0-0.9-0.7-1.7-1.7-1.7H75c0,0,0,0,0,0c0,0,0,0,0,0H69c0,0,0,0,0,0
		c0,0,0,0,0,0H33.3c0.6-1,1-2.2,1-3.5c0-3.8-3.1-6.8-6.8-6.8c-3.3,0-6.1,2.4-6.7,5.6c-0.7-0.3-1.5-0.4-2.3-0.4
		c-3.8,0-6.8,3.1-6.8,6.8s3.1,6.8,6.8,6.8c0.8,0,1.6-0.1,2.3-0.4c0.6,3.2,3.4,5.6,6.7,5.6c3.8,0,6.8-3.1,6.8-6.8
		c0-1.3-0.4-2.5-1-3.5h34.1V67.2z M73.3,67.2h-2.7v-4.4h2.7V67.2z M27.4,52.4c1.9,0,3.5,1.6,3.5,3.5c0,1.9-1.6,3.5-3.5,3.5
		c0,0,0,0,0,0c0,0,0,0,0,0c-1.9,0-3.5-1.6-3.5-3.5C23.9,54,25.5,52.4,27.4,52.4z M14.9,61.1c0-1.9,1.6-3.5,3.5-3.5s3.5,1.6,3.5,3.5
		c0,1.9-1.6,3.5-3.5,3.5S14.9,63,14.9,61.1z M31,66.3c0,1.9-1.6,3.5-3.5,3.5s-3.5-1.6-3.5-3.5c0-1.9,1.6-3.5,3.5-3.5c0,0,0,0,0,0h0
		C29.4,62.8,31,64.3,31,66.3z"/>
	<path fill="#72B1C8" d="M91.6,39.4C91.6,39.4,91.6,39.4,91.6,39.4l0-20.9c0,0,0-0.1,0-0.1c0,0,0,0,0-0.1V9.8c0-5.4-4.4-9.8-9.8-9.8
		H9.8C4.4,0,0,4.4,0,9.8v8.6c0,0,0,0,0,0.1c0,0,0,0.1,0,0.1v20.9c0,0,0,0,0,0v35.2c0,0,0,0.1,0,0.1c0,0,0,0,0,0.1v8.6
		c0,5.4,4.4,9.8,9.8,9.8h72.1c5.4,0,9.8-4.4,9.8-9.8v-8.6c0,0,0,0,0,0c0,0,0-0.1,0-0.1V39.4z M9.8,3.3h72.1c3.6,0,6.5,2.9,6.5,6.5
		v1.5c-1.7-1.5-4-2.5-6.5-2.5H29.2c-0.9,0-1.7,0.7-1.7,1.7c0,0.9,0.7,1.7,1.7,1.7h52.6c3.6,0,6.5,2.9,6.5,6.5v19.2h-85V18.5
		c0-3.6,2.9-6.5,6.5-6.5h11.8c0.9,0,1.7-0.7,1.7-1.7c0-0.9-0.7-1.7-1.7-1.7H9.8c-2.5,0-4.7,0.9-6.5,2.5V9.8C3.3,6.2,6.2,3.3,9.8,3.3
		z M81.8,89.9H9.8c-3.6,0-6.5-2.9-6.5-6.5v-1.5c1.7,1.5,4,2.5,6.5,2.5h48c0.9,0,1.7-0.7,1.7-1.7c0-0.9-0.7-1.7-1.7-1.7h-48
		c-3.6,0-6.5-2.9-6.5-6.5V41.1h85v33.6c0,3.6-2.9,6.5-6.5,6.5H65.6c-0.9,0-1.7,0.7-1.7,1.7c0,0.9,0.7,1.7,1.7,1.7h16.2
		c2.5,0,4.7-0.9,6.5-2.5v1.5C88.3,87,85.4,89.9,81.8,89.9z"/>
</g>
</svg>
