<?xml version="1.0" encoding="utf-8"?>
<!-- Generator: Adobe Illustrator 18.0.0, SVG Export Plug-In . SVG Version: 6.00 Build 0)  -->
<!DOCTYPE svg PUBLIC "-//W3C//DTD SVG 1.1//EN" "http://www.w3.org/Graphics/SVG/1.1/DTD/svg11.dtd">
<svg version="1.1" id="Layer_1" xmlns="http://www.w3.org/2000/svg" xmlns:xlink="http://www.w3.org/1999/xlink" x="0px" y="0px"
	 viewBox="0 0 115.2 148.9" enable-background="new 0 0 115.2 148.9" xml:space="preserve">
<g>
	<path fill="#72B1C8" d="M35.2,18.2c1.4,3.6,4.9,6.1,8.8,6.1h27.4c3.8,0,7.3-2.4,8.7-6l3.5-9.4c0.8-1.7,0.7-3.7-0.3-5.3
		c-1-1.7-2.8-2.6-4.8-2.7c-2.2,0-4.2,1-5.6,2.7c-1.6,2-3.3,3.1-4.1,3.1c-1.5,0-2.5-0.9-4.2-3.1c-1.8-2.3-4.3-3.6-7-3.6
		c-2.6,0-5.2,1.3-7,3.5c-1.3,1.6-2.8,3.2-4.2,3.2c-0.7,0-2.7-1.2-4.4-3.4c-1.8-2.4-4.4-2.4-5.3-2.4c-2,0-3.8,1-4.8,2.7
		c-1,1.6-1.1,3.6-0.3,5.4L35.2,18.2z M35.8,5.9c0.2-0.3,0.6-0.5,1-0.5c1.1,0,1.4,0.3,1.7,0.6c1.9,2.4,5.1,5.2,8,5.2
		c3.3,0,5.8-2.4,7.7-4.8c0.9-1.1,2.2-1.8,3.5-1.8c1.3,0,2.5,0.6,3.4,1.9c1.5,1.9,3.8,4.8,7.7,4.8c3.5,0,6.6-3.3,7.7-4.8
		c0.5-0.6,1.3-1,2.1-1c0.4,0,0.7,0.2,0.9,0.5c0.2,0.3,0.2,0.7,0.1,1.1c0,0.1-0.1,0.1-0.1,0.2l-3.6,9.5c-0.7,1.8-2.5,3.1-4.4,3.1H44
		c-2,0-3.9-1.3-4.6-3.2l-3.6-9.4c0-0.1-0.1-0.1-0.1-0.2C35.6,6.6,35.6,6.2,35.8,5.9z"/>
	<path fill="#72B1C8" d="M115.2,109.9c-0.9-18.6-13-38.9-20.2-49.3c-7-10.2-19.4-25.4-23.7-25.4H44.1c-4.5,0-18,17.2-24.3,26.5
		C10.8,75,0,94.7,0,112.4c0,11.2,4.3,20,12.9,26.1c9.6,6.9,24.7,10.4,44.8,10.4c4.9,0,9.6-0.2,13.9-0.6c0,0,0,0,0.1,0
		C92.3,146.3,116.5,137.9,115.2,109.9z M110.4,116.6c-2,15.7-15.2,24.9-39.3,27.2c0,0,0,0-0.1,0c-4.2,0.4-8.7,0.6-13.4,0.6
		c-31.5,0-49.2-8.6-52.5-25.6c-2.5-12.6,3-30.3,15.5-50.1c10-15.9,21.2-27.7,23.8-29H71C76.3,42.2,114.2,86.2,110.4,116.6z"/>
	<path fill="#72B1C8" d="M42.9,27.4c-1.3,0-2.3,1-2.3,2.3c0,1.3,1,2.3,2.3,2.3h29.7c1.3,0,2.3-1,2.3-2.3c0-1.3-1-2.3-2.3-2.3H42.9z"
		/>
	<path fill="#72B1C8" d="M29.6,96.7c0,15.5,12.6,28,28,28c15.5,0,28-12.6,28-28c0-15.5-12.6-28-28-28C42.2,68.7,29.6,81.2,29.6,96.7
		z M81.1,96.7c0,13-10.5,23.5-23.5,23.5c-13,0-23.5-10.5-23.5-23.5c0-13,10.5-23.5,23.5-23.5C70.6,73.2,81.1,83.7,81.1,96.7z"/>
	<g>
		<path fill="#72B1C8" d="M48.5,104.2l2.3-0.8v-4.3h-2.3v-3.8h2.3v-2.4c0-2.2,0.6-4,1.8-5.2c1.2-1.2,3-1.9,5.4-1.9
			c3.4,0,5.4,1.5,6.8,3.5l-3.5,2.8c-1-1.3-1.9-2-3.2-2c-0.7,0-1.3,0.2-1.7,0.7c-0.5,0.5-0.8,1.3-0.8,2.2v2.3h6.9v3.8h-6.9v4.1h9.2v4
			H48.5V104.2z"/>
	</g>
</g>
</svg>
