<?xml version="1.0" encoding="utf-8"?>
<!-- Generator: Adobe Illustrator 18.0.0, SVG Export Plug-In . SVG Version: 6.00 Build 0)  -->
<!DOCTYPE svg PUBLIC "-//W3C//DTD SVG 1.1//EN" "http://www.w3.org/Graphics/SVG/1.1/DTD/svg11.dtd">
<svg version="1.1" id="Layer_1" xmlns="http://www.w3.org/2000/svg" xmlns:xlink="http://www.w3.org/1999/xlink" x="0px" y="0px"
	 viewBox="0 0 92.3 61" enable-background="new 0 0 92.3 61" xml:space="preserve">
<g>
	<g>
		<path fill="#FFFFFF" d="M53.4,61c1.1,0,2-0.1,2.8-0.8c0.5-0.5,0.8-1.2,0.8-2.1c0-1.2-0.3-1.9-1.3-5.2c-1-3.4-10.3-8.2-17.2-11
			v-2.7c0-0.4,0-0.7-0.3-0.9c-0.3-0.2-0.6-0.3-1-0.1l-1.1,0.4c-0.2-1-0.3-2.1-0.3-2.9c0.7-0.7,1.4-1.5,2.1-2.7
			c0.2-0.4,0.5-0.7,0.7-1.1c0.7-1.1,1.5-2.3,2.1-3.8c0.6-0.3,1.2-0.8,1.6-1.5c1.3-2.4,2.1-6.4,1.6-7.9c-0.2-0.6-0.7-1.1-1.3-1.3
			c0-7.7-3-13.5-8.2-15.6C27.8-1.9,23.4,1.1,22.3,2c-7.7,2.3-7.9,10-7.7,15.2c-0.7,0.2-1.2,0.7-1.4,1.4c-0.6,1.6,0.2,5.5,1.6,7.9
			c0.4,0.7,1,1.2,1.7,1.5c0.6,1.5,1.3,2.7,2.1,3.8c0.2,0.3,0.4,0.7,0.6,1c0.7,1.2,1.5,2.1,2.3,2.8c-0.1,0.7-0.4,1.8-0.6,2.8
			l-1.2-0.4c-0.4-0.1-0.9-0.1-1.2,0.1c-0.3,0.2-0.6,0.6-0.6,0.9v3.4l-0.3-1.1C13.7,43,2.3,48.4,1.1,52.8C0.3,56,0,57.6,0,57.6
			c0,0.1,0,0.2,0,0.2c0,0.9,0.3,1.7,0.8,2.2c1,0.9,2.4,0.9,4,0.9L53.4,61z M20.2,41.2c0,0.3,0.6,0.6,0.9,0.7c0.1,0,0.3,0,0.4,0
			c0.3,0,0.7-0.2,0.9-0.4l5.8,2.1c0.3,0.1,0.6,0.1,0.8,0l5.8-2.2c0.3,0.2,0.5,0.4,0.9,0.3c0.4-0.1,0.6-0.4,0.6-0.8V48l-7.6-1.9
			c-0.1,0-0.1,0-0.2,0c-0.1,0-0.3,0-0.4,0L20.2,48V41.2z M23.2,4.1c0.2,0,0.3-0.1,0.5-0.3c0.1-0.1,3.7-3.4,9.5-0.1
			c0,0,0.1,0,0.1,0.1c4.1,1.6,6.5,6.2,6.8,12.4c-7.7-0.4-14.4-5.8-15.1-7.1c-0.1-0.5-0.4-0.8-0.9-0.9c-0.5-0.1-1.1,0.2-1.3,0.7
			c0,0-1.8,4.3-5.9,5.8C17,9.9,18.2,5.5,23.2,4.1z M23.3,34.2c-0.8-0.5-1.5-1.3-2.2-2.5c-0.2-0.4-0.4-0.7-0.7-1.1
			c-0.8-1.2-1.5-2.3-2.1-3.9c-0.2-0.4-0.6-0.7-1-0.8c-0.1,0-0.4-0.2-0.6-0.5c-1.2-2.1-1.7-5.4-1.4-6c0,0,0.2-0.1,0.4-0.1
			c0.3,0,0.6-0.1,0.8-0.3c0.2-0.2,0.3-0.5,0.3-0.9c0-0.3,0-0.7,0-1c3.7-1.1,6-3.8,7.1-5.6c2.8,2.8,9.4,6.7,16.1,7
			c0,0.2,0.1,0.4,0.3,0.5c0.2,0.2,0.5,0.4,0.8,0.4c0.2,0,0.3,0,0.3,0c0.2,0.7-0.2,3.9-1.4,6.1c-0.2,0.3-0.5,0.5-0.6,0.5
			c-0.4,0.1-0.8,0.3-0.9,0.7c-0.6,1.6-1.3,2.7-2.1,3.9c-0.2,0.4-0.5,0.7-0.7,1.1c-0.7,1.1-1.3,1.9-2,2.4c-0.3,0.2-0.4,0.6-0.4,0.9
			c0,1,0.2,2.8,0.5,4.2l-5.5,2l-5.5-2c0.4-1.7,0.7-3.3,0.8-4.1C23.8,34.8,23.6,34.4,23.3,34.2z M54.6,58.5c-0.2,0.2-1.3,0.2-2.1,0.2
			c-0.4,0-0.7,0-1.1,0H29.3v-6.9c0-0.6-0.5-1.1-1.1-1.1c-0.6,0-1.1,0.5-1.1,1.1v6.9H5.6c-0.3,0-0.6,0-0.8,0c-0.9,0-2,0-2.3-0.3
			c-0.1-0.1-0.1-0.2-0.1-0.4c0.1-0.4,0.3-1.9,1-4.6c0.7-2.6,8.9-7.3,14.6-9.6v5.6c0,0.4,0.3,0.7,0.6,0.9c0.3,0.2,0.7,0.3,1.1,0.2
			l8.9-2.2l8.9,2.2c0.1,0,0.2,0,0.3,0c0.3,0,0.4-0.1,0.6-0.2c0.3-0.2,0.3-0.6,0.3-0.9v-5.1c9.2,3.7,14.5,7.4,15,9.1
			c1,3.2,1.1,3.7,1.1,4.6C54.6,58.3,54.6,58.5,54.6,58.5z"/>
		<path fill="#FFFFFF" d="M41.9,54.1h-4.6c-0.6,0-1.1,0.5-1.1,1.1c0,0.6,0.5,1.1,1.1,1.1h4.6c0.6,0,1.1-0.5,1.1-1.1
			C43.1,54.6,42.6,54.1,41.9,54.1z"/>
	</g>
	<path fill="#FFFFFF" d="M91.2,54c-0.9-2.9-8.7-7-14.6-9.3v-2.3c0-0.3,0-0.6-0.3-0.8c-0.3-0.2-0.5-0.2-0.8-0.1l-0.9,0.4
		c-0.1-0.9-0.2-1.8-0.3-2.5c0.6-0.6,1.2-1.3,1.8-2.3c0.2-0.3,0.4-0.6,0.6-0.9c0.6-1,1.2-1.9,1.8-3.3c0.5-0.2,1-0.7,1.3-1.2
		c1.1-2.1,1.8-5.4,1.3-6.7c-0.2-0.5-0.6-0.9-1.1-1.1c0-6.5-2.5-11.4-6.9-13.2c-5.5-3-9.2-0.5-10.1,0.2c-6.5,2-6.7,8.5-6.5,12.9
		c-0.6,0.2-1,0.6-1.2,1.2c-0.5,1.3,0.2,4.6,1.3,6.7c0.3,0.6,0.9,1.1,1.4,1.3c0.5,1.3,1.1,2.3,1.8,3.2c0.2,0.3,0.4,0.6,0.5,0.9
		c0.6,1,1.3,1.8,2,2.4c-0.1,0.6-0.3,1.6-0.5,2.4l-1-0.4c-0.3-0.1-0.8-0.1-1,0.1c-0.3,0.2-0.5,0.5-0.5,0.8v2.9l-0.2-0.9
		c-1,0.4-2.4,1-4.1,1.8l1.4,1.4c1-0.5,2-0.9,2.9-1.3v4.8c0,0.3,0.3,0.6,0.5,0.8c0.2,0.2,0.6,0.2,0.9,0.2l7.6-1.9l7.6,1.9
		c0.1,0,0.2,0,0.2,0c0.2,0,0.3-0.1,0.5-0.2c0.2-0.2,0.2-0.5,0.2-0.8v-4.3c7.8,3.2,12.3,6.3,12.7,7.7c0.8,2.7,0.9,3.1,0.9,3.9
		c0,0.3,0,0.4,0,0.4C90,59.1,89.1,59,88.5,59c-0.3,0-0.6,0-0.9,0H68.8v-5.9c0-0.5-0.4-1-1-1s-1,0.4-1,1V59h-7.6v1.9l30,0
		c0.9,0,1.7-0.1,2.3-0.7c0.4-0.4,0.7-1,0.7-1.8C92.3,57.4,92,56.9,91.2,54z M63.6,12.7c0.1,0,0.3-0.1,0.4-0.2
		c0.1-0.1,3.2-2.9,8.1-0.1c0,0,0.1,0,0.1,0.1c3.5,1.4,5.5,5.2,5.7,10.5c-6.6-0.4-12.2-4.9-12.8-6c-0.1-0.4-0.4-0.7-0.8-0.8
		c-0.5-0.1-0.9,0.2-1.1,0.6c0,0-1.5,3.6-5,4.9C58.4,17.6,59.4,13.9,63.6,12.7z M61.9,36.1c-0.2-0.3-0.4-0.6-0.6-0.9
		c-0.7-1.1-1.3-2-1.8-3.4c-0.1-0.4-0.5-0.6-0.9-0.6c-0.1,0-0.4-0.2-0.5-0.4c-1-1.8-1.4-4.6-1.2-5.1c0,0,0.1-0.1,0.4,0
		c0.3,0,0.5-0.1,0.7-0.3c0.2-0.2,0.3-0.5,0.3-0.7c0-0.3,0-0.6,0-0.9c3.2-0.9,5.1-3.2,6.1-4.8c2.3,2.4,8,5.7,13.7,5.9
		c0,0.2,0.1,0.3,0.2,0.4c0.2,0.2,0.4,0.3,0.7,0.3c0.2,0,0.3,0,0.3,0c0.2,0.6-0.2,3.3-1.2,5.2c-0.1,0.3-0.4,0.4-0.5,0.4
		c-0.4,0-0.7,0.3-0.8,0.6c-0.5,1.4-1.1,2.3-1.8,3.3c-0.2,0.3-0.4,0.6-0.6,0.9c-0.6,1-1.1,1.6-1.7,2.1c-0.2,0.2-0.4,0.5-0.4,0.8
		c0,0.9,0.2,2.3,0.4,3.6l-4.6,1.7l-4.6-1.7c0.3-1.4,0.6-2.8,0.7-3.5c0-0.3-0.1-0.6-0.4-0.8C63.1,37.8,62.5,37.1,61.9,36.1z M74.7,50
		l-6.4-1.6c-0.1,0-0.1,0-0.2,0c-0.1,0-0.3,0-0.3,0L61,50v-5.8c0,0.3,0.5,0.5,0.8,0.6c0.1,0,0.2,0,0.3,0c0.3,0,0.6-0.1,0.8-0.3
		l4.9,1.8c0.2,0.1,0.5,0.1,0.7,0l4.9-1.8c0.2,0.2,0.4,0.3,0.8,0.2c0.3-0.1,0.5-0.4,0.5-0.7V50z"/>
</g>
</svg>
