<?xml version="1.0" encoding="utf-8"?>
<!-- Generator: Adobe Illustrator 22.0.1, SVG Export Plug-In . SVG Version: 6.00 Build 0)  -->
<svg version="1.1" id="Layer_1" xmlns="http://www.w3.org/2000/svg" xmlns:xlink="http://www.w3.org/1999/xlink" x="0px" y="0px"
	 viewBox="0 0 528 157" style="enable-background:new 0 0 528 157;" xml:space="preserve">
<style type="text/css">
	.st0{fill:#FFFFFF;}
	.st1{fill:url(#SVGID_1_);}
</style>
<path class="st0" d="M145.6,31.6c0,3.7-2.8,6.5-6.4,6.5c-3.6,0-6.4-2.8-6.4-6.5c0-3.8,2.8-6.5,6.4-6.5
	C142.8,25,145.6,27.8,145.6,31.6z M144.7,46v50.5h-10.8V46H144.7z"/>
<path class="st0" d="M198.1,80.7l6.4,5.9c-5.7,6.9-13.1,10.3-21.8,10.3c-15.6,0-26.3-10.3-26.3-25.6c0-14.8,9.8-25.4,25.3-25.6
	c13.8-0.2,23,8.3,23.8,22l-36.7,11c2.5,5.9,7.7,9.5,14.5,9.5C188.9,88.1,194,85.6,198.1,80.7z M167.2,70.7L167.2,70.7l27.7-8.2
	c-2.4-5.7-6.6-8.1-12.6-8.1C173.1,54.4,167.2,60.1,167.2,70.7z"/>
<path class="st0" d="M227.7,96.9l-0.1-70.8h-10.8l0,70.8C220.6,96.9,224.1,96.9,227.7,96.9z"/>
<path class="st0" d="M291.3,26.6V97h-10.9v-8.6c-3.6,5.9-9.7,9.1-17.8,9.1c-14.5,0-24.2-10.5-24.2-25.9c0-15.2,9.8-25.5,24-25.5
	c8.2,0,14.2,3.3,17.9,9.2V26.6H291.3z M280.4,71.9c0-9.8-6.4-16.6-15.5-16.6c-9.1,0-15.5,6.9-15.6,16.6c0.1,9.6,6.4,16.4,15.6,16.4
	C274,88.4,280.4,81.5,280.4,71.9z"/>
<path class="st0" d="M344.9,81.2l6.4,5.9c-5.7,6.9-13.1,10.3-21.8,10.3c-15.6,0-26.3-10.3-26.3-25.6c0-14.8,9.8-25.4,25.3-25.6
	c13.8-0.2,23,8.3,23.8,22l-36.7,11c2.5,5.9,7.7,9.5,14.5,9.5C335.7,88.6,340.8,86.1,344.9,81.2z M314.1,71.2L314.1,71.2l27.7-8.2
	c-2.4-5.7-6.6-8.1-12.6-8.1C319.9,55,314.1,60.6,314.1,71.2z"/>
<path class="st0" d="M392.1,46.1v10.4c-10.2-0.6-16.6,5.4-17.5,14V97h-10.9V46.5h10.9v10.1C378,49.7,384.1,46.1,392.1,46.1z"/>
<path class="st0" d="M120.4,45.9h-13.7c-2.1,5.6-4.1,11.3-6.1,17c-1.9,5.5-3.8,11.1-5.8,16.6c-1.5,4.1-3.2,8.1-4.9,12.1
	c-1.2,2.7-2.4,5.3-3.7,7.9c-1.3,2.5-2.4,5.1-4.3,7.3c-0.8,0.9-1.7,1.8-2.6,2.5c-1.9,1.5-4.1,2.6-6.4,3.3c-1.1,0.3-2.2,0.5-3.3,0.5
	c-0.9,0-1.9,0.2-2.2,1.2c-0.1,0.3,1,1.1,2,1.5c5.1,2.5,11.2,2.2,16.5,0c8.4-3.5,11.3-11,15.1-19.7C101.9,93.8,120.4,45.9,120.4,45.9
	z"/>
<path class="st0" d="M411.2,59.8c0-3.6,3.1-5,7.4-5c3.3,0,6.6,0.9,9.6,2c0.9,0.3,1.7,0.7,2.5,1.1c0.8,0.4,1.5,0.9,2.2,1.4
	c0.7,0.6,1.3,1.3,1.9,2.1c0.1,0.1,0.2,0.3,0.4,0.3c0.3,0.1,0.6-0.1,0.7-0.4c0.5-0.7,0.9-1.4,1.1-2.2c0.9-3-0.1-6.1-2.3-8.2
	c-0.2-0.2-0.5-0.4-0.7-0.6c-2.5-1.9-5.6-3.1-8.7-3.7c-1.9-0.4-3.8-0.6-5.8-0.6c-9.7,0-18.6,4.4-18.6,14.6
	c-0.1,18.2,26.5,12.4,26.5,22.8c0,3.8-3.6,5.4-8.3,5.4c-5.5,0-12.5-2.4-16.9-6.3l-3.9,7.8c5,4.6,12.9,7,20.3,7
	c10.2,0,19.4-4.7,19.4-15C438.1,64.1,411.2,69.1,411.2,59.8z"/>
<radialGradient id="SVGID_1_" cx="-1624.1482" cy="-119.1175" r="36.4186" gradientTransform="matrix(0.7635 -0.6855 0.6728 0.7737 1390.093 -969.0868)" gradientUnits="userSpaceOnUse">
	<stop  offset="3.350694e-03" style="stop-color:#86D5CC"/>
	<stop  offset="1" style="stop-color:#44938C"/>
</radialGradient>
<path class="st1" d="M88,84.5c0.4-0.1,0.7-0.4,0.7-0.8c0-0.4-0.3-0.8-0.6-1.2c-1.5-2-2.6-4.4-3.2-6.8c-0.6-2-0.7-4-0.9-6.1
	c0-0.2-0.1-0.4-0.1-0.6c-1-6.3-1.9-12.8-4.9-18.5C75.1,43.4,68.3,39.2,60.8,37c-0.5-0.2-1.1-0.3-1.6-0.5c-0.5,0-1.1-0.1-1.4,0.4
	c-0.1,0.2-0.1,0.5-0.1,0.8c0.2,1.1,1.1,1.9,1.5,2.9c0.5,1.2,0.9,2.4,1.3,3.6c0.7,2.6,1.1,5.3,1.6,8c1.1,6.3,2.3,12.8,4.9,18.7
	c2.9,6.4,6.9,9.3,13.3,12C81.1,83.3,86.1,85,88,84.5z"/>
<g>
	<path class="st0" d="M130.4,130.6v-11.9h2v11.9H130.4z"/>
	<path class="st0" d="M150.9,118.8v11.9h-1.8l-6.9-8.2h0v8.2h-2v-11.9h1.8l6.9,8.2h0v-8.2H150.9z"/>
	<path class="st0" d="M169.8,118.8l-5.5,11.9h-1.9l-5.5-11.9h2.3l4.1,9.3h0.1l4.1-9.3H169.8z"/>
	<path class="st0" d="M182.5,125.3h-4.6v3.5h8v1.8h-10.1v-11.9h9.6v1.8h-7.6v2.9h4.6V125.3z"/>
	<path class="st0" d="M200.9,121.5c-0.7-0.6-2.1-1.4-4.3-1.4c-1.4,0-2.7,0.5-2.7,1.7c0,1.3,1.8,1.3,3.6,1.5c2.1,0.1,5.5,0.4,5.5,3.7
		c0,2.9-2.4,4-5.2,4c-3.1,0-5.2-1.3-6.5-2.5l1.2-1.4c1,0.9,2.6,2.1,5.3,2.1c1.8,0,3.2-0.6,3.2-1.9c0-1.5-1.4-1.8-3.4-2
		c-2.6-0.2-5.6-0.4-5.6-3.3c0-2.8,2.6-3.7,4.8-3.7c2.5,0,4.5,1,5.5,1.7L200.9,121.5z"/>
	<path class="st0" d="M208,118.8h11.4v1.8h-4.7v10.1h-2v-10.1H208V118.8z"/>
	<path class="st0" d="M224,128.3c0.8,0,1.5,0.6,1.5,1.3c0,0.7-0.6,1.3-1.5,1.3s-1.4-0.6-1.4-1.3C222.6,128.9,223.2,128.3,224,128.3z
		"/>
	<path class="st0" d="M249.6,121.8c-1-1-2.7-1.6-4.1-1.6c-2.6,0-4.4,2-4.4,4.5c0,2.3,1.6,4.5,4.6,4.5c1.2,0,2.7-0.4,3.5-1v-2.4h-3.7
		V124h5.6v5.2c-1.5,1.1-3.6,1.8-5.5,1.8c-3.8,0-6.6-2.8-6.6-6.3c0-3.5,2.8-6.3,6.5-6.3c1.9,0,3.9,0.8,5.5,2.1L249.6,121.8z"/>
	<path class="st0" d="M258.3,130.6v-11.9h6.5c1.6,0,2.7,0.4,3.4,1.3c0.6,0.6,0.9,1.5,0.9,2.4c0,1.6-1.1,2.8-2.6,3.4l2.8,4.8h-2.3
		l-2.5-4.6h-4.2v4.6H258.3z M260.4,120.6v3.7h4.9c1.1,0,2-0.8,2-1.9c0-0.5-0.2-0.9-0.5-1.2c-0.6-0.6-1.2-0.6-1.9-0.6H260.4z"/>
	<path class="st0" d="M281.8,118.4c3.7,0,6.7,2.8,6.7,6.3c0,3.5-3,6.3-6.7,6.3s-6.7-2.8-6.7-6.3
		C275.1,121.2,278.1,118.4,281.8,118.4z M281.8,129.2c2.6,0,4.6-2,4.6-4.5c0-2.5-2-4.5-4.6-4.5c-2.5,0-4.5,2-4.5,4.5
		C277.3,127.1,279.3,129.2,281.8,129.2z"/>
	<path class="st0" d="M296,118.8l2.7,8.7h0.1l2.8-8.7h1.5l2.8,8.7h0.1l2.7-8.7h2.1l-3.8,11.9h-2l-2.6-7.9h-0.1l-2.6,7.9h-2
		l-3.8-11.9H296z"/>
	<path class="st0" d="M316.1,128.3c0.8,0,1.5,0.6,1.5,1.3c0,0.7-0.6,1.3-1.5,1.3c-0.8,0-1.4-0.6-1.4-1.3
		C314.7,128.9,315.3,128.3,316.1,128.3z"/>
	<path class="st0" d="M341.2,118.8l-4.9,6.4v5.5h-2v-5.5l-4.9-6.4h2.6l3.4,4.6l3.4-4.6H341.2z"/>
	<path class="st0" d="M347.2,130.6v-11.9h2v11.9H347.2z"/>
	<path class="st0" d="M363.6,125.3H359v3.5h8v1.8H357v-11.9h9.6v1.8H359v2.9h4.6V125.3z"/>
	<path class="st0" d="M375.6,118.8v10.1h7.3v1.8h-9.3v-11.9H375.6z"/>
	<path class="st0" d="M389,130.6v-11.9h5.7c2.1,0,3.3,0.6,4.4,1.6c1.1,1.1,1.6,2.6,1.6,4.3c0,1.8-0.6,3.4-1.7,4.5
		c-1,0.9-2.1,1.5-4.2,1.5H389z M394.6,128.8c1.5,0,2-0.3,2.7-0.9c0.8-0.8,1.2-1.9,1.2-3.2c0-1.2-0.4-2.3-1.1-3.1
		c-0.7-0.6-1.3-1-2.8-1H391v8.2H394.6z"/>
</g>
<g>
	<path class="st0" d="M448.6,45.1c0-4.1,0-8.2,0-12.3c0.1,0,0.1,0,0.2,0c1.1,0,2.3,0,3.4,0c0.2,0,0.2,0.1,0.3,0.2
		c0.6,1.8,1.2,3.7,1.9,5.5c0.3,0.8,0.6,1.7,0.9,2.5c0,0.1,0,0.1,0.1,0.2c0.9-2.9,1.8-5.7,2.7-8.5c1.3,0,2.5,0,3.8,0
		c0,4.1,0,8.2,0,12.3c-0.8,0-1.7,0-2.5,0c0-2.9,0-5.7,0-8.6c0,0,0,0-0.1,0c-0.1,0.3-0.2,0.6-0.3,0.9c-0.7,2-1.4,4-2.1,6.1
		c-0.2,0.5-0.4,1-0.5,1.5c0,0.1-0.1,0.2-0.2,0.2c-0.6,0-1.2,0-1.8,0c-0.1,0-0.2-0.1-0.2-0.1c-0.6-1.7-1.2-3.3-1.8-5
		c-0.4-1.1-0.8-2.2-1.1-3.2c0,0,0,0-0.1-0.1c0,2.8,0,5.6,0,8.5C450.3,45.1,449.5,45.1,448.6,45.1z"/>
	<path class="st0" d="M440.8,45.1c0-3.3,0-6.7,0-10c-1.2,0-2.4,0-3.7,0c0-0.8,0-1.5,0-2.3c3.4,0,6.7,0,10.1,0c0,0.8,0,1.5,0,2.3
		c-1.2,0-2.4,0-3.7,0c0,3.3,0,6.7,0,10C442.6,45.1,441.7,45.1,440.8,45.1z"/>
</g>
</svg>
