<?xml version="1.0" encoding="utf-8"?>
<!-- Generator: Adobe Illustrator 18.0.0, SVG Export Plug-In . SVG Version: 6.00 Build 0)  -->
<!DOCTYPE svg PUBLIC "-//W3C//DTD SVG 1.1//EN" "http://www.w3.org/Graphics/SVG/1.1/DTD/svg11.dtd">
<svg version="1.1" id="Layer_1" xmlns="http://www.w3.org/2000/svg" xmlns:xlink="http://www.w3.org/1999/xlink" x="0px" y="0px"
	 viewBox="0 0 61.9 55.6" enable-background="new 0 0 61.9 55.6" xml:space="preserve">
<g>
	<path fill="#FFFFFF" d="M9.2,50.4c2.5,0,4.5-2,4.5-4.5c0-2.5-2-4.5-4.5-4.5c-2.5,0-4.5,2-4.5,4.5C4.7,48.4,6.7,50.4,9.2,50.4
		 M9.2,43.1c1.5,0,2.8,1.2,2.8,2.8c0,1.5-1.2,2.8-2.8,2.8c-1.5,0-2.8-1.2-2.8-2.8C6.4,44.3,7.7,43.1,9.2,43.1"/>
	<rect x="5.5" y="16.5" fill="#FFFFFF" width="7.3" height="1.8"/>
	<rect x="5.5" y="12.5" fill="#FFFFFF" width="7.3" height="1.8"/>
	<path fill="#FFFFFF" d="M25.2,50.4c2.5,0,4.5-2,4.5-4.5c0-2.5-2-4.5-4.5-4.5c-2.5,0-4.5,2-4.5,4.5C20.6,48.4,22.7,50.4,25.2,50.4
		 M25.2,43.1c1.5,0,2.8,1.2,2.8,2.8c0,1.5-1.2,2.8-2.8,2.8c-1.5,0-2.8-1.2-2.8-2.8C22.4,44.3,23.6,43.1,25.2,43.1"/>
	<rect x="21.5" y="16.5" fill="#FFFFFF" width="7.3" height="1.8"/>
	<rect x="21.5" y="12.5" fill="#FFFFFF" width="7.3" height="1.8"/>
	<path fill="#FFFFFF" d="M34.3,3.6V2.5H18h-1.8H0v52.9h16.3H18h16.3V11.8l10,43.7l17.6-4L50.2,0L34.3,3.6z M16.3,53.6H1.7V4.3h14.5
		V53.6z M32.6,53.6H18V4.3h14.5V53.6z M45.6,53.5l-11-48.1l14.2-3.2l11,48.1L45.6,53.5z"/>
	<path fill="#FFFFFF" d="M47.3,41.8c-0.6,1-0.9,2.2-0.6,3.4c0.5,2.1,2.3,3.5,4.4,3.5c0.3,0,0.7,0,1-0.1c1.2-0.3,2.2-1,2.8-2
		c0.6-1,0.9-2.2,0.6-3.4c-0.5-2.1-2.3-3.5-4.4-3.5c-0.3,0-0.7,0-1,0.1C49,40.1,48,40.8,47.3,41.8 M48.8,42.7c0.4-0.6,1-1.1,1.7-1.2
		c0.2,0,0.4-0.1,0.6-0.1c1.3,0,2.4,0.9,2.7,2.2c0.2,0.7,0,1.5-0.4,2.1c-0.4,0.6-1,1.1-1.7,1.2c-1.5,0.3-3-0.6-3.3-2.1
		C48.3,44.1,48.4,43.4,48.8,42.7"/>
	<path fill="#FFFFFF" d="M48.2,14.8c0,0-1.6,0.4-3.6,0.8l-3.6,0.8l0.4,1.7l3.6-0.8c2-0.4,3.6-0.8,3.6-0.8L48.2,14.8z"/>
	<path fill="#FFFFFF" d="M47.7,12.6l-0.4-1.7l-3.6,0.8c-2,0.4-3.6,0.8-3.6,0.8l0.4,1.7c0,0,1.6-0.4,3.6-0.8L47.7,12.6z"/>
</g>
</svg>
