<?xml version="1.0" encoding="utf-8"?>
<!-- Generator: Adobe Illustrator 18.0.0, SVG Export Plug-In . SVG Version: 6.00 Build 0)  -->
<!DOCTYPE svg PUBLIC "-//W3C//DTD SVG 1.1//EN" "http://www.w3.org/Graphics/SVG/1.1/DTD/svg11.dtd">
<svg version="1.1" id="Layer_1" xmlns="http://www.w3.org/2000/svg" xmlns:xlink="http://www.w3.org/1999/xlink" x="0px" y="0px"
	 viewBox="0 0 178 231.6" enable-background="new 0 0 178 231.6" xml:space="preserve">
<g>
	<path fill="none" stroke="#FFFFFF" stroke-width="4" stroke-miterlimit="10" d="M2,77.6c0-5.1,2.9-9.2,12.4-9.2s41.2,0,61.8-0.1
		c1.6,0,2.2,0.5,2.3,2.2c0.1,2.7,1.8,6.4,0.6,7.7c-1.5,1.8-5.2,0.6-8,0.6c-18,0-36,0-54,0c-4.5,0-4.6,0.1-4.6,4.5
		c0,16,0,31.9-0.1,47.9c0,2.2,0.4,2.9,2.8,2.8c8.9-0.5,17.3,1.6,25,6.1c1.3,0.7,2.1,0.8,3.4,0c12.6-7.5,27-1.2,30.4,13.1
		c0.2,0.9-0.1,2.3,1.8,1.9c8.2-1.7,15.6,0.2,22.2,5.2c0.1,0.1,0.4,0,0.7,0c0.6-0.9,0.3-1.9,0.3-2.8c0-14.7,0.1-29.3,0-44
		c0-2.7-0.7-5.4-1.3-8.1c-0.4-1.7-1.4-2.2-3.4-1.5c-5.4,2-11.1,3.6-16.5,5.6c-2.5,0.9-2.8,0.2-2.9-2.2c-0.1-2.8,0.6-5.1,2.4-7.4
		c3.8-4.7,7.2-9.6,10.9-14.4c0.9-1.2,1.1-2.3,0.8-3.8c-4.7-22.3-3.3-44.1,5.7-65.2c1.9-4.6,4.5-8.8,7.2-13c1.3-2,2.1-2.1,3.5,0
		c7.3,10.8,11.7,22.7,13.8,35.5c2.4,14.4,2.2,28.7-1.1,43c-0.3,1.5,0.1,2.4,0.9,3.5c3.5,4.5,6.6,9.3,10.3,13.6
		c2.8,3.3,3.3,6.8,2.5,11.1c-6.1-2-12-4-18.1-5.9c-1.1-0.3-2.5-1.7-3.5-0.4c-0.9,1.3-2.3,6.8-2.3,8.4c0.2,15.6,0.1,31.3,0.1,47.1
		c4.6-1.5,9.1-2.7,13.9-2c3.8,0.5,7.4,1.6,10.6,3.7c1.5,1,2.2,1.2,3-0.7c1.7-4,4.3-7.5,7.5-10.4c1.2-1.1,1.1-2,0.7-3.4
		c-4.6-14.8,3.9-28.3,19.3-30.7c2-0.3,2.6-0.8,2.6-2.9c-0.1-10.1-0.1-20.3,0-30.4c0-3.2-1.2-4.1-4.2-4.1c-10.5,0.1-20.9,0-31.4,0.1
		c-2.1,0-2.4-0.3-2.3-2.7c0.1-3-1-5.3,0.8-6.7c1.9-1.5,5.8-1.1,8.5-1.1c7.7-0.1,21.5-0.1,28.1-0.1s10.8,2.4,10.8,10s0,111.3,0,117.1
		c0,5.8-7.3,8.7-14.2,8.6c-16.8-0.3-33.6,0-50.4-0.2c-2.8,0-3.1,1-2.5,3.2c1.3,4.5,4,7.8,8.1,10c3,1.6,6.2,2.3,9.5,3
		c2.3,0.5,4,1.7,4.3,4.2c0.3,2.4-0.5,4.2-3,5c-0.3,0.2-0.6,0.4-0.9,0.5c-25.2,0-50.5,0-75.7,0c-0.3-0.6-0.8-0.7-1.3-0.6
		c-2.5-0.8-3.2-2.8-2.8-5.1c0.3-2.3,1.8-3.6,4.1-4c1.3-0.2,2.6-0.4,3.8-0.7c6.5-1.7,11.7-4.8,14-11.6c1.2-3.6,1-3.8-2.6-3.8
		c-16.7,0-33.4-0.2-50,0.1C9.3,204,2,200.2,2,195.3C2,190.4,2,82.7,2,77.6z M88.9,197.4c3.4,0.1,6.2-2.5,6.3-5.9
		c0.1-3.5-2.8-6.4-6.2-6.4c-3.3,0-6.1,2.8-6.1,6.2C82.8,194.7,85.5,197.4,88.9,197.4z"/>
	<path fill="none" stroke="#FFFFFF" stroke-width="4" stroke-miterlimit="10" d="M49.9,229.6c0-0.2,0-0.4-0.1-0.6
		c0.6,0,1.1,0.1,1.3,0.6C50.7,229.6,50.3,229.6,49.9,229.6z"/>
	<path fill="none" stroke="#FFFFFF" stroke-width="4" stroke-miterlimit="10" d="M127.7,229c0,0.2-0.1,0.4-0.3,0.5
		c-0.2,0-0.4,0-0.6,0C127.1,229.4,127.4,229.2,127.7,229z"/>
</g>
</svg>
