<?xml version="1.0" encoding="utf-8"?>
<!-- Generator: Adobe Illustrator 18.0.0, SVG Export Plug-In . SVG Version: 6.00 Build 0)  -->
<!DOCTYPE svg PUBLIC "-//W3C//DTD SVG 1.1//EN" "http://www.w3.org/Graphics/SVG/1.1/DTD/svg11.dtd">
<svg version="1.1" id="Layer_1" xmlns="http://www.w3.org/2000/svg" xmlns:xlink="http://www.w3.org/1999/xlink" x="0px" y="0px"
	 viewBox="0 0 121.5 137.9" enable-background="new 0 0 121.5 137.9" xml:space="preserve">
<g>
	<polygon fill="none" stroke="#FFFFFF" stroke-width="2" stroke-miterlimit="10" points="14.1,78.9 15.8,80.4 15.8,80.5 15.8,66.2 
		8.3,73.4 	"/>
	<circle fill="none" stroke="#FFFFFF" stroke-width="2" stroke-miterlimit="10" cx="26.2" cy="43.1" r="9"/>
	<path fill="none" stroke="#FFFFFF" stroke-width="2" stroke-miterlimit="10" d="M60.7,57.6c-0.7-0.6-1.5-0.8-2.3-0.8
		c-0.9,0-1.9,0.4-2.5,1.2l-9.4,10.9l-0.4,0.5l-1.3-1.8l-7.1-9.4c-0.3-0.5-0.8-0.8-1.3-1c-0.4-0.2-0.7-0.3-1.1-0.3
		c-0.2,0-0.4,0-0.6,0c-0.4,0-0.7,0-1.1,0c-1.1,0-2.1-0.1-3.1-0.1h0c-4.5,0-10.3,0-12,0c-0.2,0-0.3,0-0.4,0c-0.1,0-0.2,0-0.3,0
		c-0.6,0.1-1.1,0.4-1.6,0.8l-0.4,0.4l-8.7,8.4l-5.2,5C1.3,71.8,1,72.6,1,73.4c0,0.8,0.3,1.6,0.9,2.2L7,80.3l7.2,6.8l0.7,0.6
		c0.3,0.3,0.6,0.5,1,0.6c0,14.2,0,28.3,0,42.5c0,0.9,0,1.8,0.2,2.6c0.4,1.8,1.7,2.7,3.3,3.4h2.4c2.8-1,3.7-3,3.7-5.9
		c-0.1-11.3,0-22.7,0-34v-1.5H27V97c0,11.3,0.1,22.6,0,33.9c0,2.9,0.8,5,3.7,6H33c2.8-1,3.6-3.1,3.6-5.9c0-8.8,0-17.7,0-26.5V93.3
		v-22l0,0v-3.2l0.9,1.2l0.4,0.5l5.3,7.1c0.3,0.3,0.6,0.6,0.9,0.8c0.2,0.2,0.5,0.3,0.8,0.4c0.3,0.1,0.6,0.2,0.9,0.2c0,0,0.1,0,0.1,0
		c1,0,1.9-0.4,2.6-1.2l12.6-14.6C62.3,61,62.1,58.8,60.7,57.6z M15.8,80.5L15.8,80.5l-1.7-1.6l-5.8-5.5l7.5-7.2V80.5z"/>
	<circle fill="none" stroke="#FFFFFF" stroke-width="2" stroke-miterlimit="10" cx="79.7" cy="53.5" r="8"/>
	<path fill="none" stroke="#FFFFFF" stroke-width="2" stroke-miterlimit="10" d="M96.4,72.5c-1-4.2-3.7-6.8-7.6-7.5c0,0,0,0-0.1,0
		l0,0v0c-1.7,0-15.2,0-16.3,0c-0.7,0-1.3,0.1-1.9,0.2c-4,0.7-6.7,3.3-7.7,7.5c0,0.1-0.2,17-0.2,25.3c0.5,0.9,1.1,1.8,2.3,2.1
		c2.2,0.5,3.9-0.7,4.1-2.9c0.1-0.5,0-1,0-1.5c0-6,0-11.9,0-17.9v-1.2h1.5V78c0,17.8,0,35.7,0,53.5c0,0.8,0,1.6,0.2,2.3
		c0.3,1.6,1.5,2.4,2.9,3h2.1c2.5-0.9,3.3-2.7,3.3-5.2c-0.1-10.1,0-20.2,0-30.3v-1.3h1.5v1.3c0,10,0,20.1,0,30.1
		c0,2.6,0.7,4.4,3.3,5.4h2.1c2.5-0.9,3.2-2.8,3.2-5.3c0-7.9,0-15.7,0-23.6v-9.9V76.4h1.2v1.2c0,6,0,11.9,0,17.9c0,0.5,0,1,0,1.5
		c0.2,2.2,2,3.4,4.1,2.9c1.1-0.3,1.7-1.2,2.3-2.1C96.6,89.5,96.4,72.7,96.4,72.5z"/>
	<path fill="none" stroke="#FFFFFF" stroke-width="2" stroke-miterlimit="10" d="M44.5,42.8c0.1,1.2,0,3.3-1.4,6.2
		c0,0,3.5-1.2,5.5-6h17.5c3.5,0,6.4-2.9,6.4-6.4v-8c0-3.5-2.9-6.4-6.4-6.4H46c-3.5,0-6.4,2.9-6.4,6.4v8
		C39.6,39.6,41.7,42.1,44.5,42.8z"/>
	<path fill="#FFFFFF" d="M118.9,5.3c-1.8-2.6-4.4-4.4-7.2-5.3c-0.7-0.2-1.3,0.7-0.8,1.3c0.1,0.1,0.2,0.3,0.3,0.4
		c4.8,6.1,3.7,14.9-2.4,19.7c-2.3,1.8-4.9,2.7-7.6,2.9c-0.8,0.1-1,1.1-0.3,1.5c4.9,2.6,11.2,2.1,15.7-1.9
		C122.1,19.2,123,11.1,118.9,5.3"/>
	<path fill="#FFFFFF" d="M45.6,26.9h20.8c0.6,0,1.1,0.5,1.1,1.1s-0.5,1.1-1.1,1.1H45.6c-0.6,0-1.1-0.5-1.1-1.1S45,26.9,45.6,26.9"/>
	<path fill="#FFFFFF" d="M45.6,31.6h20.8c0.6,0,1.1,0.5,1.1,1.1s-0.5,1.1-1.1,1.1H45.6c-0.6,0-1.1-0.5-1.1-1.1S45,31.6,45.6,31.6"/>
	<path fill="#FFFFFF" d="M45.6,36.4h20.8c0.6,0,1.1,0.5,1.1,1.1s-0.5,1.1-1.1,1.1H45.6c-0.6,0-1.1-0.5-1.1-1.1S45,36.4,45.6,36.4"/>
</g>
</svg>
