<?xml version="1.0" encoding="utf-8"?>
<!-- Generator: Adobe Illustrator 18.0.0, SVG Export Plug-In . SVG Version: 6.00 Build 0)  -->
<!DOCTYPE svg PUBLIC "-//W3C//DTD SVG 1.1//EN" "http://www.w3.org/Graphics/SVG/1.1/DTD/svg11.dtd">
<svg version="1.1" id="Layer_1" xmlns="http://www.w3.org/2000/svg" xmlns:xlink="http://www.w3.org/1999/xlink" x="0px" y="0px"
	 viewBox="0 0 72 96.4" enable-background="new 0 0 72 96.4" xml:space="preserve">
<path fill="none" stroke="#FFFFFF" stroke-width="2" stroke-miterlimit="10" d="M50.7,10.7C50.7,5.4,55,1,60.4,1
	c5.4,0,9.7,4.4,9.7,9.7c0,5.4-4.4,9.7-9.7,9.7C55,20.5,50.7,16.1,50.7,10.7z M11.6,20.5c5.4,0,9.7-4.4,9.7-9.7C21.3,5.4,17,1,11.6,1
	c-5.4,0-9.7,4.4-9.7,9.7C1.9,16.1,6.2,20.5,11.6,20.5z M37.6,43.3c-5.9-2.4-9.9-5.3-12.6-7.8c-1.7-1.6-3-3.6-3.9-5.8
	c-1.8-4.1-5.3-6.9-9.4-6.9C5.8,22.8,1,28.6,1,35.8v9.9v14.7v30c0,2.8,2.2,5,5,5c2.8,0,5-2.2,5-5v-30h1.2v30c0,2.8,2.2,5,5,5
	c2.8,0,5-2.2,5-5v-30V45.7v-1.8c3.1,2.4,7.1,4.9,12.2,6.9c0.5,0.2,1,0.3,1.5,0.3c1.6,0,3.1-1,3.8-2.5C40.6,46.6,39.6,44.2,37.6,43.3
	z M71,35.8v20v4.7v30c0,2.8-2.2,5-5,5s-5-2.2-5-5v-30h-1.2v30c0,2.8-2.2,5-5,5s-5-2.2-5-5v-30v-4.7V44.6c-2.1,1.8-4.5,3.4-7.3,4.6
	c0.5-1.6,0.4-3.2-0.2-4.7c-0.5-1.3-1.4-2.3-2.5-3.1c2.9-1.5,5.3-3.5,7.2-5.5c1.7-1.9,3-4,4.1-6.4c1.8-4,5.3-6.7,9.3-6.7
	C66.3,22.8,71,28.6,71,35.8z"/>
</svg>
