<?xml version="1.0" encoding="utf-8"?>
<!-- Generator: Adobe Illustrator 18.0.0, SVG Export Plug-In . SVG Version: 6.00 Build 0)  -->
<!DOCTYPE svg PUBLIC "-//W3C//DTD SVG 1.1//EN" "http://www.w3.org/Graphics/SVG/1.1/DTD/svg11.dtd">
<svg version="1.1" id="Layer_1" xmlns="http://www.w3.org/2000/svg" xmlns:xlink="http://www.w3.org/1999/xlink" x="0px" y="0px"
	 viewBox="0 0 41.8 90.2" enable-background="new 0 0 41.8 90.2" xml:space="preserve">
<g>
	<g>
		<path fill="none" stroke="#FFFFFF" stroke-miterlimit="10" d="M14.4,38.3c0-3.6,2.9-6.5,6.5-6.5s6.5,2.9,6.5,6.5
			c0,3.6-2.9,6.5-6.5,6.5S14.4,41.9,14.4,38.3z M41.3,31C38.7,45.5,30,50.2,27.7,51.2v23.3h0v12c0,1.6-1.1,3-2.7,3.1
			c-1.8,0.2-3.3-1.2-3.3-3V69.5c0-0.4-0.4-0.8-0.8-0.8s-0.8,0.4-0.8,0.8v17.1c0,1.6-1.1,3-2.7,3.1c-1.8,0.2-3.3-1.2-3.3-3V72.1v-1.7
			v-2.9v-2.8v-6.2v-3.1v-4c-2.3-1-11-5.8-13.6-20.2c-0.3-1.5,0.8-3,2.5-3.1c1.4-0.1,2.6,0.9,2.8,2.3C6.5,34,7.7,37,9,39.2
			c2.4,4.2,6.9,6.8,11.8,6.8h0H21l0,0c4.9,0,9.4-2.6,11.8-6.8c1.3-2.3,2.5-5.2,3.1-9c0.2-1.4,1.5-2.4,2.8-2.3
			C40.4,28,41.5,29.5,41.3,31z M20.6,53.4"/>
		<g>
			<path fill="#FFFFFF" d="M21.8,18.6h-1.8L18.8,2.4C18.6,1.1,19.6,0,20.9,0h0c1.3,0,2.3,1.1,2.1,2.4L21.8,18.6z"/>
			<circle fill="#FFFFFF" cx="20.9" cy="23.2" r="2.1"/>
		</g>
	</g>
</g>
</svg>
