<?xml version="1.0" encoding="utf-8"?>
<!-- Generator: Adobe Illustrator 18.0.0, SVG Export Plug-In . SVG Version: 6.00 Build 0)  -->
<!DOCTYPE svg PUBLIC "-//W3C//DTD SVG 1.1//EN" "http://www.w3.org/Graphics/SVG/1.1/DTD/svg11.dtd">
<svg version="1.1" id="Layer_1" xmlns="http://www.w3.org/2000/svg" xmlns:xlink="http://www.w3.org/1999/xlink" x="0px" y="0px"
	 viewBox="0 0 138.7 99.4" enable-background="new 0 0 138.7 99.4" xml:space="preserve">
<g>
	<g>
		<circle fill="none" stroke="#FFFFFF" stroke-width="2" stroke-miterlimit="10" cx="24.7" cy="31.6" r="6"/>
		<path fill="none" stroke="#FFFFFF" stroke-width="2" stroke-miterlimit="10" d="M1.8,41.2c0.4-0.4,1-0.6,1.5-0.5
			c0.6,0,1.2,0.3,1.7,0.8l6.2,7.3l0.3,0.3l0.9-1.2l4.7-6.3c0.2-0.3,0.5-0.5,0.8-0.7c0.2-0.1,0.5-0.2,0.8-0.2c0.1,0,0.2,0,0.4,0
			c0.2,0,0.5,0,0.7,0c0.7,0,1.4-0.1,2.1-0.1h0c3,0,6.8,0,8,0c0.1,0,0.2,0,0.3,0c0.1,0,0.1,0,0.2,0c0.4,0.1,0.8,0.2,1.1,0.5l0.3,0.2
			l5.8,5.5l3.4,3.3c0.4,0.4,0.6,0.9,0.6,1.4c0,0.5-0.2,1.1-0.6,1.4l-3.4,3.2l-4.7,4.5l-0.5,0.4c-0.2,0.2-0.4,0.3-0.6,0.4
			c0,9.4,0,18.8,0,28.2c0,0.6,0,1.2-0.1,1.7c-0.2,1.2-1.1,1.8-2.2,2.2c-0.5,0-1.1,0-1.6,0c-1.9-0.6-2.5-2-2.5-3.9
			c0.1-7.5,0-15.1,0-22.6c0-0.3,0-0.6,0-1c-0.4,0-0.7,0-1.1,0c0,0.3,0,0.7,0,1c0,7.5,0,15,0,22.5c0,1.9-0.6,3.3-2.4,4
			c-0.5,0-1.1,0-1.6,0c-1.9-0.7-2.4-2.1-2.4-3.9c0-5.9,0-11.7,0-17.6v-7.4V50.3l0,0v-2.1L17.2,49L17,49.3L13.5,54
			c-0.2,0.2-0.4,0.4-0.6,0.6c-0.2,0.1-0.3,0.2-0.5,0.2c-0.2,0.1-0.4,0.1-0.6,0.1c0,0-0.1,0-0.1,0c-0.7,0-1.3-0.3-1.7-0.8l-8.4-9.7
			C0.7,43.5,0.8,42.1,1.8,41.2z M31.6,56.4L31.6,56.4l1.1-1.1l3.9-3.7l-5-4.8V56.4z"/>
	</g>
	<circle fill="none" stroke="#FFFFFF" stroke-width="2" stroke-miterlimit="10" cx="102.4" cy="22.4" r="7.3"/>
	<path fill="none" stroke="#FFFFFF" stroke-width="2" stroke-miterlimit="10" d="M117.5,39.8c-0.9-3.8-3.4-6.2-6.9-6.9
		c0,0,0,0-0.1,0l0,0v0c-1.5,0-13.9,0-14.9,0c-0.6,0-1.2,0.1-1.7,0.2c-3.6,0.6-6.1,3-7,6.9c0,0.1-0.2,15.5-0.2,23.1
		c0.5,0.8,1,1.6,2.1,1.9c2,0.5,3.5-0.6,3.8-2.6c0-0.5,0-0.9,0-1.4c0-5.4,0-10.9,0-16.3c0-0.4,0-0.7,0-1.1c0.5,0,0.8,0,1.3,0
		c0,0.5,0,0.9,0,1.3c0,16.3,0,32.5,0,48.8c0,0.7,0,1.4,0.2,2.1c0.3,1.5,1.4,2.2,2.6,2.7c0.7,0,1.3,0,2,0c2.3-0.8,3-2.4,3-4.8
		c-0.1-9.2,0-18.4,0-27.6c0-0.4,0-0.8,0-1.2c0.5,0,0.9,0,1.3,0c0,0.4,0,0.8,0,1.2c0,9.2,0,18.3,0,27.5c0,2.4,0.7,4,3,4.9
		c0.7,0,1.3,0,2,0c2.3-0.8,2.9-2.5,2.9-4.8c0-7.2,0-14.3,0-21.5V63V43.2c0.4,0,0.7,0,1.1,0c0,0.4,0,0.8,0,1.1c0,5.4,0,10.9,0,16.3
		c0,0.5,0,0.9,0,1.4c0.2,2,1.8,3.1,3.8,2.6c1-0.3,1.6-1.1,2.1-1.9C117.7,55.2,117.6,39.9,117.5,39.8z"/>
	<g>
		<circle fill="none" stroke="#FFFFFF" stroke-width="2" stroke-miterlimit="10" cx="63.8" cy="9.6" r="8.6"/>
		<path fill="none" stroke="#FFFFFF" stroke-width="2" stroke-miterlimit="10" d="M81.5,29.9c-1.1-4.5-3.9-7.3-8.1-8c0,0,0,0-0.1,0
			l0,0v0c-1.8,0-16.2,0-17.4,0c-0.7,0-1.4,0.1-2,0.2c-4.2,0.7-7.1,3.5-8.2,8c0,0.1-0.2,18.1-0.2,26.9c0.6,1,1.2,1.9,2.4,2.2
			c2.3,0.5,4.1-0.7,4.4-3.1c0.1-0.5,0-1.1,0-1.6c0-6.4,0-12.7,0-19.1c0-0.4,0-0.8,0-1.3c0.5,0,1,0,1.5,0c0,0.5,0,1,0,1.5
			c0,19,0,38,0,57c0,0.8,0,1.7,0.2,2.5c0.3,1.7,1.6,2.5,3.1,3.2c0.8,0,1.5,0,2.3,0c2.7-0.9,3.5-2.9,3.5-5.6c-0.1-10.7,0-21.5,0-32.2
			c0-0.4,0-0.9,0-1.4c0.6,0,1,0,1.6,0c0,0.5,0,0.9,0,1.4c0,10.7,0.1,21.4,0,32.1c0,2.8,0.8,4.7,3.5,5.7c0.8,0,1.5,0,2.3,0
			c2.7-1,3.4-3,3.4-5.6c0-8.4,0-16.7,0-25.1V57.1V34c0.4,0,0.8,0,1.2,0c0,0.5,0,0.9,0,1.3c0,6.4,0,12.7,0,19.1c0,0.5,0,1.1,0,1.6
			c0.2,2.3,2.1,3.6,4.4,3.1c1.2-0.3,1.8-1.2,2.4-2.2C81.7,48,81.5,30,81.5,29.9z"/>
	</g>
	<g>
		<path fill="#FFFFFF" d="M125,25.4c-3.9,0-7,3.1-7,7c0,0.5,0.1,1,0.2,1.5c0.8,1,1.5,2.2,1.9,3.5c1.3,1.3,3,2,4.9,2c3.9,0,7-3.1,7-7
			C132,28.6,128.9,25.4,125,25.4z M125,37.6c-2.9,0-5.2-2.3-5.2-5.2c0-2.9,2.3-5.2,5.2-5.2c2.9,0,5.2,2.3,5.2,5.2
			C130.2,35.3,127.9,37.6,125,37.6z"/>
	</g>
	<g>
		<g>
			<path fill="#FFFFFF" d="M138.5,46.7c-0.8-3.5-3.1-5.8-6.4-6.4l-0.1,0l-4.5,0c-2.5,0-5.4,0-6.9,0c0,0.6,0,1.2,0,1.8
				c1.6,0,4.4,0,6.9,0l4.2,0c2.6,0.5,4.3,2.2,5,4.9c0,1.1,0.1,12.6,0.1,18.8c-0.4,0.6-0.6,0.8-1,0.9c-0.5,0.1-1,0.1-1.4-0.2
				c-0.4-0.2-0.6-0.7-0.6-1.2c0-0.3,0-0.5,0-0.8l0-15.7h-2.7v24.9c0,5.9,0,11.9,0,17.8c0,1.7-0.5,2.6-1.7,3.1h-1.3
				c-1.3-0.5-1.7-1.4-1.7-3.1c0-5.5,0-11.1,0-16.6l0-8.1h-2.9l0,8c0,5.5,0,11.2,0,16.8c0,1.7-0.5,2.6-1.7,3h-1.3
				c-0.9-0.5-1.4-0.9-1.5-1.5c-0.1-0.5-0.1-1.1-0.1-1.6c0-7.8,0-15.6,0-23.4c-0.5,0.5-1.1,0.9-1.8,1.1c0,7.4,0,14.9,0,22.3
				c0,0.6,0,1.3,0.2,2c0.3,1.7,1.6,2.4,2.7,2.9l0.2,0.1h2l0.1-0.1c1.3-0.5,2.3-1.3,2.7-2.5c0.4,1,1.2,1.9,2.7,2.5l0.2,0.1h1.9
				l0.2-0.1c2-0.7,3-2.3,3-4.9c0-5.9,0-11.9,0-17.8v-6.1c0.1,0.1,0.3,0.3,0.5,0.4c0.8,0.6,1.8,0.7,2.8,0.5c1.3-0.3,1.9-1.3,2.3-2
				l0.1-0.2V66C138.7,64,138.6,47,138.5,46.7z"/>
		</g>
	</g>
</g>
</svg>
