<?xml version="1.0" encoding="utf-8"?>
<!-- Generator: Adobe Illustrator 18.0.0, SVG Export Plug-In . SVG Version: 6.00 Build 0)  -->
<!DOCTYPE svg PUBLIC "-//W3C//DTD SVG 1.1//EN" "http://www.w3.org/Graphics/SVG/1.1/DTD/svg11.dtd">
<svg version="1.1" id="Layer_1" xmlns="http://www.w3.org/2000/svg" xmlns:xlink="http://www.w3.org/1999/xlink" x="0px" y="0px"
	 viewBox="0 0 180.5 127" enable-background="new 0 0 180.5 127" xml:space="preserve">
<g>
	<g>
		<path fill="#FFFFFF" d="M45.6,37.7c0.5,0,1,0,1.5,0.1c7,0.7,12.5,6.3,13.2,13.2c0.4,4.3-0.9,8.3-3.8,11.5c-2.8,3.1-6.8,4.9-11,4.9
			c-0.5,0-1,0-1.5-0.1c-7-0.7-12.6-6.3-13.2-13.3c-0.4-4.3,0.9-8.3,3.8-11.5C37.4,39.4,41.4,37.7,45.6,37.7 M45.6,74.7
			c15.5,0,28.6,11.6,29.9,26.5l0,0.2l0.1,0.7c0.4,3.9,0.7,7.6-0.6,9.1c-0.2,0.2-0.8,0.9-2.9,1c-0.5,0-2.6,0-4.6,0.1
			c-0.6,0-1.2,0-1.7,0L69,92.4c0.2-1.3-0.2-2.6-1-3.6c-0.8-1-2.1-1.6-3.4-1.6H47.1h-3H26.5c-1.3,0-2.5,0.6-3.4,1.6
			c-0.8,1-1.2,2.3-1,3.6l3.2,19.7c-2.2,0-7.1-0.1-8.3-0.2c-3.4-1.7-3.3-3.8-2.3-10.4l0-0.1c0-0.2,0-0.4,0-0.5
			c0-6.8,3.4-13.4,9.4-18.4C30.1,77.5,37.9,74.7,45.6,74.7 M62.3,93.7l-3.1,19H31.9l-3.1-19H62.3 M85.9,119.6c1.2,0,2.2,1,2.2,2.2
			c0,1.2-1,2.2-2.2,2.2H5.2C4,124,3,123,3,121.8c0-1.2,1-2.2,2.2-2.2H85.9 M45.6,35.7c-9.8,0-17.7,8.5-16.7,18.5
			c0.8,7.9,7.1,14.3,15,15.1c0.6,0.1,1.2,0.1,1.7,0.1c9.9,0,17.8-8.5,16.8-18.6c-0.8-7.9-7.1-14.2-15-15
			C46.7,35.7,46.1,35.7,45.6,35.7L45.6,35.7z M45.6,72.7c-16.7,0-32.8,12.7-32.8,28.3c0,0,0,0.1,0,0.1c-0.9,6.6-1.5,10.3,3.7,12.7
			c0.6,0.3,10.6,0.2,11.2,0.3l-3.6-22c-0.1-0.7,0.1-1.4,0.5-2c0.5-0.5,1.1-0.9,1.9-0.9h17.6h3h17.6c0.7,0,1.4,0.3,1.9,0.9
			c0.5,0.5,0.7,1.3,0.5,2l-3.6,22.2c1,0,7.8-0.1,8.7-0.1c6.8-0.3,6-6.3,5.3-13.1c0,0,0-0.1,0-0.1C76.1,85.4,62.3,72.7,45.6,72.7
			L45.6,72.7z M64.6,91.7H26.5l3.7,23h30.7L64.6,91.7L64.6,91.7z M85.9,117.6H5.2c-2.3,0-4.2,1.9-4.2,4.2c0,2.3,1.9,4.2,4.2,4.2
			h80.7c2.3,0,4.2-1.9,4.2-4.2C90.1,119.5,88.2,117.6,85.9,117.6L85.9,117.6z"/>
	</g>
	<g>
		<path fill="#FFFFFF" d="M105.8,33.8c0.5,0,0.9,0,1.4,0.1c6.2,0.6,11.2,5.6,11.8,11.8c0.4,3.8-0.8,7.4-3.4,10.2
			c-2.5,2.8-6.1,4.4-9.8,4.4c-0.5,0-0.9,0-1.4-0.1c-6.2-0.6-11.2-5.6-11.8-11.8c-0.4-3.8,0.8-7.4,3.4-10.2
			C98.5,35.4,102.1,33.8,105.8,33.8 M105.8,31.8c-8.9,0-16,7.7-15.2,16.8c0.7,7.1,6.5,12.9,13.6,13.6c0.5,0.1,1,0.1,1.6,0.1
			c8.9,0,16.1-7.7,15.2-16.8c-0.7-7.1-6.5-12.9-13.6-13.6C106.9,31.8,106.4,31.8,105.8,31.8L105.8,31.8z"/>
	</g>
	<g>
		<path fill="#FFFFFF" d="M120.8,84.5l-2.7,16.8H93.6l-2.7-16.8H120.8 M123.1,82.5H88.6l3.4,20.8h27.8L123.1,82.5L123.1,82.5z"/>
	</g>
	<g>
		<path fill="#FFFFFF" d="M107.3,92.2l-0.1,0.3h-3.8l-0.1-0.3H107.3 M110,90.2h-9.3l1.2,4.3h6.8L110,90.2L110,90.2z"/>
	</g>
	<g>
		<path fill="#FFFFFF" d="M142.3,108c1,0,1.8,0.8,1.8,1.8c0,1-0.8,1.8-1.8,1.8H84.7c0.2-1.2,0.3-2.4,0.4-3.6H142.3 M142.3,106H83.2
			c-0.1,2.6-0.4,5.2-0.9,7.6h60.1c2.1,0,3.8-1.7,3.8-3.8C146.1,107.7,144.4,106,142.3,106L142.3,106z"/>
	</g>
	<g>
		<path fill="#FFFFFF" d="M105.8,67.3c13.9,0,25.7,10.4,26.9,23.8l0,0.1l0.1,0.7c0.3,3.3,0.7,6.8-0.5,8.1c-0.2,0.2-0.7,0.8-2.5,0.9
			c-0.4,0-2.4,0-4.1,0.1c-0.5,0-0.9,0-1.3,0l2.9-17.7c0.2-1.2-0.1-2.5-0.9-3.4c-0.8-0.9-2-1.5-3.2-1.5h-15.9h-2.7H88.6
			c-1.2,0-2.4,0.5-3.2,1.5c-0.8,0.9-1.1,2.2-0.9,3.4l2.8,17.6c-0.7,0-1.5,0-2.3,0c-0.6-6.1-2.4-11.9-5.4-17
			C83.4,74.3,94.5,67.3,105.8,67.3 M105.8,65.3c-12.6,0-24.7,7.9-28.5,18.7c3.3,5.4,5.4,11.8,5.8,18.7c2.8,0,6.1,0,6.5,0.1
			l-3.2-19.9c-0.1-0.6,0.1-1.3,0.5-1.8c0.4-0.5,1-0.8,1.7-0.8h15.9h2.7h15.9c0.6,0,1.3,0.3,1.7,0.8c0.4,0.5,0.6,1.1,0.5,1.8L122,103
			c0.9,0,7-0.1,7.9-0.1c6.2-0.3,5.4-5.7,4.8-11.8c0,0,0-0.1,0-0.1C133.5,76.8,121,65.3,105.8,65.3L105.8,65.3z"/>
	</g>
	<path fill="#FFFFFF" d="M169.6,0h-34c-6,0-10.9,4.9-10.9,10.9v13.6c0,5.1,3.6,9.4,8.4,10.6c0.2,2,0,5.5-2.4,10.4
		c0,0,5.9-2.1,9.3-10.1h29.5c6,0,10.9-4.9,10.9-10.9V10.9C180.5,4.9,175.6,0,169.6,0z M143.5,15.4l-8,3.3l8,3.3v3.4l-11.5-5v-3.3
		l11.5-5V15.4z M148,30.1h-3.1l10.5-22h3.1L148,30.1z M171.7,20.4l-11.5,5v-3.3l8-3.3l-8-3.3v-3.4l11.5,5V20.4z"/>
</g>
</svg>
