<?xml version="1.0" encoding="utf-8"?>
<!-- Generator: Adobe Illustrator 18.0.0, SVG Export Plug-In . SVG Version: 6.00 Build 0)  -->
<!DOCTYPE svg PUBLIC "-//W3C//DTD SVG 1.1//EN" "http://www.w3.org/Graphics/SVG/1.1/DTD/svg11.dtd">
<svg version="1.1" id="Layer_1" xmlns="http://www.w3.org/2000/svg" xmlns:xlink="http://www.w3.org/1999/xlink" x="0px" y="0px"
	 viewBox="0 0 56 70.2" enable-background="new 0 0 56 70.2" xml:space="preserve">
<path fill="none" stroke="#FFFFFF" stroke-miterlimit="10" d="M20.2,9.6c-0.5-4.5,2.6-8.5,7.1-9.1c4.5-0.5,8.5,2.6,9.1,7.1
	c0.5,4.5-2.6,8.5-7.1,9.1C24.8,17.2,20.8,14.1,20.2,9.6z M20.7,18.8c-3.5-0.4-10.2-2-13.9-8c-1-1.6-3.1-2.2-4.7-1.2
	c-1.6,1-2.1,3-1.1,4.6C6.9,24,17.8,25.5,21.8,25.7l0.6,5.1l0.5,3.9l1,7.8l0.4,3.5l0.3,2.1c0,0,0,0,0,0c-0.7,1.3-2.9,3.9-10.6,5.5
	c-1.8,0.4-3.1,1.9-3.1,3.7c0.1,2.1,1.8,3.6,3.7,3.6c0.3,0,0.5,0,0.8-0.1c8.1-1.7,13.4-4.8,15.7-9.3c0.4-0.7,0.7-1.4,0.9-2.1
	c0.2-0.5,0.6-0.9,1.2-1l0,0c0.8-0.1,1.5,0.5,1.6,1.3c0.1,1.8-0.2,3.8-1.2,5.7c-1.6,3.2-5.1,5.5-10.3,6.9c-1.9,0.5-3.2,2.3-2.9,4.2
	c0.3,1.9,1.9,3.1,3.6,3.1c0.3,0,0.6,0,0.9-0.1c7.5-1.8,12.7-5.5,15.3-10.7c2.8-5.6,2-11.5,1.2-14.7l-2.5-20.5
	c3.7-0.9,12.7-4,16.5-13.2c0.7-1.7,0.1-3.7-1.5-4.5c-1.8-0.9-3.9-0.1-4.6,1.7c-3.3,8.1-12.8,9.6-13,9.7l-11.8,1.5
	C23.1,19,21.9,19,20.7,18.8z"/>
</svg>
