<?xml version="1.0" encoding="utf-8"?>
<!-- Generator: Adobe Illustrator 18.0.0, SVG Export Plug-In . SVG Version: 6.00 Build 0)  -->
<!DOCTYPE svg PUBLIC "-//W3C//DTD SVG 1.1//EN" "http://www.w3.org/Graphics/SVG/1.1/DTD/svg11.dtd">
<svg version="1.1" id="Layer_1" xmlns="http://www.w3.org/2000/svg" xmlns:xlink="http://www.w3.org/1999/xlink" x="0px" y="0px"
	 viewBox="0 0 82.5 88.9" enable-background="new 0 0 82.5 88.9" xml:space="preserve">
<g>
	<path fill="#FFFFFF" d="M19.4,1.5c4.2,0,7.6,3.4,7.6,7.6s-3.4,7.6-7.6,7.6c-4.2,0-7.6-3.4-7.6-7.6S15.2,1.5,19.4,1.5 M19.4,21.5
		c0.8,0,1.6,0.2,2.3,0.6l0.1,0l0.1,0l14,5.5l0.3,0.1h0.3h13.2c1.3,0,2.4,1.1,2.4,2.4s-1.1,2.4-2.4,2.4h-14c-0.3,0-0.6-0.1-0.9-0.2
		l-7-2.8l-2-0.8V31v20.6v1.5h1.5h12.5c0.1,0,0.1,0,0.2,0c0.1,0,0.1,0,0.2,0l0,0c0.1,0,0.2,0,0.3,0.1l2,0.7v-2.1v-2.9v-1.5h-1.5h-2.3
		v-5.9H81v5.9h-3h-1.5v1.5v38H42.4V76.2V76l0-0.2l-4.3-16.7L37.8,58h-1.2H16.4c-1.8,0-3.4-1.5-3.4-3.3V29.5c0-2.2,0.7-4.3,2-5.8
		C16.2,22.3,17.8,21.5,19.4,21.5 M2.8,33.2L2.8,33.2c0.6,0,1.2,0.5,1.3,1.1l4.2,27.4l0.2,1.3h1.3h23.4c1.6,0,3,1.3,3,3s-1.3,3-3,3
		h-0.5h-1.7l0.2,1.7l1.7,15.6c0.1,0.6-0.3,1.1-0.9,1.1c0,0-0.1,0-0.1,0c-0.5,0-0.9-0.3-1-0.8l-4.1-16.5l-0.3-1.1h-1.2H9.8H8.5
		l-0.2,1.3L6.1,86.3c-0.1,0.6-0.6,1.1-1.3,1.1c-0.1,0-0.1,0-0.2,0c-0.6-0.1-1.1-0.6-1.1-1.3L3.3,67l0-0.2l-0.1-0.2
		c-0.1-0.3-0.1-0.6-0.1-0.8c0-0.2,0-0.4,0.1-0.6l0-0.2l0-0.2L1.5,34.5C1.5,33.8,2,33.2,2.8,33.2L2.8,33.2 M19.4,0
		c-5,0-9.1,4.1-9.1,9.1c0,5,4.1,9.1,9.1,9.1s9.1-4.1,9.1-9.1C28.5,4.1,24.4,0,19.4,0 M19.4,20c-2.2,0-4.1,1.1-5.5,2.8
		c-1.4,1.7-2.3,4.1-2.3,6.8v25.1c0,2.7,2.2,4.8,4.9,4.8h20.3l4.3,16.7v12.3H78V48.9h4.5V40H37.2v8.9h3.8v2.9
		c-0.2-0.1-0.4-0.1-0.6-0.2c-0.1,0-0.1,0-0.2,0c-0.1,0-0.3,0-0.4,0H27.3V31l7,2.8c0.5,0.2,0.9,0.3,1.4,0.3h14c2.2,0,3.9-1.7,3.9-3.9
		c0-2.2-1.7-3.9-3.9-3.9H36.4l-14-5.5C21.5,20.2,20.5,20,19.4,20 M2.8,31.7c-0.1,0-0.1,0-0.2,0c-1.5,0.1-2.7,1.4-2.6,2.9l1.7,30.3
		c-0.1,0.3-0.1,0.6-0.1,0.9c0,0.4,0.1,0.8,0.2,1.2L2,86.2c0,1.4,1,2.5,2.4,2.7c0.1,0,0.3,0,0.4,0c1.4,0,2.6-1,2.8-2.4l2.2-16.2h15.5
		l4.1,16.5c0.3,1.1,1.3,1.9,2.5,1.9c0.1,0,0.2,0,0.3,0c1.4-0.2,2.4-1.4,2.2-2.8l-1.7-15.6h0.5c2.5,0,4.5-2,4.5-4.5
		c0-2.5-2-4.5-4.5-4.5H9.7L5.5,34C5.3,32.7,4.2,31.7,2.8,31.7"/>
	<path fill="#FFFFFF" d="M42.2,33.3c-1.2,0-2.2,1-2.2,2.2s1,2.2,2.2,2.2h19.3c1.2,0,2.2-1,2.2-2.2V15.8c0-1.2-1-2.2-2.2-2.2
		c-1.2,0-2.2,1-2.2,2.2v17.6H42.2z"/>
</g>
</svg>
