<?xml version="1.0" encoding="utf-8"?>
<!-- Generator: Adobe Illustrator 18.0.0, SVG Export Plug-In . SVG Version: 6.00 Build 0)  -->
<!DOCTYPE svg PUBLIC "-//W3C//DTD SVG 1.1//EN" "http://www.w3.org/Graphics/SVG/1.1/DTD/svg11.dtd">
<svg version="1.1" id="Layer_1" xmlns="http://www.w3.org/2000/svg" xmlns:xlink="http://www.w3.org/1999/xlink" x="0px" y="0px"
	 viewBox="0 0 187.5 218.5" enable-background="new 0 0 187.5 218.5" xml:space="preserve">
<g>
	<path fill="#FFFFFF" d="M114,111.2c1.7,1.7,3.5,3.5,5.3,5.2c-1.7,0-3.4,0-5.3,0C114,114.6,114,112.8,114,111.2z"/>
	<path fill="#FFFFFF" d="M126.4,123.4c0,1.8,0,3.6,0,5c-1.6-1.6-3.4-3.4-5.1-5C122.8,123.4,124.6,123.4,126.4,123.4z"/>
	<path fill="#FFFFFF" d="M152.1,110.6c0,1.8,0,3.5,0,5.2c-1.8-1.8-3.5-3.5-5.2-5.2C148.6,110.6,150.4,110.6,152.1,110.6z"/>
	<path fill="#FFFFFF" d="M172.6,123.4c1.8,0,3.5,0,5.3,0c0,1.8,0,3.6,0,5.3C176.1,126.9,174.4,125.2,172.6,123.4z"/>
	<path fill="#FFFFFF" d="M119.1,103.6c-1.5,0-3.2,0-5,0c0-1.8,0-3.6,0-5C115.6,100.1,117.4,101.9,119.1,103.6z"/>
	<path fill="#FFFFFF" d="M139.8,103.5c0-1.8,0-3.5,0-5.2c1.7,1.7,3.4,3.5,5.1,5.2C143.4,103.5,141.6,103.5,139.8,103.5z"/>
	<path fill="#FFFFFF" d="M153.7,104.1c1.3,0,3.1,0,4.9,0c0,1.8,0,3.5,0,4.9C157,107.5,155.3,105.7,153.7,104.1z"/>
	<path fill="#FFFFFF" d="M165.6,123.4c1.8,0,3.5,0,5.2,0c-1.7,1.7-3.5,3.5-5.2,5.2C165.6,127,165.6,125.2,165.6,123.4z"/>
	<path fill="#FFFFFF" d="M119.8,128.7c-1.8-1.8-3.5-3.5-5.3-5.3c1.7,0,3.5,0,5.3,0C119.8,125.2,119.8,126.9,119.8,128.7z"/>
	<path fill="#FFFFFF" d="M139.7,116.4c0-1.8,0-3.5,0-5.2c1.7,1.8,3.4,3.5,5.1,5.2C143.3,116.4,141.6,116.4,139.7,116.4z"/>
	<path fill="#FFFFFF" d="M153.4,117c1.5,0,3.3,0,5.1,0c0,1.8,0,3.5,0,5.2C156.9,120.4,155.2,118.7,153.4,117z"/>
	<path fill="#FFFFFF" d="M184.3,122.1c-1.7-1.7-3.4-3.4-5.1-5.1c1.5,0,3.3,0,5.1,0C184.3,118.8,184.3,120.5,184.3,122.1z"/>
	<path fill="#FFFFFF" d="M151.2,103.6c-1.5,0-3.2,0-5,0c0-1.8,0-3.5,0-5C147.8,100.2,149.6,101.9,151.2,103.6z"/>
	<path fill="#FFFFFF" d="M171.4,98.6c0,1.4,0,3.1,0,4.9c-1.8,0-3.5,0-5,0C168,101.9,169.8,100.2,171.4,98.6z"/>
	<path fill="#FFFFFF" d="M172,103.5c0-1.8,0-3.5,0-4.9c1.6,1.6,3.3,3.3,4.9,4.9C175.6,103.5,173.9,103.5,172,103.5z"/>
	<path fill="#FFFFFF" d="M114,117.5c1.8,1.8,3.5,3.5,5.4,5.3c-1.8,0-3.6,0-5.4,0C114,121,114,119.3,114,117.5z"/>
	<path fill="#FFFFFF" d="M132.8,123.4c0,1.9,0,3.6,0,5.2c-1.7-1.7-3.5-3.5-5.2-5.2C129.2,123.4,130.9,123.4,132.8,123.4z"/>
	<path fill="#FFFFFF" d="M145.6,123.4c0,1.8,0,3.6,0,5.1c-1.7-1.7-3.4-3.4-5.1-5.1C142.1,123.4,143.8,123.4,145.6,123.4z"/>
	<path fill="#FFFFFF" d="M166.3,104.1c1.6,0,3.3,0,5.1,0c0,1.8,0,3.5,0,5.2C169.7,107.6,168,105.8,166.3,104.1z"/>
	<path fill="#FFFFFF" d="M179.2,104c1.4,0,3,0,4.5,0c0.2,0,0.7,0.4,0.7,0.7c0.1,1.5,0,3.1,0,4.5C182.7,107.5,180.9,105.8,179.2,104z
		"/>
	<path fill="#FFFFFF" d="M151.6,123.4c-1.8,1.8-3.6,3.5-5.3,5.2c0-1.6,0-3.3,0-5.2C148,123.4,149.7,123.4,151.6,123.4z"/>
	<path fill="#FFFFFF" d="M152.6,128.5c0-1.4,0-3,0-4.5c0-0.2,0.4-0.6,0.6-0.6c1.5-0.1,3.1,0,4.5,0
		C156.1,125,154.4,126.7,152.6,128.5z"/>
	<path fill="#FFFFFF" d="M178.5,128.3c0-1.4,0-3.1,0-4.9c1.8,0,3.5,0,5.1,0C181.9,125,180.1,126.7,178.5,128.3z"/>
	<path fill="#FFFFFF" d="M153.6,110.6c1.4,0,3.1,0,4.9,0c0,1.8,0,3.5,0,5C156.9,113.9,155.2,112.2,153.6,110.6z"/>
	<path fill="#FFFFFF" d="M172.7,110.6c1.7,0,3.4,0,5.1,0c0,1.8,0,3.5,0,5.1C176.2,114,174.5,112.3,172.7,110.6z"/>
	<path fill="#FFFFFF" d="M184.3,115.7c-1.7-1.7-3.4-3.4-5-5.1c1.4,0,3.2,0,5,0C184.3,112.3,184.3,114.1,184.3,115.7z"/>
	<path fill="#FFFFFF" d="M183.5,103.6c-1.5,0-3.2,0-5,0c0-1.8,0-3.5,0-5C180.1,100.2,181.8,101.9,183.5,103.6z"/>
	<path fill="#FFFFFF" d="M152.7,98.2c1.8,1.8,3.5,3.5,5.3,5.3c-1.8,0-3.5,0-5.3,0C152.7,101.8,152.7,100.1,152.7,98.2z"/>
	<path fill="#FFFFFF" d="M119.8,109.3c-1.7-1.7-3.4-3.4-5.2-5.2c1.7,0,3.4,0,5.2,0C119.8,105.9,119.8,107.6,119.8,109.3z"/>
	<path fill="#FFFFFF" d="M170.7,116.4c-1.6,0-3.3,0-5.1,0c0-1.8,0-3.6,0-5.2C167.2,112.9,169,114.7,170.7,116.4z"/>
	<path fill="#FFFFFF" d="M152.1,97.7c0,1.8,0,3.5,0,5c-1.7-1.7-3.4-3.4-5-5C148.6,97.7,150.3,97.7,152.1,97.7z"/>
	<path fill="#FFFFFF" d="M170.7,110c-1.6,0-3.4,0-5.1,0c0-1.8,0-3.6,0-5.1C167.2,106.5,168.9,108.2,170.7,110z"/>
	<path fill="#FFFFFF" d="M119.8,102.8c-1.7-1.7-3.4-3.4-5.2-5.1c1.7,0,3.4,0,5.2,0C119.8,99.5,119.8,101.2,119.8,102.8z"/>
	<path fill="#FFFFFF" d="M145.6,102.9c-1.7-1.7-3.4-3.4-5.1-5.2c1.6,0,3.3,0,5.1,0C145.6,99.5,145.6,101.2,145.6,102.9z"/>
	<path fill="#FFFFFF" d="M177.9,103c-1.8-1.8-3.5-3.5-5.2-5.3c1.7,0,3.4,0,5.2,0C177.9,99.5,177.9,101.2,177.9,103z"/>
	<path fill="#FFFFFF" d="M119.1,110c-1.6,0-3.3,0-5.1,0c0-1.8,0-3.5,0-5C115.6,106.6,117.4,108.3,119.1,110z"/>
	<path fill="#FFFFFF" d="M157.7,110c-1.4,0-3.2,0-4.9,0c0-1.8,0-3.5,0-4.9C154.3,106.6,156,108.3,157.7,110z"/>
	<path fill="#FFFFFF" d="M157.6,116.4c-1.4,0-3.1,0-4.9,0c0-1.8,0-3.5,0-4.9C154.3,113.1,156,114.8,157.6,116.4z"/>
	<path fill="#FFFFFF" d="M157.6,122.9c-1.2,0-2.7,0-4.2,0c-0.3,0-0.8-0.5-0.8-0.8c-0.1-1.5,0-2.9,0-4.3
		C154.3,119.5,156,121.2,157.6,122.9z"/>
	<path fill="#FFFFFF" d="M183.6,122.8c-1.6,0-3.3,0-5.1,0c0-1.8,0-3.5,0-5.2C180.2,119.4,181.9,121.1,183.6,122.8z"/>
	<path fill="#FFFFFF" d="M171.4,110.6c0,1.8,0,3.5,0,5c-1.7-1.7-3.4-3.4-5-5C167.9,110.6,169.6,110.6,171.4,110.6z"/>
	<path fill="#FFFFFF" d="M140.8,110.6c1.3,0,3,0,4.8,0c0,1.8,0,3.5,0,4.9C144.1,113.9,142.4,112.2,140.8,110.6z"/>
	<path fill="#FFFFFF" d="M177,116.4c-1.5,0-3.2,0-5,0c0-1.8,0-3.5,0-5.1C173.7,113,175.4,114.7,177,116.4z"/>
	<path fill="#FFFFFF" d="M178.4,116.4c0-1.8,0-3.5,0-4.9c1.6,1.6,3.3,3.3,4.9,4.9C182,116.4,180.3,116.4,178.4,116.4z"/>
	<path fill="#FFFFFF" d="M114.8,117c1.6,0,3.3,0,5.1,0c0,1.8,0,3.5,0,5.1C118.2,120.4,116.5,118.7,114.8,117z"/>
	<path fill="#FFFFFF" d="M178.5,109.9c0-1.8,0-3.5,0-5.1c1.7,1.7,3.4,3.4,5,5.1C182,109.9,180.3,109.9,178.5,109.9z"/>
	<path fill="#FFFFFF" d="M119.8,110.6c0,1.8,0,3.5,0,5.2c-1.7-1.8-3.4-3.5-5.1-5.2C116.3,110.6,118,110.6,119.8,110.6z"/>
	<path fill="#FFFFFF" d="M151.2,116.4c-1.5,0-3.2,0-5,0c0-1.8,0-3.5,0-5C147.9,113,149.6,114.7,151.2,116.4z"/>
	<path fill="#FFFFFF" d="M120.5,124.2c1.7,1.7,3.4,3.4,5.1,5.1c-1.6,0-3.3,0-5.1,0C120.5,127.5,120.5,125.8,120.5,124.2z"/>
	<path fill="#FFFFFF" d="M131.7,129.2c-1.3,0-3,0-4.8,0c0-1.7,0-3.4,0-4.9C128.5,125.9,130.1,127.6,131.7,129.2z"/>
	<path fill="#FFFFFF" d="M139.8,123.9c1.8,1.8,3.5,3.5,5.3,5.3c-1.8,0-3.5,0-5.3,0C139.8,127.5,139.8,125.7,139.8,123.9z"/>
	<path fill="#FFFFFF" d="M152.1,129.2c-1.7,0-3.4,0-5,0c1.7-1.7,3.4-3.4,5-5C152.1,125.7,152.1,127.4,152.1,129.2z"/>
	<path fill="#FFFFFF" d="M171.4,124.3c0,1.4,0,3.1,0,4.9c-1.8,0-3.5,0-4.9,0C168.1,127.6,169.8,125.9,171.4,124.3z"/>
	<path fill="#FFFFFF" d="M172.1,124.2c1.6,1.7,3.3,3.4,5,5c-1.5,0-3.2,0-5,0C172.1,127.5,172.1,125.8,172.1,124.2z"/>
</g>
<g>
	<g>
		<path fill="#FFFFFF" d="M36.7,48.4h16.6c3.7,0,3.7-3.8,0-3.8H36.7C32.9,44.6,32.9,48.4,36.7,48.4z"/>
		<path fill="#FFFFFF" d="M27.6,44.6h-5.4c-3.7,0-3.7,3.8,0,3.8h5.4C31.3,48.4,31.3,44.6,27.6,44.6z"/>
		<path fill="#FFFFFF" d="M27.6,32.4h-5.4c-3.7,0-3.7,3.8,0,3.8h5.4C31.3,36.2,31.3,32.4,27.6,32.4z"/>
		<path fill="#FFFFFF" d="M27.6,58.5h-5.4c-3.7,0-3.7,3.8,0,3.8h5.4C31.3,62.3,31.3,58.5,27.6,58.5z"/>
		<path fill="#FFFFFF" d="M36.7,76.2h16.6c3.7,0,3.7-3.8,0-3.8H36.7C32.9,72.4,32.9,76.2,36.7,76.2z"/>
		<path fill="#FFFFFF" d="M27.6,72.4h-5.4c-3.7,0-3.7,3.8,0,3.8h5.4C31.3,76.2,31.3,72.4,27.6,72.4z"/>
		<path fill="#FFFFFF" d="M36.7,103.4h16.6c3.7,0,3.7-3.8,0-3.8H36.7C32.9,99.6,32.9,103.4,36.7,103.4z"/>
		<path fill="#FFFFFF" d="M36.7,36.2h16.6c3.7,0,3.7-3.8,0-3.8H36.7C32.9,32.4,32.9,36.2,36.7,36.2z"/>
		<path fill="#FFFFFF" d="M36.7,62.3h16.6c3.7,0,3.7-3.8,0-3.8H36.7C32.9,58.5,32.9,62.3,36.7,62.3z"/>
		<path fill="#FFFFFF" d="M36.7,90.2h16.6c3.7,0,3.7-3.8,0-3.8H36.7C32.9,86.4,32.9,90.2,36.7,90.2z"/>
		<path fill="#FFFFFF" d="M27.6,155.3h-5.4c-3.7,0-3.7,3.8,0,3.8h5.4C31.3,159.1,31.3,155.3,27.6,155.3z"/>
		<path fill="#FFFFFF" d="M27.6,169.2h-5.4c-3.7,0-3.7,3.8,0,3.8h5.4C31.3,173,31.3,169.2,27.6,169.2z"/>
		<path fill="#FFFFFF" d="M27.6,196.6h-5.4c-3.7,0-3.7,3.8,0,3.8h5.4C31.3,200.4,31.3,196.6,27.6,196.6z"/>
		<path fill="#FFFFFF" d="M27.6,183.1h-5.4c-3.7,0-3.7,3.8,0,3.8h5.4C31.3,186.9,31.3,183.1,27.6,183.1z"/>
		<path fill="#FFFFFF" d="M27.6,99.6h-5.4c-3.7,0-3.7,3.8,0,3.8h5.4C31.3,103.4,31.3,99.6,27.6,99.6z"/>
		<path fill="#FFFFFF" d="M27.6,86.4h-5.4c-3.7,0-3.7,3.8,0,3.8h5.4C31.3,90.2,31.3,86.4,27.6,86.4z"/>
		<path fill="#FFFFFF" d="M27.6,113.5h-5.4c-3.7,0-3.7,3.8,0,3.8h5.4C31.3,117.3,31.3,113.5,27.6,113.5z"/>
		<path fill="#FFFFFF" d="M27.6,127.4h-5.4c-3.7,0-3.7,3.8,0,3.8h5.4C31.3,131.2,31.3,127.4,27.6,127.4z"/>
		<path fill="#FFFFFF" d="M27.6,141.4h-5.4c-3.7,0-3.7,3.8,0,3.8h5.4C31.3,145.2,31.3,141.4,27.6,141.4z"/>
		<path fill="#FFFFFF" d="M36.7,117.3h16.6c3.7,0,3.7-3.8,0-3.8H36.7C32.9,113.5,32.9,117.3,36.7,117.3z"/>
		<path fill="#FFFFFF" d="M62.6,117.3H68c3.7,0,3.7-3.8,0-3.8h-5.4C58.8,113.5,58.8,117.3,62.6,117.3z"/>
		<path fill="#FFFFFF" d="M62.6,131.2H68c3.7,0,3.7-3.8,0-3.8h-5.4C58.8,127.4,58.8,131.2,62.6,131.2z"/>
		<path fill="#FFFFFF" d="M62.6,103.4H68c3.7,0,3.7-3.8,0-3.8h-5.4C58.8,99.6,58.8,103.4,62.6,103.4z"/>
		<path fill="#FFFFFF" d="M62.6,90.2H68c3.7,0,3.7-3.8,0-3.8h-5.4C58.8,86.4,58.8,90.2,62.6,90.2z"/>
		<path fill="#FFFFFF" d="M62.6,173H68c3.7,0,3.7-3.8,0-3.8h-5.4C58.8,169.2,58.8,173,62.6,173z"/>
		<path fill="#FFFFFF" d="M62.6,159.1H68c3.7,0,3.7-3.8,0-3.8h-5.4C58.8,155.3,58.8,159.1,62.6,159.1z"/>
		<path fill="#FFFFFF" d="M62.6,200.4H68c3.7,0,3.7-3.8,0-3.8h-5.4C58.8,196.6,58.8,200.4,62.6,200.4z"/>
		<path fill="#FFFFFF" d="M62.6,186.9H68c3.7,0,3.7-3.8,0-3.8h-5.4C58.8,183.1,58.8,186.9,62.6,186.9z"/>
		<path fill="#FFFFFF" d="M62.6,76.2H68c3.7,0,3.7-3.8,0-3.8h-5.4C58.8,72.4,58.8,76.2,62.6,76.2z"/>
		<path fill="#FFFFFF" d="M62.6,145.2H68c3.7,0,3.7-3.8,0-3.8h-5.4C58.8,141.4,58.8,145.2,62.6,145.2z"/>
		<path fill="#FFFFFF" d="M36.7,173h16.6c3.7,0,3.7-3.8,0-3.8H36.7C32.9,169.2,32.9,173,36.7,173z"/>
		<path fill="#FFFFFF" d="M36.7,145.2h16.6c3.7,0,3.7-3.8,0-3.8H36.7C32.9,141.4,32.9,145.2,36.7,145.2z"/>
		<path fill="#FFFFFF" d="M36.7,159.1h16.6c3.7,0,3.7-3.8,0-3.8H36.7C32.9,155.3,32.9,159.1,36.7,159.1z"/>
		<path fill="#FFFFFF" d="M36.7,131.2h16.6c3.7,0,3.7-3.8,0-3.8H36.7C32.9,127.4,32.9,131.2,36.7,131.2z"/>
		<path fill="#FFFFFF" d="M62.6,62.3H68c3.7,0,3.7-3.8,0-3.8h-5.4C58.8,58.5,58.8,62.3,62.6,62.3z"/>
		<path fill="#FFFFFF" d="M36.7,186.9h16.6c3.7,0,3.7-3.8,0-3.8H36.7C32.9,183.1,32.9,186.9,36.7,186.9z"/>
		<path fill="#FFFFFF" d="M62.6,48.4H68c3.7,0,3.7-3.8,0-3.8h-5.4C58.8,44.6,58.8,48.4,62.6,48.4z"/>
		<path fill="#FFFFFF" d="M62.6,36.2H68c3.7,0,3.7-3.8,0-3.8h-5.4C58.8,32.4,58.8,36.2,62.6,36.2z"/>
		<path fill="#FFFFFF" d="M36.7,200.4h16.6c3.7,0,3.7-3.8,0-3.8H36.7C32.9,196.6,32.9,200.4,36.7,200.4z"/>
		<path fill="#FFFFFF" d="M11.6,23.7L11.6,23.7C11.6,23.7,11.6,23.6,11.6,23.7C11.6,23.6,11.6,23.7,11.6,23.7z"/>
		<g id="_x31_1_2_">
			<path id="XMLID_166_" fill="#FFFFFF" d="M112.6,208.6c-0.8-0.7-2-0.7-2.8,0c-0.8,0.7-0.8,1.9,0,2.6c0.8,0.7,2,0.7,2.8,0
				C113.3,210.5,113.3,209.3,112.6,208.6z"/>
			<g id="XMLID_164_">
				<path fill="#FFFFFF" d="M123.2,179l8.1,7.6l-8.1,7.6l-8.1-7.6L123.2,179 M123.2,176.9c-0.4,0-0.8,0.1-1.2,0.4l-8.7,8.1
					c-0.6,0.6-0.6,1.6,0,2.1l8.7,8.1c0.3,0.3,0.7,0.4,1.2,0.4s0.8-0.1,1.2-0.4l8.7-8.1c0.6-0.6,0.6-1.6,0-2.1l-8.7-8.1
					C124,177,123.6,176.9,123.2,176.9L123.2,176.9z"/>
			</g>
			<g id="XMLID_162_">
				<path fill="#FFFFFF" d="M111.3,190l8.1,7.6l-3.2,3c-1.5-0.7-3.3-1.1-5-1.1c-1.7,0-3.3,0.4-4.8,1l-3.1-2.9L111.3,190
					 M111.3,187.9c-0.4,0-0.8,0.1-1.2,0.4l-8.7,8.1c-0.6,0.6-0.6,1.6,0,2.1l4.6,4.3c1.5-1,3.3-1.5,5.1-1.5c1.9,0,3.7,0.5,5.3,1.6
					l4.7-4.4c0.6-0.6,0.6-1.6,0-2.1l-8.7-8.1C112.2,188.1,111.7,187.9,111.3,187.9L111.3,187.9z"/>
			</g>
			<path id="XMLID_159_" fill="#FFFFFF" d="M116.4,214.7c-2.9,2.7-7.5,2.7-10.4,0c-2.9-2.7-2.9-7,0-9.7c2.9-2.7,7.5-2.7,10.4,0
				C119.2,207.7,119.2,212,116.4,214.7z M113.2,211.7c1.1-1,1.1-2.7,0-3.7s-2.9-1-4,0c-1.1,1-1.1,2.7,0,3.7
				C110.3,212.7,112.1,212.7,113.2,211.7z"/>
			<g id="XMLID_102_">
				<path id="XMLID_158_" fill="#FFFFFF" d="M98.4,197.1c-0.1-0.1-0.3-0.1-0.4,0c-0.1,0.1-0.1,0.3,0,0.4l6.5,6.8
					c0.1-0.1,0.2-0.2,0.3-0.3c0.2-0.2,0.3-0.3,0.5-0.4L98.4,197.1z"/>
				<path id="XMLID_157_" fill="#FFFFFF" d="M147.8,185L147.8,185c0-0.4-0.4-0.8-0.9-0.8h-9l-20.8,19.4c0.1,0.1,0.3,0.2,0.4,0.3
					c0.3,0.3,0.6,0.6,0.8,0.9l20.4-19h8.1C147.4,185.8,147.8,185.4,147.8,185z"/>
			</g>
		</g>
		<ellipse fill="none" stroke="#FFFFFF" stroke-width="2" stroke-miterlimit="10" cx="172.2" cy="159.1" rx="7.5" ry="7"/>
		<path fill="none" stroke="#FFFFFF" stroke-width="2" stroke-miterlimit="10" d="M152.2,181.2c4.5-1.6,7.6-3.5,9.7-5.1
			c1.3-1.1,2.3-2.4,3-3.8c1.4-2.7,4.1-4.5,7.2-4.5c4.5,0,8.2,3.8,8.2,8.5v6.5v9.7v19.7c0,1.8-1.7,3.3-3.9,3.3
			c-2.1,0-3.9-1.5-3.9-3.3v-19.7h-0.9v19.7c0,1.8-1.7,3.3-3.9,3.3c-2.1,0-3.9-1.5-3.9-3.3v-19.7v-9.7v-1.2c-2.4,1.6-5.5,3.2-9.4,4.6
			c-0.4,0.1-0.8,0.2-1.2,0.2c-1.2,0-2.4-0.6-2.9-1.7C149.8,183.4,150.6,181.8,152.2,181.2z"/>
		<polyline fill="none" stroke="#FFFFFF" stroke-width="4" stroke-miterlimit="10" points="68.4,21.6 80.2,21.6 80.2,63.2 
			88.5,63.6 88.5,216.5 2,216.5 2,64.6 10.3,64.1 10.3,21.6 20.5,21.6 		"/>
	</g>
	<g>
		<g>
			
				<rect x="28.7" y="-6.2" transform="matrix(0.5611 0.8277 -0.8277 0.5611 23.1889 -20.2271)" fill="#FFFFFF" width="4" height="36"/>
		</g>
		<g>
			
				<rect x="56.2" y="-6.2" transform="matrix(-0.5611 0.8277 -0.8277 -0.5611 100.5504 -29.808)" fill="#FFFFFF" width="4" height="36"/>
		</g>
	</g>
</g>
</svg>
