<?xml version="1.0" encoding="utf-8"?>
<!-- Generator: Adobe Illustrator 18.0.0, SVG Export Plug-In . SVG Version: 6.00 Build 0)  -->
<!DOCTYPE svg PUBLIC "-//W3C//DTD SVG 1.1//EN" "http://www.w3.org/Graphics/SVG/1.1/DTD/svg11.dtd">
<svg version="1.1" id="Layer_1" xmlns="http://www.w3.org/2000/svg" xmlns:xlink="http://www.w3.org/1999/xlink" x="0px" y="0px"
	 viewBox="0 0 204.3 179.2" enable-background="new 0 0 204.3 179.2" xml:space="preserve">
<g>
	<g>
		<g>
			<path fill="#FFFFFF" d="M58.6,30l4.3-0.9c1.2-0.2,2.2-0.1,2.9,0.3c0.5,0.3,0.9,0.8,1,1.5l0,0c0.3,1.4-0.5,2.3-1.2,2.8
				c1.3,0.1,2.6,0.5,2.9,2l0,0c0.4,1.7-0.9,3.2-3.1,3.6l-4.5,1L58.6,30z M63.8,33.9c1.6-0.3,2.5-1.3,2.2-2.7l0,0
				c-0.2-1.1-1.3-1.7-3-1.4l-3.5,0.7l0.9,4.1L63.8,33.9z M65.2,38.7c1.8-0.4,2.7-1.4,2.5-2.7l0,0c-0.3-1.3-1.5-1.8-3.6-1.4l-3.5,0.7
				l0.9,4.2L65.2,38.7z"/>
			<path fill="#FFFFFF" d="M70.3,36.1L70.3,36.1c-0.3-1.6,0.8-2.8,2.8-3.2c1.1-0.2,1.8-0.2,2.6-0.2l-0.1-0.3c-0.3-1.5-1.4-2.1-3-1.8
				c-0.9,0.2-1.6,0.6-2.2,1.1l-0.4-0.6c0.8-0.6,1.5-1,2.6-1.2c1-0.2,1.9-0.1,2.6,0.3c0.6,0.4,1,1,1.2,2l1,4.7l-0.7,0.2l-0.3-1.3
				c-0.4,0.8-1.2,1.8-2.6,2.1C72.3,38.2,70.6,37.7,70.3,36.1z M76,34.2l-0.2-0.9c-0.7,0-1.6,0-2.6,0.2c-1.6,0.3-2.3,1.2-2.1,2.3l0,0
				c0.2,1.1,1.4,1.5,2.6,1.3C75.1,36.8,76.3,35.6,76,34.2z"/>
			<path fill="#FFFFFF" d="M78.3,28.8l0.7-0.2l0.3,1.4c0.3-1,1-1.9,2.4-2.2c1.9-0.4,3.3,0.7,3.7,2.5l1,4.6l-0.7,0.2l-1-4.5
				c-0.3-1.6-1.4-2.4-3-2.1c-1.5,0.3-2.4,1.7-2.1,3.3l0.9,4.4l-0.7,0.2L78.3,28.8z"/>
			<path fill="#FFFFFF" d="M86.7,23.6l0.7-0.2l1.7,8.1l3.7-5.9l1-0.2l-2.6,4.1l4.3,3.5l-0.9,0.2l-3.8-3.1l-1.4,2.2l0.4,1.8L89,34.4
				L86.7,23.6z"/>
		</g>
		<g>
			<path fill="#FFFFFF" d="M82.2,55.2l-17.3,20l41.3-8.8L82.2,55.2z M82.5,56.6l19.8,9.3l-34.2,7.3L82.5,56.6z"/>
			<path fill="#FFFFFF" d="M76,93.8l7-1.5l-3.9-18.2l-7,1.5L76,93.8z M73.6,76.6l4.7-1l3.3,15.8l-4.7,1L73.6,76.6z"/>
			<path fill="#FFFFFF" d="M82.4,73.5l3.9,18.2l7-1.5L89.5,72L82.4,73.5z M91.9,89.2l-4.7,1l-3.3-15.8l4.7-1L91.9,89.2z"/>
			<path fill="#FFFFFF" d="M99.8,69.8l-7,1.5l3.9,18.2l7-1.5L99.8,69.8z M102.2,87l-4.7,1l-3.3-15.8l4.7-1L102.2,87z"/>
			
				<rect x="71.4" y="96" transform="matrix(-0.9782 0.2075 -0.2075 -0.9782 199.7694 172.1911)" fill="#FFFFFF" width="38.9" height="1.2"/>
			
				<rect x="76.8" y="92.8" transform="matrix(-0.9782 0.2075 -0.2075 -0.9782 198.0947 166.0317)" fill="#FFFFFF" width="27" height="1.2"/>
		</g>
	</g>
	<g>
		<g>
			<path fill="#FFFFFF" d="M2.4,2.4l4.4,0.3C8,2.7,9,3.1,9.5,3.7c0.4,0.5,0.6,1,0.6,1.7l0,0C10,6.9,9,7.6,8.1,7.9
				c1.3,0.4,2.3,1.2,2.2,2.7l0,0c-0.1,1.8-1.7,2.8-4,2.7L1.8,13L2.4,2.4z M6.5,12.5c1.8,0.1,3-0.7,3.1-2l0,0c0.1-1.3-1-2.1-3.1-2.3
				L2.9,8l-0.3,4.3L6.5,12.5z M6.4,7.5c1.6,0.1,2.8-0.6,2.9-2l0,0c0.1-1.2-0.8-2-2.5-2.1L3.2,3.1L2.9,7.3L6.4,7.5z"/>
			<path fill="#FFFFFF" d="M13,5.9l0.7,0l-0.1,2.2c0.7-1.3,2-2.3,3.6-2.1l-0.1,0.8l-0.1,0c-1.8-0.1-3.4,1.1-3.6,3.7l-0.2,3.2l-0.7,0
				L13,5.9z"/>
			<path fill="#FFFFFF" d="M18.3,10.1L18.3,10.1c0.1-2.2,1.9-4,4.2-3.8c2.3,0.1,3.8,2.1,3.7,4.3l0,0c-0.1,2.2-1.9,3.9-4.2,3.8
				C19.8,14.3,18.2,12.3,18.3,10.1z M25.5,10.6L25.5,10.6c0.1-1.9-1.2-3.5-3-3.6c-1.8-0.1-3.2,1.3-3.4,3.1l0,0
				c-0.1,1.9,1.2,3.4,3,3.5C24,13.8,25.4,12.4,25.5,10.6z"/>
			<path fill="#FFFFFF" d="M29,3.5l0.7,0l-0.5,8.3l5.1-4.7l1,0.1l-3.6,3.2L35,15L34,14.9l-2.8-4l-2,1.8l-0.1,1.9l-0.7,0L29,3.5z"/>
			<path fill="#FFFFFF" d="M36.5,11.2L36.5,11.2c0.1-2.3,1.8-4,3.9-3.8c2.2,0.1,3.4,2,3.3,4.3c0,0.1,0,0.2,0,0.3l-6.4-0.4
				c0,1.9,1.3,3.1,2.8,3.2c1.2,0.1,2.1-0.4,2.7-1.1l0.5,0.5c-0.8,0.8-1.8,1.4-3.3,1.3C38,15.4,36.4,13.6,36.5,11.2z M43,11.2
				c0-1.6-0.8-3.1-2.6-3.2c-1.5-0.1-2.8,1.1-3,2.8L43,11.2z"/>
			<path fill="#FFFFFF" d="M46.2,7.9l0.7,0l-0.1,2.2c0.7-1.3,2-2.3,3.6-2.1l-0.1,0.8l-0.1,0c-1.8-0.1-3.4,1.1-3.6,3.7l-0.2,3.2
				l-0.7,0L46.2,7.9z"/>
		</g>
		<g>
			<path fill="#FFFFFF" d="M47.1,44.9l-14-0.9l0.4-6.7l-14.7-0.9l-0.4,6.7l-14-0.9L2.6,71.5l42.7,2.6L47.1,44.9z M20,37.7l12.3,0.7
				L31.9,44l-12.3-0.7L20,37.7z M45.8,46L45,59l-15.5-0.9l0.1-2.4l-9.2-0.6l-0.1,2.4L4.7,56.6l0.8-13L45.8,46z M28.4,56.8l-0.2,3.6
				L21.3,60l0.2-3.6L28.4,56.8z M3.9,70.3l0.8-12.5l15.5,0.9l-0.1,2.4l9.2,0.6l0.1-2.4l15.5,0.9l-0.8,12.5L3.9,70.3z"/>
		</g>
	</g>
	<g>
		<g>
			<path fill="#FFFFFF" d="M111.6,59l3.8-2.2c1-0.6,2-0.8,2.9-0.6c0.6,0.2,1.1,0.5,1.4,1.1l0,0c0.7,1.2,0.3,2.3-0.3,3.1
				c1.3-0.4,2.6-0.3,3.4,1l0,0c0.9,1.5,0.2,3.3-1.8,4.4l-4,2.4L111.6,59z M117.8,61.1c1.4-0.8,2-2.1,1.2-3.3l0,0
				c-0.6-1-1.8-1.2-3.3-0.3l-3.1,1.8l2.1,3.6L117.8,61.1z M120.6,65.2c1.6-0.9,2.1-2.2,1.4-3.4l0,0c-0.7-1.1-2-1.2-3.8-0.1l-3.1,1.8
				l2.2,3.7L120.6,65.2z"/>
			<path fill="#FFFFFF" d="M122.3,56l0.6-0.4l1.1,1.9c-0.2-1.5,0.4-3,1.8-3.8l0.4,0.7l-0.1,0c-1.5,0.9-2.2,2.9-0.9,5l1.6,2.7
				l-0.6,0.4L122.3,56z"/>
			<path fill="#FFFFFF" d="M129.1,56.5L129.1,56.5c-1.1-1.9-0.6-4.4,1.3-5.6c2-1.2,4.4-0.4,5.5,1.4l0,0c1.1,1.9,0.6,4.3-1.4,5.5
				C132.6,59.1,130.2,58.4,129.1,56.5z M135.2,52.9L135.2,52.9c-1-1.6-2.9-2.2-4.5-1.3c-1.6,0.9-1.9,2.9-1,4.5l0,0
				c1,1.6,2.9,2.2,4.5,1.3C135.8,56.4,136.2,54.4,135.2,52.9z"/>
			<path fill="#FFFFFF" d="M134.2,45l0.6-0.4l4.3,7.1l1.6-6.7l0.8-0.5l-1.2,4.7l5.2,1.9l-0.8,0.5l-4.6-1.7l-0.6,2.6l1,1.6l-0.6,0.4
				L134.2,45z"/>
			<path fill="#FFFFFF" d="M144.7,47.2L144.7,47.2c-1.2-2-0.7-4.3,1.1-5.4c1.9-1.1,4-0.3,5.1,1.7c0.1,0.1,0.1,0.2,0.1,0.3l-5.5,3.3
				c1.1,1.6,2.9,1.8,4.2,1.1c1-0.6,1.5-1.5,1.7-2.4l0.7,0.1c-0.2,1.1-0.7,2.1-2,2.9C148.3,49.8,146,49.3,144.7,47.2z M150.1,43.6
				c-0.9-1.3-2.4-2.1-3.9-1.2c-1.3,0.8-1.7,2.5-0.9,4L150.1,43.6z"/>
			<path fill="#FFFFFF" d="M150.8,39l0.6-0.4l1.1,1.9c-0.2-1.5,0.4-3,1.8-3.8l0.4,0.7l-0.1,0c-1.5,0.9-2.2,2.9-0.9,5l1.6,2.7
				l-0.6,0.4L150.8,39z"/>
		</g>
		<path fill="#FFFFFF" d="M134,95.6h1.4l-1.4-2.4l34.7-20.6l6.7,11.2l-13.4,8l-1.2-2.1l-7.9,4.7l0.7,1.2h1.4l-0.5-0.8l5.8-3.5
			l1.9,3.1l-1.9,1.2h2.4l1.2-0.7l-1.2-2.1l13.4-8l6.4,10.8h1.4L169.1,71L157,78.1l-3.5-5.8l-12.6,7.5l3.5,5.8l-12.1,7.2L134,95.6z
			 M142.6,80.3l10.6-6.3l2.8,4.8L145.4,85L142.6,80.3z"/>
	</g>
	<g>
		<g>
			<g>
				<path fill="#FFFFFF" d="M185.9,179.2h-42.4c-1.1,0-2-0.8-2.1-1.8l-10.9-77.2c-0.2-1.2,0.7-2.3,1.8-2.4c1.2-0.2,2.3,0.6,2.4,1.8
					l10.7,75.3H184l10.7-75.3c0.2-1.2,1.2-2,2.4-1.8c1.2,0.2,2,1.3,1.8,2.4L188,177.4C187.8,178.4,186.9,179.2,185.9,179.2z"/>
			</g>
			<g>
				<path fill="#FFFFFF" d="M202.2,101.8h-75c-1.2,0-2.1-1-2.1-2.1c0-1.2,1-2.1,2.1-2.1h75c1.2,0,2.1,1,2.1,2.1
					C204.3,100.9,203.3,101.8,202.2,101.8z"/>
			</g>
		</g>
		<g>
			<g>
				<path fill="#FFFFFF" d="M151.6,166.2c-2,0-3.6-1.5-3.7-3.4l-4.2-48c-0.2-2.1,1.3-3.9,3.4-4.1c2.1-0.2,3.9,1.4,4.1,3.4l4.2,48
					c0.2,2.1-1.3,3.9-3.4,4.1C151.8,166.2,151.7,166.2,151.6,166.2z M147.4,112.8c-1,0.1-1.7,0.9-1.6,1.7l4.2,48
					c0.1,0.8,0.8,1.5,1.6,1.5l0.1,0c0.9-0.1,1.5-0.9,1.5-1.7l-4.2-48C148.9,113.5,148.2,112.8,147.4,112.8z"/>
			</g>
			<g>
				<path fill="#FFFFFF" d="M164.7,166.2c-2.1,0-3.8-1.7-3.8-3.8v-48.2c0-2.1,1.7-3.8,3.8-3.8c2.1,0,3.8,1.7,3.8,3.8v48.2
					C168.4,164.5,166.7,166.2,164.7,166.2z M164.7,112.6c-0.9,0-1.6,0.7-1.6,1.6v48.2c0,0.9,0.7,1.6,1.6,1.6c0.9,0,1.6-0.7,1.6-1.6
					v-48.2C166.3,113.4,165.5,112.6,164.7,112.6z"/>
			</g>
			<g>
				<path fill="#FFFFFF" d="M177.7,166.2c-0.1,0-0.2,0-0.3,0c-2.1-0.2-3.6-2-3.4-4.1l4.2-48c0.2-2,2-3.6,4.1-3.4
					c2.1,0.2,3.6,2,3.4,4.1l-4.2,48C181.3,164.8,179.7,166.2,177.7,166.2z M182.1,112.8c-1,0-1.7,0.6-1.7,1.5l-4.2,48
					c-0.1,0.9,0.6,1.7,1.5,1.7l0.1,0c0.8,0,1.5-0.6,1.6-1.5l4.2-48C183.6,113.7,183,112.9,182.1,112.8
					C182.1,112.8,182.1,112.8,182.1,112.8z"/>
			</g>
		</g>
	</g>
	<g>
		<g>
			<path fill="#FFFFFF" d="M198.6,68.5c-0.1,0-0.1-0.1-0.2-0.1L147,29.9c-0.9-0.7-1.1-2.1-0.4-3c0.7-0.9,2.1-1.2,3-0.4L201,64.9
				c0.9,0.7,1.1,2.1,0.4,3C200.8,68.8,199.6,69,198.6,68.5z"/>
		</g>
		<g>
			<path fill="#FFFFFF" d="M179.3,51.4c-0.1,0-0.1-0.1-0.2-0.1c-0.9-0.7-1.1-2.1-0.4-3l2.6-3.4l-6.9-5.1l-2.6,3.4
				c-0.7,0.9-2.1,1.1-3,0.4c-0.9-0.7-1.1-2.1-0.4-3l2.9-3.9c1.3-1.7,3.8-1.9,5.7-0.4l6.9,5.1c0.8,0.6,1.4,1.5,1.7,2.4
				c0.3,1.1,0.1,2.3-0.5,3.2l-2.9,3.9C181.5,51.7,180.2,51.9,179.3,51.4z"/>
		</g>
	</g>
</g>
</svg>
