<svg width="308" height="119" viewBox="0 0 308 119" fill="none" xmlns="http://www.w3.org/2000/svg">
<path fill-rule="evenodd" clip-rule="evenodd" d="M12.793 26.3386C12.9141 16.5026 21.0625 8.70185 30.8984 9.06122L267.875 17.1003C275.668 17.3386 282.27 22.6198 284.184 30.0534L296.898 78.0417C299.895 88.9597 291.738 99.7604 280.461 100.003L30.1797 106.475C20.2226 106.714 12.0742 98.7956 12.1953 88.8386L12.793 26.3386Z" fill="#B3E67C"/>
<path d="M51.7695 81.5182H45.2891C44.5703 81.5182 44.0938 80.7995 44.332 80.2018L63.0391 33.655C63.1563 33.1784 63.5156 32.9362 63.9961 32.9362H70.4766C71.1953 32.9362 71.6758 33.655 71.4375 34.3776L52.7305 80.9206C52.6094 81.28 52.1289 81.5182 51.7695 81.5182Z" fill="#052923"/>
<path d="M49.3672 62.0886C49.6054 61.8464 49.8437 61.487 50.0937 61.1276C55.2461 52.3698 52.4883 40.9753 43.7344 35.694C40.375 33.655 36.539 32.819 32.9375 33.0573C31.9765 33.0573 31.3789 34.2565 31.8594 35.0964L47.0898 61.9675C47.5664 62.9245 48.8867 62.9245 49.3672 62.0886Z" fill="#052923"/>
<path d="M77.7891 44.6901H71.7969C71.3164 44.6901 70.8359 45.1706 70.8359 45.6511V51.7722C70.8359 52.2487 71.3164 52.7292 71.7969 52.7292H77.7891C78.3867 52.7292 78.8672 52.2487 78.8672 51.7722V45.6511C78.8672 45.1706 78.3867 44.6901 77.7891 44.6901Z" fill="#052923"/>
<path d="M77.7891 81.5182H71.7969C71.3164 81.5182 70.8359 81.1589 70.8359 80.5612V56.6862C70.8359 56.0847 71.1953 55.7253 71.6758 55.6081L77.668 54.6471C78.2695 54.5261 78.8672 55.0065 78.8672 55.7253V80.5612C78.8672 81.1589 78.3867 81.5182 77.7891 81.5182Z" fill="#052923"/>
<path d="M119.402 60.0495L119.762 62.0886C119.762 62.6862 119.402 63.1667 118.805 63.2839L92.1797 67.2487C91.9414 67.3698 91.6992 67.6081 91.8203 67.9675C93.3789 72.7604 97.4609 75.405 102.977 74.569C107.051 73.9675 109.695 72.2839 110.895 69.8854C111.012 69.6472 111.254 69.405 111.613 69.405L118.203 68.3268C118.926 68.2057 119.523 68.9245 119.402 69.6472C117.605 75.8854 112.211 80.7995 104.055 81.9987C93.0195 83.6862 84.3867 77.3229 82.7109 65.8112C81.0312 54.4089 87.2656 45.8893 98.3008 44.2136C109.336 42.5339 117.727 48.7761 119.402 60.0495ZM109.816 58.0104C110.176 57.8932 110.293 57.53 110.176 57.2917C108.496 52.9714 104.293 50.9323 99.3789 51.6511C94.7031 52.3698 91.582 55.9675 90.9804 60.1706C90.8594 60.53 91.2226 60.7682 91.582 60.7682L109.816 58.0104Z" fill="#052923"/>
<path d="M131.398 34.0143V80.5612C131.398 81.1589 130.918 81.5182 130.32 81.5182H124.324C123.848 81.5182 123.367 81.1589 123.367 80.5612V34.0143C123.367 33.4167 123.848 32.9362 124.324 32.9362H130.32C130.918 32.9362 131.398 33.4167 131.398 34.0143Z" fill="#052923"/>
<path d="M171.934 34.0143V80.5612C171.934 81.1589 171.453 81.5182 170.855 81.5182H164.855C164.254 81.5182 163.895 81.1589 163.895 80.5612V77.8034C163.895 77.3229 163.297 77.2057 162.938 77.5651C160.418 80.5612 156.582 82.487 151.551 82.487C141.715 82.487 134.992 75.2878 134.992 63.1667C134.992 51.0534 141.715 43.8542 151.551 43.8542C156.582 43.8542 160.418 45.6511 162.938 48.7761C163.297 49.1354 163.895 48.8932 163.895 48.4167V34.0143C163.895 33.4167 164.254 32.9362 164.855 32.9362H170.855C171.453 32.9362 171.934 33.4167 171.934 34.0143ZM153.707 75.0456C159.82 75.0456 163.895 70.4831 163.895 62.9245C163.895 55.487 159.82 50.9323 153.707 50.9323C147.707 50.9323 143.391 55.6081 143.391 62.9245C143.391 70.3659 147.707 75.0456 153.707 75.0456Z" fill="#052923"/>
<path d="M212.469 60.0495L212.711 62.0886C212.828 62.6862 212.469 63.1667 211.871 63.2839L185.246 67.2487C185.008 67.3698 184.766 67.6081 184.887 67.9675C186.445 72.7604 190.52 75.405 196.043 74.569C200.117 73.9675 202.754 72.2839 203.953 69.8854C204.07 69.6472 204.312 69.405 204.672 69.405L211.27 68.3268C211.992 68.2057 212.59 68.9245 212.469 69.6472C210.672 75.8854 205.27 80.7995 197.121 81.9987C185.965 83.6862 177.449 77.3229 175.77 65.8112C174.09 54.4089 180.324 45.8893 191.359 44.2136C202.395 42.5339 210.793 48.7761 212.469 60.0495ZM202.875 58.0104C203.113 57.8932 203.352 57.53 203.234 57.2917C201.555 52.9714 197.359 50.9323 192.437 51.6511C187.762 52.3698 184.648 55.9675 184.047 60.1706C183.926 60.53 184.285 60.7682 184.527 60.7682L202.875 58.0104Z" fill="#052923"/>
<path d="M224.465 45.6511V48.7761C224.465 49.2526 225.063 49.4948 225.301 49.1354C227.699 46.1315 231.414 44.0925 236.809 43.8542C237.41 43.8542 237.77 44.3307 237.77 44.9323V51.4128C237.77 52.0104 237.41 52.4909 236.809 52.4909H234.652C227.941 52.4909 224.465 56.2057 224.465 63.2839V80.5612C224.465 81.1589 223.977 81.5182 223.379 81.5182H217.383C216.785 81.5182 216.426 81.1589 216.426 80.5612V45.6511C216.426 45.1706 216.785 44.6901 217.383 44.6901H223.379C223.977 44.6901 224.465 45.1706 224.465 45.6511Z" fill="#052923"/>
<path d="M268.355 55.9675H261.875C261.395 55.9675 261.035 55.6081 260.918 55.2487C260.438 52.8503 258.16 51.1706 254.684 51.1706C250.723 51.1706 248.922 52.7292 248.922 54.7682C248.922 56.8112 249.641 57.8932 254.086 58.7292L259.238 59.8073C267.391 61.3659 270.273 65.6901 270.273 71.0847C270.273 78.1628 264.633 82.487 255.402 82.487C245.207 82.487 240.055 77.5651 239.574 71.0847C239.453 70.4831 239.934 70.0065 240.531 70.0065H246.887C247.363 70.0065 247.844 70.3659 247.844 70.8425C248.445 73.4792 250.723 75.1667 255.883 75.1667C259.957 75.1667 261.875 73.4792 261.875 71.3229C261.875 68.8073 260.438 67.6081 256.121 66.7682L250.602 65.6901C243.168 64.3659 240.414 60.0495 240.414 54.7682C240.414 48.655 245.328 43.8542 254.684 43.8542C263.313 43.8542 268.836 48.655 269.434 54.8854C269.434 55.487 268.957 55.9675 268.355 55.9675Z" fill="#052923"/>
</svg>
