<svg width="484" height="152" viewBox="0 0 484 152" fill="none" xmlns="http://www.w3.org/2000/svg">
<path d="M67.1719 115.534H56.0234C54.707 115.534 53.8672 114.327 54.3477 113.132L86.7227 32.7526C87.082 32.155 87.6836 31.6745 88.4023 31.6745H99.6758C100.875 31.6745 101.715 32.8737 101.234 34.0729L68.8555 114.448C68.6172 115.049 67.8984 115.534 67.1719 115.534Z" fill="currentColor"/>
<path d="M63.0977 81.944C63.457 81.4636 63.8164 80.8659 64.1758 80.2565C73.293 65.1471 68.3789 45.3464 53.1484 36.2292C47.3867 32.7526 40.9141 31.3151 34.5547 31.7956C32.875 31.9167 31.7969 33.8346 32.7539 35.3893L59.1406 81.8229C59.9805 83.2604 62.1367 83.3815 63.0977 81.944Z" fill="currentColor"/>
<path d="M112.391 51.8268H102.074C101.113 51.8268 100.277 52.6667 100.277 53.6237V64.069C100.277 65.0261 101.113 65.7448 102.074 65.7448H112.391C113.348 65.7448 114.188 65.0261 114.188 64.069V53.6237C114.188 52.6667 113.348 51.8268 112.391 51.8268Z" fill="currentColor"/>
<path d="M112.391 115.534H102.074C101.113 115.534 100.277 114.807 100.277 113.729V72.4675C100.277 71.6198 100.875 70.9011 101.715 70.78L112.148 69.1042C113.227 68.9831 114.188 69.8229 114.188 70.9011V113.729C114.188 114.807 113.348 115.534 112.391 115.534Z" fill="currentColor"/>
<path d="M184.465 78.4597L185.062 81.944C185.184 82.9011 184.465 83.862 183.5 83.9792L137.328 90.9401C136.848 90.9401 136.488 91.5378 136.609 92.0182C139.367 100.296 146.566 104.85 156.043 103.413C162.996 102.335 167.551 99.4597 169.715 95.3737C169.953 94.8972 170.434 94.5378 171.031 94.4167L182.539 92.737C183.746 92.4987 184.824 93.6979 184.465 94.8972C181.461 105.811 171.992 114.21 157.84 116.253C138.648 119.132 123.894 108.214 120.898 88.4167C118.023 68.7448 128.816 53.9831 147.883 51.1081C167.07 48.2331 181.582 58.905 184.465 78.4597ZM167.789 74.862C168.387 74.7448 168.746 74.1432 168.508 73.6667C165.512 66.1042 158.32 62.7409 149.801 63.9479C141.769 65.1472 136.25 71.2604 135.172 78.5807C135.051 79.1784 135.531 79.6589 136.129 79.5378L167.789 74.862Z" fill="currentColor"/>
<path d="M205.207 33.4753V113.729C205.207 114.807 204.488 115.534 203.531 115.534H193.094C192.137 115.534 191.297 114.807 191.297 113.729V33.4753C191.297 32.5143 192.137 31.6745 193.094 31.6745H203.531C204.488 31.6745 205.207 32.5143 205.207 33.4753Z" fill="currentColor"/>
<path d="M275.484 33.4753V113.729C275.484 114.807 274.766 115.534 273.809 115.534H263.371C262.414 115.534 261.574 114.807 261.574 113.729V109.053C261.574 108.214 260.613 107.854 260.016 108.577C255.691 113.85 248.98 117.092 240.223 117.092C223.195 117.092 211.562 104.612 211.562 83.7409C211.562 62.862 223.195 50.5104 240.223 50.5104C248.98 50.5104 255.574 53.5065 260.016 58.905C260.613 59.5065 261.574 59.1472 261.574 58.3073V33.4753C261.574 32.5143 262.414 31.6745 263.371 31.6745H273.809C274.766 31.6745 275.484 32.5143 275.484 33.4753ZM243.945 104.253C254.613 104.253 261.574 96.3347 261.574 83.3815C261.574 70.5417 254.613 62.6237 243.945 62.6237C233.512 62.6237 226.191 70.78 226.191 83.3815C226.191 96.0925 233.512 104.253 243.945 104.253Z" fill="currentColor"/>
<path d="M345.883 78.4597L346.363 81.944C346.48 82.9011 345.883 83.862 344.922 83.9792L298.746 90.9401C298.148 90.9401 297.789 91.5378 298.027 92.0182C300.793 100.296 307.863 104.85 317.34 103.413C324.414 102.335 328.973 99.4597 331.012 95.3737C331.371 94.8972 331.73 94.5378 332.332 94.4167L343.844 92.737C345.043 92.4987 346.121 93.6979 345.762 94.8972C342.758 105.811 333.41 114.21 319.137 116.253C299.953 119.132 285.203 108.214 282.199 88.4167C279.32 68.7448 290.117 53.9831 309.184 51.1081C328.367 48.2331 342.879 58.905 345.883 78.4597ZM329.215 74.862C329.695 74.7448 330.055 74.1432 329.812 73.6667C326.809 66.1042 319.617 62.7409 311.102 63.9479C303.07 65.1472 297.668 71.2604 296.469 78.5807C296.348 79.1784 296.949 79.6589 297.547 79.5378L329.215 74.862Z" fill="currentColor"/>
<path d="M366.625 53.6237V58.905C366.625 59.7448 367.586 60.1042 368.184 59.5065C372.148 54.3464 378.738 50.8698 387.977 50.5104C389.055 50.5104 389.773 51.3464 389.773 52.3073V63.4636C389.773 64.4284 389.055 65.2682 388.098 65.2682H384.375C372.746 65.2682 366.625 71.7409 366.625 83.9792V113.729C366.625 114.807 365.789 115.534 364.828 115.534H354.395C353.434 115.534 352.594 114.807 352.594 113.729V53.6237C352.594 52.6667 353.434 51.8268 354.395 51.8268H364.828C365.789 51.8268 366.625 52.6667 366.625 53.6237Z" fill="currentColor"/>
<path d="M442.777 71.3815H431.512C430.672 71.3815 430.07 70.78 429.824 69.9401C428.984 65.987 425.148 63.1003 418.918 63.1003C412.078 63.1003 408.961 65.7448 408.961 69.2214C408.961 72.8268 410.398 74.7448 417.957 76.1823L426.828 77.9792C441.219 80.737 446.02 88.1745 446.02 97.5339C446.02 109.655 436.426 117.092 420.234 117.092C402.727 117.092 393.73 108.577 392.773 97.4128C392.773 96.4557 393.492 95.4948 394.57 95.4948H405.605C406.445 95.4948 407.164 96.0925 407.281 96.9323C408.121 101.495 412.195 104.491 421.074 104.491C428.145 104.491 431.512 101.616 431.512 97.8932C431.512 93.5768 429.105 91.4206 421.672 90.1003L411.836 88.1745C399.004 85.78 394.328 78.3386 394.328 69.2214C394.328 58.7878 402.848 50.5104 419.035 50.5104C434.148 50.5104 443.496 58.6667 444.582 69.4636C444.703 70.5417 443.855 71.3815 442.777 71.3815Z" fill="currentColor"/>
</svg>
